<mxfile host="Electron" modified="2023-07-02T09:27:25.630Z" agent="Mozilla/5.0 (Macintosh; Intel Mac OS X 10_15_7) AppleWebKit/537.36 (KHTML, like Gecko) draw.io/21.5.1 Chrome/112.0.5615.204 Electron/24.6.0 Safari/537.36" etag="OAEYNk_8JjzV4ONwUSLz" version="21.5.1" type="device">
  <diagram id="R2lEEEUBdFMjLlhIrx00" name="Page-1">
    <mxGraphModel dx="1950" dy="-375" grid="1" gridSize="10" guides="1" tooltips="1" connect="1" arrows="1" fold="1" page="1" pageScale="1" pageWidth="850" pageHeight="1100" background="none" math="0" shadow="0" extFonts="Permanent Marker^https://fonts.googleapis.com/css?family=Permanent+Marker">
      <root>
        <mxCell id="0" />
        <mxCell id="1" parent="0" />
        <mxCell id="wVbVgi7mBvC_HDMRMZZE-342" value="FINAL ASSESSMENT" style="whiteSpace=wrap;html=1;align=center;shadow=0;sketch=0;fillStyle=solid;strokeColor=#330000;strokeWidth=1;fillColor=#FFFFFF;" parent="1" vertex="1">
          <mxGeometry x="-432.5" y="1540" width="100" height="40" as="geometry" />
        </mxCell>
        <mxCell id="wVbVgi7mBvC_HDMRMZZE-343" value="STUDENT" style="whiteSpace=wrap;html=1;align=center;shadow=0;sketch=0;fillStyle=solid;strokeColor=#330000;strokeWidth=1;fillColor=#FFFFFF;" parent="1" vertex="1">
          <mxGeometry x="-51" y="1234" width="100" height="40" as="geometry" />
        </mxCell>
        <mxCell id="wVbVgi7mBvC_HDMRMZZE-369" value="GRADING" style="shape=rhombus;perimeter=rhombusPerimeter;whiteSpace=wrap;html=1;align=center;shadow=0;sketch=0;fillStyle=solid;strokeColor=#330000;strokeWidth=1;fillColor=#FFFFFF;" parent="1" vertex="1">
          <mxGeometry x="-251.5" y="1530" width="120" height="60" as="geometry" />
        </mxCell>
        <mxCell id="wVbVgi7mBvC_HDMRMZZE-370" value="" style="endArrow=none;html=1;rounded=0;sourcePerimeterSpacing=0;" parent="1" edge="1">
          <mxGeometry relative="1" as="geometry">
            <mxPoint x="-251" y="1560" as="sourcePoint" />
            <mxPoint x="-332" y="1560" as="targetPoint" />
          </mxGeometry>
        </mxCell>
        <mxCell id="wVbVgi7mBvC_HDMRMZZE-371" value="(1, 1)" style="resizable=0;html=1;align=left;verticalAlign=bottom;shadow=0;sketch=0;fillStyle=solid;strokeColor=#330000;strokeWidth=1;fillColor=#FFFFFF;" parent="wVbVgi7mBvC_HDMRMZZE-370" connectable="0" vertex="1">
          <mxGeometry x="-1" relative="1" as="geometry">
            <mxPoint x="-80" y="-1" as="offset" />
          </mxGeometry>
        </mxCell>
        <mxCell id="wVbVgi7mBvC_HDMRMZZE-372" value="COURSE" style="whiteSpace=wrap;html=1;align=center;shadow=0;sketch=0;fillStyle=solid;strokeColor=#330000;strokeWidth=1;fillColor=#FFFFFF;" parent="1" vertex="1">
          <mxGeometry x="-47" y="1540" width="100" height="40" as="geometry" />
        </mxCell>
        <mxCell id="wVbVgi7mBvC_HDMRMZZE-373" value="" style="endArrow=none;html=1;rounded=0;" parent="1" edge="1">
          <mxGeometry relative="1" as="geometry">
            <mxPoint x="-132.5" y="1560" as="sourcePoint" />
            <mxPoint x="-47" y="1560" as="targetPoint" />
          </mxGeometry>
        </mxCell>
        <mxCell id="wVbVgi7mBvC_HDMRMZZE-374" value="(1, 1)" style="resizable=0;html=1;align=left;verticalAlign=bottom;shadow=0;sketch=0;fillStyle=solid;strokeColor=#330000;strokeWidth=1;fillColor=#FFFFFF;" parent="wVbVgi7mBvC_HDMRMZZE-373" connectable="0" vertex="1">
          <mxGeometry x="-1" relative="1" as="geometry">
            <mxPoint x="48" as="offset" />
          </mxGeometry>
        </mxCell>
        <mxCell id="wVbVgi7mBvC_HDMRMZZE-378" value="" style="endArrow=none;html=1;rounded=0;" parent="1" edge="1">
          <mxGeometry width="50" height="50" relative="1" as="geometry">
            <mxPoint x="-31" y="1480" as="sourcePoint" />
            <mxPoint x="-22.500000000000455" y="1540" as="targetPoint" />
          </mxGeometry>
        </mxCell>
        <mxCell id="wVbVgi7mBvC_HDMRMZZE-379" value="" style="ellipse;whiteSpace=wrap;html=1;aspect=fixed;shadow=0;sketch=0;fillStyle=solid;strokeColor=#330000;strokeWidth=1;fillColor=#FFFFFF;flipV=0;flipH=1;perimeterSpacing=0;" parent="1" vertex="1">
          <mxGeometry x="-42.5" y="1465" width="20" height="20" as="geometry" />
        </mxCell>
        <mxCell id="wVbVgi7mBvC_HDMRMZZE-381" value="UNIT" style="whiteSpace=wrap;html=1;align=center;shadow=0;sketch=0;fillStyle=solid;strokeColor=#330000;strokeWidth=1;fillColor=#FFFFFF;" parent="1" vertex="1">
          <mxGeometry x="335.25" y="1540" width="100" height="40" as="geometry" />
        </mxCell>
        <mxCell id="wVbVgi7mBvC_HDMRMZZE-382" value="LEARNING" style="shape=rhombus;perimeter=rhombusPerimeter;whiteSpace=wrap;html=1;align=center;shadow=0;sketch=0;fillStyle=solid;strokeColor=#330000;strokeWidth=1;fillColor=#FFFFFF;" parent="1" vertex="1">
          <mxGeometry x="130.25" y="1530" width="120" height="60" as="geometry" />
        </mxCell>
        <mxCell id="wVbVgi7mBvC_HDMRMZZE-383" value="" style="endArrow=none;html=1;rounded=0;" parent="1" edge="1">
          <mxGeometry relative="1" as="geometry">
            <mxPoint x="52.75" y="1560" as="sourcePoint" />
            <mxPoint x="132.75" y="1560" as="targetPoint" />
          </mxGeometry>
        </mxCell>
        <mxCell id="wVbVgi7mBvC_HDMRMZZE-384" value="(1, N)" style="resizable=0;html=1;align=left;verticalAlign=bottom;shadow=0;sketch=0;fillStyle=solid;strokeColor=#330000;strokeWidth=1;fillColor=#FFFFFF;" parent="wVbVgi7mBvC_HDMRMZZE-383" connectable="0" vertex="1">
          <mxGeometry x="-1" relative="1" as="geometry">
            <mxPoint x="5" as="offset" />
          </mxGeometry>
        </mxCell>
        <mxCell id="wVbVgi7mBvC_HDMRMZZE-385" value="" style="endArrow=none;html=1;rounded=0;" parent="1" edge="1">
          <mxGeometry relative="1" as="geometry">
            <mxPoint x="249.75" y="1560" as="sourcePoint" />
            <mxPoint x="335.25" y="1560" as="targetPoint" />
          </mxGeometry>
        </mxCell>
        <mxCell id="wVbVgi7mBvC_HDMRMZZE-386" value="(1, 1)" style="resizable=0;html=1;align=left;verticalAlign=bottom;shadow=0;sketch=0;fillStyle=solid;strokeColor=#330000;strokeWidth=1;fillColor=#FFFFFF;" parent="wVbVgi7mBvC_HDMRMZZE-385" connectable="0" vertex="1">
          <mxGeometry x="-1" relative="1" as="geometry">
            <mxPoint x="47" as="offset" />
          </mxGeometry>
        </mxCell>
        <mxCell id="wVbVgi7mBvC_HDMRMZZE-387" style="edgeStyle=none;rounded=0;orthogonalLoop=1;jettySize=auto;html=1;exitX=0.75;exitY=0;exitDx=0;exitDy=0;startArrow=none;" parent="1" source="wVbVgi7mBvC_HDMRMZZE-391" edge="1">
          <mxGeometry relative="1" as="geometry">
            <mxPoint x="420.25" y="1480" as="targetPoint" />
          </mxGeometry>
        </mxCell>
        <mxCell id="wVbVgi7mBvC_HDMRMZZE-388" style="edgeStyle=none;rounded=0;orthogonalLoop=1;jettySize=auto;html=1;exitX=0.25;exitY=0;exitDx=0;exitDy=0;" parent="1" edge="1">
          <mxGeometry relative="1" as="geometry">
            <mxPoint x="360.25" y="1480" as="targetPoint" />
            <mxPoint x="365.25" y="1540" as="sourcePoint" />
          </mxGeometry>
        </mxCell>
        <mxCell id="wVbVgi7mBvC_HDMRMZZE-389" value="number" style="text;html=1;align=center;verticalAlign=middle;resizable=0;points=[];autosize=1;strokeColor=none;fillColor=none;" parent="1" vertex="1">
          <mxGeometry x="323" y="1446" width="60" height="30" as="geometry" />
        </mxCell>
        <mxCell id="wVbVgi7mBvC_HDMRMZZE-390" value="" style="edgeStyle=none;rounded=0;orthogonalLoop=1;jettySize=auto;html=1;exitX=0.75;exitY=0;exitDx=0;exitDy=0;endArrow=none;" parent="1" target="wVbVgi7mBvC_HDMRMZZE-391" edge="1">
          <mxGeometry relative="1" as="geometry">
            <mxPoint x="420.25" y="1480" as="targetPoint" />
            <mxPoint x="415.25" y="1540" as="sourcePoint" />
          </mxGeometry>
        </mxCell>
        <mxCell id="wVbVgi7mBvC_HDMRMZZE-391" value="" style="ellipse;whiteSpace=wrap;html=1;fillColor=#FFFFFF;strokeColor=#330000;shadow=0;sketch=0;fillStyle=solid;strokeWidth=1;" parent="1" vertex="1">
          <mxGeometry x="410.25" y="1470" width="20" height="20" as="geometry" />
        </mxCell>
        <mxCell id="wVbVgi7mBvC_HDMRMZZE-392" value="" style="ellipse;whiteSpace=wrap;html=1;fillColor=#FFFFFF;strokeColor=#330000;shadow=0;sketch=0;fillStyle=solid;strokeWidth=1;" parent="1" vertex="1">
          <mxGeometry x="350.25" y="1470" width="20" height="20" as="geometry" />
        </mxCell>
        <mxCell id="wVbVgi7mBvC_HDMRMZZE-397" value="name" style="text;html=1;align=center;verticalAlign=middle;resizable=0;points=[];autosize=1;strokeColor=none;fillColor=none;" parent="1" vertex="1">
          <mxGeometry x="433.25" y="1448" width="50" height="30" as="geometry" />
        </mxCell>
        <mxCell id="wVbVgi7mBvC_HDMRMZZE-400" value="" style="endArrow=none;html=1;rounded=0;" parent="1" edge="1">
          <mxGeometry relative="1" as="geometry">
            <mxPoint x="2.660000000000025" y="1274" as="sourcePoint" />
            <mxPoint x="2.660000000000025" y="1350" as="targetPoint" />
          </mxGeometry>
        </mxCell>
        <mxCell id="wVbVgi7mBvC_HDMRMZZE-401" value="(0, N)" style="resizable=0;html=1;align=left;verticalAlign=bottom;shadow=0;sketch=0;fillStyle=solid;strokeColor=#330000;strokeWidth=1;fillColor=#FFFFFF;" parent="wVbVgi7mBvC_HDMRMZZE-400" connectable="0" vertex="1">
          <mxGeometry x="-1" relative="1" as="geometry">
            <mxPoint x="1" y="19" as="offset" />
          </mxGeometry>
        </mxCell>
        <mxCell id="wVbVgi7mBvC_HDMRMZZE-405" value="" style="endArrow=none;html=1;rounded=0;entryX=-0.014;entryY=-0.133;entryDx=0;entryDy=0;entryPerimeter=0;exitX=1;exitY=0.25;exitDx=0;exitDy=0;" parent="1" source="wVbVgi7mBvC_HDMRMZZE-343" edge="1">
          <mxGeometry width="50" height="50" relative="1" as="geometry">
            <mxPoint x="49" y="1255" as="sourcePoint" />
            <mxPoint x="106.99000000000001" y="1227.9899999999998" as="targetPoint" />
          </mxGeometry>
        </mxCell>
        <mxCell id="wVbVgi7mBvC_HDMRMZZE-406" value="" style="ellipse;whiteSpace=wrap;html=1;aspect=fixed;shadow=0;sketch=0;fillStyle=solid;strokeColor=#330000;strokeWidth=1;fillColor=#000000;flipV=1;" parent="1" vertex="1">
          <mxGeometry x="104" y="1216" width="20" height="20" as="geometry" />
        </mxCell>
        <mxCell id="wVbVgi7mBvC_HDMRMZZE-407" value="studentID" style="text;html=1;align=center;verticalAlign=middle;resizable=0;points=[];autosize=1;strokeColor=none;fillColor=none;flipV=1;" parent="1" vertex="1">
          <mxGeometry x="121.25" y="1195.55" width="70" height="30" as="geometry" />
        </mxCell>
        <mxCell id="wVbVgi7mBvC_HDMRMZZE-410" value="" style="endArrow=none;html=1;rounded=0;" parent="1" edge="1">
          <mxGeometry relative="1" as="geometry">
            <mxPoint x="385.4100000000001" y="1663" as="sourcePoint" />
            <mxPoint x="385.4100000000001" y="1580" as="targetPoint" />
          </mxGeometry>
        </mxCell>
        <mxCell id="wVbVgi7mBvC_HDMRMZZE-411" value="(1, N)" style="resizable=0;html=1;align=left;verticalAlign=bottom;shadow=0;sketch=0;fillStyle=solid;strokeColor=#330000;strokeWidth=1;fillColor=#FFFFFF;" parent="wVbVgi7mBvC_HDMRMZZE-410" connectable="0" vertex="1">
          <mxGeometry x="-1" relative="1" as="geometry">
            <mxPoint x="1" y="-59" as="offset" />
          </mxGeometry>
        </mxCell>
        <mxCell id="wVbVgi7mBvC_HDMRMZZE-412" value="USING&lt;br&gt;RESOURCES" style="shape=rhombus;perimeter=rhombusPerimeter;whiteSpace=wrap;html=1;align=center;shadow=0;sketch=0;fillStyle=solid;strokeColor=#330000;strokeWidth=1;fillColor=#FFFFFF;" parent="1" vertex="1">
          <mxGeometry x="325" y="1663" width="120" height="60" as="geometry" />
        </mxCell>
        <mxCell id="wVbVgi7mBvC_HDMRMZZE-413" value="" style="endArrow=none;html=1;rounded=0;" parent="1" edge="1">
          <mxGeometry relative="1" as="geometry">
            <mxPoint x="385.4100000000001" y="1805" as="sourcePoint" />
            <mxPoint x="385.4100000000001" y="1723" as="targetPoint" />
          </mxGeometry>
        </mxCell>
        <mxCell id="wVbVgi7mBvC_HDMRMZZE-414" value="(1, 1)" style="resizable=0;html=1;align=left;verticalAlign=bottom;shadow=0;sketch=0;fillStyle=solid;strokeColor=#330000;strokeWidth=1;fillColor=#FFFFFF;" parent="wVbVgi7mBvC_HDMRMZZE-413" connectable="0" vertex="1">
          <mxGeometry x="-1" relative="1" as="geometry">
            <mxPoint x="1" y="-2" as="offset" />
          </mxGeometry>
        </mxCell>
        <mxCell id="wVbVgi7mBvC_HDMRMZZE-415" value="LEARNING MATERIAL" style="whiteSpace=wrap;html=1;align=center;shadow=0;sketch=0;fillStyle=solid;strokeColor=#330000;strokeWidth=1;fillColor=#FFFFFF;" parent="1" vertex="1">
          <mxGeometry x="336" y="1806" width="100" height="40" as="geometry" />
        </mxCell>
        <mxCell id="3XlOtEZdqVWkjSuW6pGu-1" value="" style="html=1;shadow=0;dashed=0;align=center;verticalAlign=middle;shape=mxgraph.arrows2.arrow;dy=0.6;dx=40;direction=north;notch=0;fillStyle=solid;fillColor=#000000;" parent="1" vertex="1">
          <mxGeometry x="370" y="1846" width="30" height="14.55" as="geometry" />
        </mxCell>
        <mxCell id="3XlOtEZdqVWkjSuW6pGu-2" value="" style="rounded=0;whiteSpace=wrap;html=1;" parent="1" vertex="1">
          <mxGeometry x="380" y="1860.5500000000002" width="10" height="40" as="geometry" />
        </mxCell>
        <mxCell id="3XlOtEZdqVWkjSuW6pGu-3" value="" style="endArrow=none;html=1;rounded=0;" parent="1" edge="1">
          <mxGeometry width="50" height="50" relative="1" as="geometry">
            <mxPoint x="252" y="1900" as="sourcePoint" />
            <mxPoint x="522" y="1900" as="targetPoint" />
          </mxGeometry>
        </mxCell>
        <mxCell id="3XlOtEZdqVWkjSuW6pGu-4" value="" style="endArrow=none;html=1;rounded=0;" parent="1" edge="1">
          <mxGeometry width="50" height="50" relative="1" as="geometry">
            <mxPoint x="252" y="1940" as="sourcePoint" />
            <mxPoint x="252" y="1900" as="targetPoint" />
          </mxGeometry>
        </mxCell>
        <mxCell id="3XlOtEZdqVWkjSuW6pGu-5" value="" style="endArrow=none;html=1;rounded=0;" parent="1" edge="1">
          <mxGeometry width="50" height="50" relative="1" as="geometry">
            <mxPoint x="385" y="1940" as="sourcePoint" />
            <mxPoint x="385" y="1900" as="targetPoint" />
          </mxGeometry>
        </mxCell>
        <mxCell id="3XlOtEZdqVWkjSuW6pGu-6" value="" style="endArrow=none;html=1;rounded=0;" parent="1" edge="1">
          <mxGeometry width="50" height="50" relative="1" as="geometry">
            <mxPoint x="522" y="1940" as="sourcePoint" />
            <mxPoint x="522" y="1900" as="targetPoint" />
          </mxGeometry>
        </mxCell>
        <mxCell id="3XlOtEZdqVWkjSuW6pGu-12" value="description" style="text;html=1;align=center;verticalAlign=middle;resizable=0;points=[];autosize=1;strokeColor=none;fillColor=none;" parent="1" vertex="1">
          <mxGeometry x="491.5" y="1726" width="80" height="30" as="geometry" />
        </mxCell>
        <mxCell id="3XlOtEZdqVWkjSuW6pGu-13" value="" style="edgeStyle=none;rounded=0;orthogonalLoop=1;jettySize=auto;html=1;exitX=0.75;exitY=0;exitDx=0;exitDy=0;endArrow=none;entryX=0;entryY=1;entryDx=0;entryDy=0;" parent="1" edge="1">
          <mxGeometry relative="1" as="geometry">
            <mxPoint x="489.9289321881347" y="1763.0710678118653" as="targetPoint" />
            <mxPoint x="433" y="1806" as="sourcePoint" />
          </mxGeometry>
        </mxCell>
        <mxCell id="3XlOtEZdqVWkjSuW6pGu-14" value="" style="ellipse;whiteSpace=wrap;html=1;fillColor=#FFFFFF;strokeColor=#330000;shadow=0;sketch=0;fillStyle=solid;strokeWidth=1;flipV=1;" parent="1" vertex="1">
          <mxGeometry x="501" y="1849" width="20" height="20" as="geometry" />
        </mxCell>
        <mxCell id="3XlOtEZdqVWkjSuW6pGu-20" value="dimension&lt;br style=&quot;border-color: var(--border-color);&quot;&gt;(minutes /&amp;nbsp;nr_of_pages / nr_of_questions)" style="text;html=1;align=center;verticalAlign=middle;resizable=0;points=[];autosize=1;strokeColor=none;fillColor=none;flipV=1;" parent="1" vertex="1">
          <mxGeometry x="431" y="1850" width="250" height="40" as="geometry" />
        </mxCell>
        <mxCell id="3XlOtEZdqVWkjSuW6pGu-23" value="" style="edgeStyle=none;rounded=0;orthogonalLoop=1;jettySize=auto;html=1;exitX=0.75;exitY=0;exitDx=0;exitDy=0;endArrow=none;" parent="1" edge="1">
          <mxGeometry relative="1" as="geometry">
            <mxPoint x="502" y="1856.000000000001" as="targetPoint" />
            <mxPoint x="436" y="1830.000000000001" as="sourcePoint" />
          </mxGeometry>
        </mxCell>
        <mxCell id="3XlOtEZdqVWkjSuW6pGu-25" value="" style="endArrow=none;html=1;rounded=0;" parent="1" edge="1">
          <mxGeometry width="50" height="50" relative="1" as="geometry">
            <mxPoint x="356" y="1806" as="sourcePoint" />
            <mxPoint x="312" y="1755" as="targetPoint" />
          </mxGeometry>
        </mxCell>
        <mxCell id="3XlOtEZdqVWkjSuW6pGu-26" value="" style="ellipse;whiteSpace=wrap;html=1;fillColor=#FFFFFF;strokeColor=#330000;shadow=0;sketch=0;fillStyle=solid;strokeWidth=1;" parent="1" vertex="1">
          <mxGeometry x="297" y="1736" width="20" height="20" as="geometry" />
        </mxCell>
        <mxCell id="3XlOtEZdqVWkjSuW6pGu-27" value="name" style="text;html=1;align=center;verticalAlign=middle;resizable=0;points=[];autosize=1;strokeColor=none;fillColor=none;flipV=1;" parent="1" vertex="1">
          <mxGeometry x="253" y="1723" width="50" height="30" as="geometry" />
        </mxCell>
        <mxCell id="3XlOtEZdqVWkjSuW6pGu-29" value="" style="endArrow=none;html=1;rounded=0;" parent="1" edge="1">
          <mxGeometry width="50" height="50" relative="1" as="geometry">
            <mxPoint x="447" y="1630" as="sourcePoint" />
            <mxPoint x="411" y="1676" as="targetPoint" />
          </mxGeometry>
        </mxCell>
        <mxCell id="3XlOtEZdqVWkjSuW6pGu-30" value="" style="ellipse;whiteSpace=wrap;html=1;fillColor=#FFFFFF;strokeColor=#330000;shadow=0;sketch=0;fillStyle=solid;strokeWidth=1;" parent="1" vertex="1">
          <mxGeometry x="439" y="1613" width="20" height="20" as="geometry" />
        </mxCell>
        <mxCell id="3XlOtEZdqVWkjSuW6pGu-33" value="accessDate" style="text;html=1;align=center;verticalAlign=middle;resizable=0;points=[];autosize=1;strokeColor=none;fillColor=none;" parent="1" vertex="1">
          <mxGeometry x="442.5" y="1590" width="90" height="30" as="geometry" />
        </mxCell>
        <mxCell id="HoVi9p8Lm3jnbSQNBDDz-15" value="" style="endArrow=none;html=1;rounded=0;" parent="1" edge="1">
          <mxGeometry width="50" height="50" relative="1" as="geometry">
            <mxPoint x="49" y="1540" as="sourcePoint" />
            <mxPoint x="56" y="1484" as="targetPoint" />
          </mxGeometry>
        </mxCell>
        <mxCell id="HoVi9p8Lm3jnbSQNBDDz-16" value="" style="ellipse;whiteSpace=wrap;html=1;aspect=fixed;shadow=0;sketch=0;fillStyle=solid;strokeColor=#330000;strokeWidth=1;fillColor=#FFFFFF;" parent="1" vertex="1">
          <mxGeometry x="48" y="1465" width="20" height="20" as="geometry" />
        </mxCell>
        <mxCell id="HoVi9p8Lm3jnbSQNBDDz-17" value="courseYear" style="text;html=1;align=center;verticalAlign=middle;resizable=0;points=[];autosize=1;strokeColor=none;fillColor=none;" parent="1" vertex="1">
          <mxGeometry x="6" y="1438" width="80" height="30" as="geometry" />
        </mxCell>
        <mxCell id="HoVi9p8Lm3jnbSQNBDDz-19" value="" style="curved=1;endArrow=classic;html=1;rounded=0;" parent="1" edge="1">
          <mxGeometry width="50" height="50" relative="1" as="geometry">
            <mxPoint x="70" y="1523" as="sourcePoint" />
            <mxPoint x="-71" y="1521" as="targetPoint" />
            <Array as="points">
              <mxPoint x="69.25" y="1523" />
              <mxPoint x="39.25" y="1503" />
            </Array>
          </mxGeometry>
        </mxCell>
        <mxCell id="HoVi9p8Lm3jnbSQNBDDz-20" value="" style="shape=waypoint;fillStyle=solid;size=6;pointerEvents=1;points=[];resizable=0;rotatable=0;perimeter=centerPerimeter;snapToPoint=1;strokeWidth=3;fillColor=none;strokeColor=default;perimeterSpacing=0;shadow=0;sketch=0;flipV=0;flipH=0;" parent="1" vertex="1">
          <mxGeometry x="-36" y="1505" width="20" height="20" as="geometry" />
        </mxCell>
        <mxCell id="HoVi9p8Lm3jnbSQNBDDz-21" value="" style="shape=waypoint;fillStyle=solid;size=6;pointerEvents=1;points=[];resizable=0;rotatable=0;perimeter=centerPerimeter;snapToPoint=1;strokeWidth=3;fillColor=none;strokeColor=default;perimeterSpacing=0;shadow=0;sketch=0;flipV=0;flipH=0;" parent="1" vertex="1">
          <mxGeometry x="43" y="1506" width="20" height="20" as="geometry" />
        </mxCell>
        <mxCell id="HoVi9p8Lm3jnbSQNBDDz-22" value="" style="ellipse;whiteSpace=wrap;html=1;aspect=fixed;fillColor=#000000;" parent="1" vertex="1">
          <mxGeometry x="-77.5" y="1510" width="20" height="20" as="geometry" />
        </mxCell>
        <mxCell id="RR2c_pu_wV1OcW-yYHsD-12" value="" style="rounded=0;whiteSpace=wrap;html=1;" parent="1" vertex="1">
          <mxGeometry x="380" y="1860.5500000000002" width="10" height="40" as="geometry" />
        </mxCell>
        <mxCell id="RR2c_pu_wV1OcW-yYHsD-13" value="" style="endArrow=none;html=1;rounded=0;" parent="1" edge="1">
          <mxGeometry width="50" height="50" relative="1" as="geometry">
            <mxPoint x="252" y="1900" as="sourcePoint" />
            <mxPoint x="522" y="1900" as="targetPoint" />
          </mxGeometry>
        </mxCell>
        <mxCell id="RR2c_pu_wV1OcW-yYHsD-14" value="" style="endArrow=none;html=1;rounded=0;" parent="1" edge="1">
          <mxGeometry width="50" height="50" relative="1" as="geometry">
            <mxPoint x="252" y="1940" as="sourcePoint" />
            <mxPoint x="252" y="1900" as="targetPoint" />
          </mxGeometry>
        </mxCell>
        <mxCell id="RR2c_pu_wV1OcW-yYHsD-15" value="" style="endArrow=none;html=1;rounded=0;" parent="1" edge="1">
          <mxGeometry width="50" height="50" relative="1" as="geometry">
            <mxPoint x="385" y="1940" as="sourcePoint" />
            <mxPoint x="385" y="1900" as="targetPoint" />
          </mxGeometry>
        </mxCell>
        <mxCell id="RR2c_pu_wV1OcW-yYHsD-16" value="" style="endArrow=none;html=1;rounded=0;" parent="1" edge="1">
          <mxGeometry width="50" height="50" relative="1" as="geometry">
            <mxPoint x="522" y="1940" as="sourcePoint" />
            <mxPoint x="522" y="1900" as="targetPoint" />
          </mxGeometry>
        </mxCell>
        <mxCell id="RR2c_pu_wV1OcW-yYHsD-17" value="VIDEO LECTURE" style="whiteSpace=wrap;html=1;align=center;fillStyle=auto;fillColor=#ffffff;" parent="1" vertex="1">
          <mxGeometry x="201" y="1940" width="100" height="40" as="geometry" />
        </mxCell>
        <mxCell id="RR2c_pu_wV1OcW-yYHsD-18" value="SLIDE" style="whiteSpace=wrap;html=1;align=center;fillStyle=auto;fillColor=#ffffff;" parent="1" vertex="1">
          <mxGeometry x="336" y="1940" width="100" height="40" as="geometry" />
        </mxCell>
        <mxCell id="RR2c_pu_wV1OcW-yYHsD-19" value="QUIZ" style="whiteSpace=wrap;html=1;align=center;fillStyle=auto;fillColor=#ffffff;" parent="1" vertex="1">
          <mxGeometry x="468" y="1940" width="100" height="40" as="geometry" />
        </mxCell>
        <mxCell id="UWVfNUczjuXZUvVL65qW-2" value="nr_of_attempts" style="text;html=1;align=center;verticalAlign=middle;resizable=0;points=[];autosize=1;strokeColor=none;fillColor=none;" parent="1" vertex="1">
          <mxGeometry x="-243" y="1662" width="100" height="30" as="geometry" />
        </mxCell>
        <mxCell id="UWVfNUczjuXZUvVL65qW-7" value="" style="edgeStyle=none;rounded=0;orthogonalLoop=1;jettySize=auto;html=1;exitX=0.5;exitY=0;exitDx=0;exitDy=0;endArrow=none;" parent="1" edge="1" source="wVbVgi7mBvC_HDMRMZZE-342">
          <mxGeometry relative="1" as="geometry">
            <mxPoint x="-382" y="1476" as="targetPoint" />
            <mxPoint x="-384" y="1540" as="sourcePoint" />
          </mxGeometry>
        </mxCell>
        <mxCell id="UWVfNUczjuXZUvVL65qW-8" value="" style="ellipse;whiteSpace=wrap;html=1;fillColor=#FFFFFF;strokeColor=#330000;shadow=0;sketch=0;fillStyle=solid;strokeWidth=1;" parent="1" vertex="1">
          <mxGeometry x="-392" y="1466" width="20" height="20" as="geometry" />
        </mxCell>
        <mxCell id="UWVfNUczjuXZUvVL65qW-9" value="name" style="text;html=1;align=center;verticalAlign=middle;resizable=0;points=[];autosize=1;strokeColor=none;fillColor=none;" parent="1" vertex="1">
          <mxGeometry x="-403.5" y="1439" width="50" height="30" as="geometry" />
        </mxCell>
        <mxCell id="UWVfNUczjuXZUvVL65qW-26" value="attemptDate" style="text;html=1;align=center;verticalAlign=middle;resizable=0;points=[];autosize=1;strokeColor=none;fillColor=none;" parent="1" vertex="1">
          <mxGeometry x="-147" y="1614" width="90" height="30" as="geometry" />
        </mxCell>
        <mxCell id="UWVfNUczjuXZUvVL65qW-27" value="" style="ellipse;whiteSpace=wrap;html=1;fillColor=#FFFFFF;strokeColor=#330000;shadow=0;sketch=0;fillStyle=solid;strokeWidth=1;" parent="1" vertex="1">
          <mxGeometry x="-157" y="1631" width="20" height="20" as="geometry" />
        </mxCell>
        <mxCell id="UWVfNUczjuXZUvVL65qW-28" value="" style="edgeStyle=none;rounded=0;orthogonalLoop=1;jettySize=auto;html=1;exitX=0.75;exitY=0;exitDx=0;exitDy=0;endArrow=none;" parent="1" edge="1">
          <mxGeometry relative="1" as="geometry">
            <mxPoint x="-149" y="1632" as="targetPoint" />
            <mxPoint x="-163" y="1576" as="sourcePoint" />
          </mxGeometry>
        </mxCell>
        <mxCell id="UWVfNUczjuXZUvVL65qW-32" value="courseName" style="text;html=1;align=center;verticalAlign=middle;resizable=0;points=[];autosize=1;strokeColor=none;fillColor=none;" parent="1" vertex="1">
          <mxGeometry x="-109" y="1438" width="90" height="30" as="geometry" />
        </mxCell>
        <mxCell id="UWVfNUczjuXZUvVL65qW-33" value="INSTRUCTOR" style="whiteSpace=wrap;html=1;align=center;shadow=0;sketch=0;fillStyle=solid;strokeColor=#330000;strokeWidth=1;fillColor=#FFFFFF;" parent="1" vertex="1">
          <mxGeometry x="-52.5" y="1780" width="100" height="40" as="geometry" />
        </mxCell>
        <mxCell id="UWVfNUczjuXZUvVL65qW-34" value="TEACHING" style="shape=rhombus;perimeter=rhombusPerimeter;whiteSpace=wrap;html=1;align=center;shadow=0;sketch=0;fillStyle=solid;strokeColor=#330000;strokeWidth=1;fillColor=#FFFFFF;" parent="1" vertex="1">
          <mxGeometry x="-62.5" y="1650" width="120" height="60" as="geometry" />
        </mxCell>
        <mxCell id="UWVfNUczjuXZUvVL65qW-35" value="" style="endArrow=none;html=1;rounded=0;" parent="1" edge="1">
          <mxGeometry relative="1" as="geometry">
            <mxPoint x="-2.5" y="1580" as="sourcePoint" />
            <mxPoint x="-2.5" y="1650" as="targetPoint" />
          </mxGeometry>
        </mxCell>
        <mxCell id="UWVfNUczjuXZUvVL65qW-36" value="" style="endArrow=none;html=1;rounded=0;" parent="1" edge="1">
          <mxGeometry relative="1" as="geometry">
            <mxPoint x="-2.5" y="1710" as="sourcePoint" />
            <mxPoint x="-2.5" y="1780" as="targetPoint" />
          </mxGeometry>
        </mxCell>
        <mxCell id="UWVfNUczjuXZUvVL65qW-37" value="" style="endArrow=none;html=1;rounded=0;" parent="1" edge="1">
          <mxGeometry width="50" height="50" relative="1" as="geometry">
            <mxPoint x="33" y="1580" as="sourcePoint" />
            <mxPoint x="57" y="1629" as="targetPoint" />
          </mxGeometry>
        </mxCell>
        <mxCell id="UWVfNUczjuXZUvVL65qW-38" value="" style="ellipse;whiteSpace=wrap;html=1;aspect=fixed;shadow=0;sketch=0;fillStyle=solid;strokeColor=#330000;strokeWidth=1;fillColor=#FFFFFF;" parent="1" vertex="1">
          <mxGeometry x="48.5" y="1629" width="20" height="20" as="geometry" />
        </mxCell>
        <mxCell id="UWVfNUczjuXZUvVL65qW-39" value="syllabus" style="text;html=1;align=center;verticalAlign=middle;resizable=0;points=[];autosize=1;strokeColor=none;fillColor=none;" parent="1" vertex="1">
          <mxGeometry x="58" y="1616" width="70" height="30" as="geometry" />
        </mxCell>
        <mxCell id="UWVfNUczjuXZUvVL65qW-40" value="firstName" style="text;html=1;align=center;verticalAlign=middle;resizable=0;points=[];autosize=1;strokeColor=none;fillColor=none;flipV=1;" parent="1" vertex="1">
          <mxGeometry x="-118" y="1894" width="70" height="30" as="geometry" />
        </mxCell>
        <mxCell id="UWVfNUczjuXZUvVL65qW-41" value="" style="edgeStyle=none;rounded=0;orthogonalLoop=1;jettySize=auto;html=1;exitX=0.75;exitY=0;exitDx=0;exitDy=0;endArrow=none;" parent="1" edge="1">
          <mxGeometry relative="1" as="geometry">
            <mxPoint x="58.93861533935433" y="1843.138115486453" as="targetPoint" />
            <mxPoint x="58" y="1843.9754676049874" as="sourcePoint" />
          </mxGeometry>
        </mxCell>
        <mxCell id="UWVfNUczjuXZUvVL65qW-42" value="genre" style="text;html=1;align=center;verticalAlign=middle;resizable=0;points=[];autosize=1;strokeColor=none;fillColor=none;flipV=1;" parent="1" vertex="1">
          <mxGeometry x="52" y="1893" width="50" height="30" as="geometry" />
        </mxCell>
        <mxCell id="UWVfNUczjuXZUvVL65qW-43" value="" style="edgeStyle=none;rounded=0;orthogonalLoop=1;jettySize=auto;html=1;endArrow=none;" parent="1" edge="1">
          <mxGeometry relative="1" as="geometry">
            <mxPoint x="-3" y="1884" as="targetPoint" />
            <mxPoint x="-3" y="1820" as="sourcePoint" />
          </mxGeometry>
        </mxCell>
        <mxCell id="UWVfNUczjuXZUvVL65qW-44" value="" style="ellipse;whiteSpace=wrap;html=1;fillColor=#FFFFFF;strokeColor=#330000;shadow=0;sketch=0;fillStyle=solid;strokeWidth=1;flipV=1;" parent="1" vertex="1">
          <mxGeometry x="-13" y="1881" width="20" height="20" as="geometry" />
        </mxCell>
        <mxCell id="UWVfNUczjuXZUvVL65qW-45" value="lastName" style="text;html=1;align=center;verticalAlign=middle;resizable=0;points=[];autosize=1;strokeColor=none;fillColor=none;flipV=1;" parent="1" vertex="1">
          <mxGeometry x="-34" y="1894" width="70" height="30" as="geometry" />
        </mxCell>
        <mxCell id="UWVfNUczjuXZUvVL65qW-46" value="" style="edgeStyle=none;rounded=0;orthogonalLoop=1;jettySize=auto;html=1;exitX=0.75;exitY=0;exitDx=0;exitDy=0;endArrow=none;entryX=0;entryY=0;entryDx=0;entryDy=0;" parent="1" edge="1">
          <mxGeometry relative="1" as="geometry">
            <mxPoint x="-57.07106781186576" y="1881.9289321881342" as="targetPoint" />
            <mxPoint x="-52" y="1819" as="sourcePoint" />
          </mxGeometry>
        </mxCell>
        <mxCell id="UWVfNUczjuXZUvVL65qW-47" value="" style="ellipse;whiteSpace=wrap;html=1;fillColor=#FFFFFF;strokeColor=#330000;shadow=0;sketch=0;fillStyle=solid;strokeWidth=1;flipV=1;" parent="1" vertex="1">
          <mxGeometry x="-67" y="1879" width="20" height="20" as="geometry" />
        </mxCell>
        <mxCell id="UWVfNUczjuXZUvVL65qW-48" value="" style="edgeStyle=none;rounded=0;orthogonalLoop=1;jettySize=auto;html=1;exitX=0.75;exitY=0;exitDx=0;exitDy=0;endArrow=none;entryX=1;entryY=0;entryDx=0;entryDy=0;" parent="1" edge="1">
          <mxGeometry relative="1" as="geometry">
            <mxPoint x="57.07106781186576" y="1882.9289321881342" as="targetPoint" />
            <mxPoint x="48" y="1820" as="sourcePoint" />
          </mxGeometry>
        </mxCell>
        <mxCell id="UWVfNUczjuXZUvVL65qW-49" value="" style="ellipse;whiteSpace=wrap;html=1;fillColor=#FFFFFF;strokeColor=#330000;shadow=0;sketch=0;fillStyle=solid;strokeWidth=1;flipV=1;" parent="1" vertex="1">
          <mxGeometry x="48" y="1880" width="20" height="20" as="geometry" />
        </mxCell>
        <mxCell id="UWVfNUczjuXZUvVL65qW-50" value="(1, N)" style="resizable=0;html=1;align=left;verticalAlign=bottom;shadow=0;sketch=0;fillStyle=solid;strokeColor=#330000;strokeWidth=1;fillColor=#FFFFFF;" parent="1" connectable="0" vertex="1">
          <mxGeometry x="-38" y="1602" as="geometry" />
        </mxCell>
        <mxCell id="UWVfNUczjuXZUvVL65qW-51" value="(1, N)" style="resizable=0;html=1;align=left;verticalAlign=bottom;shadow=0;sketch=0;fillStyle=solid;strokeColor=#330000;strokeWidth=1;fillColor=#FFFFFF;" parent="1" connectable="0" vertex="1">
          <mxGeometry x="-38" y="1776" as="geometry" />
        </mxCell>
        <mxCell id="UWVfNUczjuXZUvVL65qW-52" style="edgeStyle=none;rounded=0;orthogonalLoop=1;jettySize=auto;html=1;exitX=0.25;exitY=0;exitDx=0;exitDy=0;" parent="1" edge="1">
          <mxGeometry relative="1" as="geometry">
            <mxPoint x="-54" y="1174" as="targetPoint" />
            <mxPoint x="-49" y="1234" as="sourcePoint" />
          </mxGeometry>
        </mxCell>
        <mxCell id="UWVfNUczjuXZUvVL65qW-53" value="firstName" style="text;html=1;align=center;verticalAlign=middle;resizable=0;points=[];autosize=1;strokeColor=none;fillColor=none;" parent="1" vertex="1">
          <mxGeometry x="-114" y="1136" width="70" height="30" as="geometry" />
        </mxCell>
        <mxCell id="UWVfNUczjuXZUvVL65qW-54" value="" style="edgeStyle=none;rounded=0;orthogonalLoop=1;jettySize=auto;html=1;exitX=1;exitY=0;exitDx=0;exitDy=0;endArrow=none;" parent="1" target="UWVfNUczjuXZUvVL65qW-55" edge="1">
          <mxGeometry relative="1" as="geometry">
            <mxPoint x="53" y="1174" as="targetPoint" />
            <mxPoint x="48" y="1234" as="sourcePoint" />
          </mxGeometry>
        </mxCell>
        <mxCell id="UWVfNUczjuXZUvVL65qW-55" value="" style="ellipse;whiteSpace=wrap;html=1;fillColor=#FFFFFF;strokeColor=#330000;shadow=0;sketch=0;fillStyle=solid;strokeWidth=1;" parent="1" vertex="1">
          <mxGeometry x="43" y="1164" width="20" height="20" as="geometry" />
        </mxCell>
        <mxCell id="UWVfNUczjuXZUvVL65qW-56" value="" style="ellipse;whiteSpace=wrap;html=1;fillColor=#FFFFFF;strokeColor=#330000;shadow=0;sketch=0;fillStyle=solid;strokeWidth=1;" parent="1" vertex="1">
          <mxGeometry x="-64" y="1164" width="20" height="20" as="geometry" />
        </mxCell>
        <mxCell id="UWVfNUczjuXZUvVL65qW-57" value="genre" style="text;html=1;align=center;verticalAlign=middle;resizable=0;points=[];autosize=1;strokeColor=none;fillColor=none;" parent="1" vertex="1">
          <mxGeometry x="56" y="1136" width="50" height="30" as="geometry" />
        </mxCell>
        <mxCell id="UWVfNUczjuXZUvVL65qW-58" value="" style="edgeStyle=none;rounded=0;orthogonalLoop=1;jettySize=auto;html=1;exitX=0.75;exitY=0;exitDx=0;exitDy=0;endArrow=none;" parent="1" edge="1">
          <mxGeometry relative="1" as="geometry">
            <mxPoint x="1" y="1170" as="targetPoint" />
            <mxPoint x="-1" y="1234" as="sourcePoint" />
          </mxGeometry>
        </mxCell>
        <mxCell id="UWVfNUczjuXZUvVL65qW-59" value="" style="ellipse;whiteSpace=wrap;html=1;fillColor=#FFFFFF;strokeColor=#330000;shadow=0;sketch=0;fillStyle=solid;strokeWidth=1;" parent="1" vertex="1">
          <mxGeometry x="-9" y="1160" width="20" height="20" as="geometry" />
        </mxCell>
        <mxCell id="UWVfNUczjuXZUvVL65qW-60" value="lastName" style="text;html=1;align=center;verticalAlign=middle;resizable=0;points=[];autosize=1;strokeColor=none;fillColor=none;" parent="1" vertex="1">
          <mxGeometry x="-30" y="1132" width="70" height="30" as="geometry" />
        </mxCell>
        <mxCell id="UWVfNUczjuXZUvVL65qW-71" value="" style="endArrow=none;html=1;rounded=0;entryX=1;entryY=0.5;entryDx=0;entryDy=0;" parent="1" edge="1">
          <mxGeometry width="50" height="50" relative="1" as="geometry">
            <mxPoint x="-51" y="1246" as="sourcePoint" />
            <mxPoint x="-107" y="1219" as="targetPoint" />
          </mxGeometry>
        </mxCell>
        <mxCell id="UWVfNUczjuXZUvVL65qW-73" value="" style="endArrow=none;html=1;rounded=0;" parent="1" edge="1">
          <mxGeometry width="50" height="50" relative="1" as="geometry">
            <mxPoint x="-51" y="1274" as="sourcePoint" />
            <mxPoint x="-111" y="1299" as="targetPoint" />
          </mxGeometry>
        </mxCell>
        <mxCell id="UWVfNUczjuXZUvVL65qW-74" value="" style="ellipse;whiteSpace=wrap;html=1;fillColor=#FFFFFF;strokeColor=#330000;shadow=0;sketch=0;fillStyle=solid;strokeWidth=1;" parent="1" vertex="1">
          <mxGeometry x="-126" y="1290" width="20" height="20" as="geometry" />
        </mxCell>
        <mxCell id="UWVfNUczjuXZUvVL65qW-77" value="" style="endArrow=none;html=1;rounded=0;entryX=-0.014;entryY=-0.133;entryDx=0;entryDy=0;entryPerimeter=0;" parent="1" edge="1">
          <mxGeometry width="50" height="50" relative="1" as="geometry">
            <mxPoint x="106.98999999999978" y="1301" as="sourcePoint" />
            <mxPoint x="48.99999999999977" y="1273.9899999999998" as="targetPoint" />
          </mxGeometry>
        </mxCell>
        <mxCell id="UWVfNUczjuXZUvVL65qW-78" value="" style="ellipse;whiteSpace=wrap;html=1;fillColor=#FFFFFF;strokeColor=#330000;shadow=0;sketch=0;fillStyle=solid;strokeWidth=1;" parent="1" vertex="1">
          <mxGeometry x="101.25" y="1293" width="20" height="20" as="geometry" />
        </mxCell>
        <mxCell id="UWVfNUczjuXZUvVL65qW-80" value="" style="ellipse;whiteSpace=wrap;html=1;fillColor=#FFFFFF;strokeColor=#330000;shadow=0;sketch=0;fillStyle=solid;strokeWidth=1;" parent="1" vertex="1">
          <mxGeometry x="-127" y="1204" width="20" height="20" as="geometry" />
        </mxCell>
        <mxCell id="UWVfNUczjuXZUvVL65qW-81" value="dateOfBirth" style="text;html=1;align=center;verticalAlign=middle;resizable=0;points=[];autosize=1;strokeColor=none;fillColor=none;" parent="1" vertex="1">
          <mxGeometry x="-198" y="1185" width="80" height="30" as="geometry" />
        </mxCell>
        <mxCell id="UWVfNUczjuXZUvVL65qW-82" value="town" style="text;html=1;align=center;verticalAlign=middle;resizable=0;points=[];autosize=1;strokeColor=none;fillColor=none;" parent="1" vertex="1">
          <mxGeometry x="-154" y="1303" width="50" height="30" as="geometry" />
        </mxCell>
        <mxCell id="UWVfNUczjuXZUvVL65qW-83" value="country" style="text;html=1;align=center;verticalAlign=middle;resizable=0;points=[];autosize=1;strokeColor=none;fillColor=none;" parent="1" vertex="1">
          <mxGeometry x="52" y="1302" width="60" height="30" as="geometry" />
        </mxCell>
        <mxCell id="UWVfNUczjuXZUvVL65qW-86" value="" style="edgeStyle=none;rounded=0;orthogonalLoop=1;jettySize=auto;html=1;exitX=0.421;exitY=0.667;exitDx=0;exitDy=0;endArrow=none;exitPerimeter=0;" parent="1" edge="1">
          <mxGeometry relative="1" as="geometry">
            <mxPoint x="-241" y="1480" as="targetPoint" />
            <mxPoint x="-218.98000000000002" y="1544.02" as="sourcePoint" />
          </mxGeometry>
        </mxCell>
        <mxCell id="UWVfNUczjuXZUvVL65qW-87" value="" style="ellipse;whiteSpace=wrap;html=1;fillColor=#FFFFFF;strokeColor=#330000;shadow=0;sketch=0;fillStyle=solid;strokeWidth=1;flipH=1;" parent="1" vertex="1">
          <mxGeometry x="-250.5" y="1468" width="20" height="20" as="geometry" />
        </mxCell>
        <mxCell id="UWVfNUczjuXZUvVL65qW-88" value="minScore" style="text;html=1;align=center;verticalAlign=middle;resizable=0;points=[];autosize=1;strokeColor=none;fillColor=none;flipH=1;" parent="1" vertex="1">
          <mxGeometry x="-267" y="1442" width="70" height="30" as="geometry" />
        </mxCell>
        <mxCell id="aS-zO1egy4f74LGjRlCD-18" value="" style="edgeStyle=none;rounded=0;orthogonalLoop=1;jettySize=auto;html=1;exitX=0.421;exitY=0.667;exitDx=0;exitDy=0;endArrow=none;exitPerimeter=0;" parent="1" edge="1">
          <mxGeometry relative="1" as="geometry">
            <mxPoint x="-139.98000000000002" y="1481" as="targetPoint" />
            <mxPoint x="-162" y="1545.02" as="sourcePoint" />
          </mxGeometry>
        </mxCell>
        <mxCell id="aS-zO1egy4f74LGjRlCD-19" value="" style="ellipse;whiteSpace=wrap;html=1;fillColor=#FFFFFF;strokeColor=#330000;shadow=0;sketch=0;fillStyle=solid;strokeWidth=1;flipH=1;" parent="1" vertex="1">
          <mxGeometry x="-150.5" y="1468" width="20" height="20" as="geometry" />
        </mxCell>
        <mxCell id="aS-zO1egy4f74LGjRlCD-20" value="maxScore" style="text;html=1;align=center;verticalAlign=middle;resizable=0;points=[];autosize=1;strokeColor=none;fillColor=none;flipH=1;" parent="1" vertex="1">
          <mxGeometry x="-192" y="1442" width="80" height="30" as="geometry" />
        </mxCell>
        <mxCell id="aS-zO1egy4f74LGjRlCD-22" value="" style="html=1;shadow=0;dashed=0;align=center;verticalAlign=middle;shape=mxgraph.arrows2.arrow;dy=0.6;dx=40;direction=north;notch=0;fillStyle=solid;fillColor=#000000;" parent="1" vertex="1">
          <mxGeometry x="-396" y="1580" width="30" height="14.55" as="geometry" />
        </mxCell>
        <mxCell id="aS-zO1egy4f74LGjRlCD-23" value="" style="rounded=0;whiteSpace=wrap;html=1;" parent="1" vertex="1">
          <mxGeometry x="-386" y="1594.55" width="10" height="30" as="geometry" />
        </mxCell>
        <mxCell id="aS-zO1egy4f74LGjRlCD-26" value="" style="rounded=0;whiteSpace=wrap;html=1;" parent="1" vertex="1">
          <mxGeometry x="-386" y="1594.55" width="10" height="30" as="geometry" />
        </mxCell>
        <mxCell id="aS-zO1egy4f74LGjRlCD-27" value="" style="endArrow=none;html=1;rounded=0;" parent="1" edge="1">
          <mxGeometry width="50" height="50" relative="1" as="geometry">
            <mxPoint x="-444" y="1625" as="sourcePoint" />
            <mxPoint x="-318" y="1625" as="targetPoint" />
          </mxGeometry>
        </mxCell>
        <mxCell id="aS-zO1egy4f74LGjRlCD-28" value="" style="endArrow=none;html=1;rounded=0;" parent="1" edge="1">
          <mxGeometry width="50" height="50" relative="1" as="geometry">
            <mxPoint x="-318.2" y="1660" as="sourcePoint" />
            <mxPoint x="-318.2" y="1625.55" as="targetPoint" />
          </mxGeometry>
        </mxCell>
        <mxCell id="aS-zO1egy4f74LGjRlCD-29" value="QUIZ" style="whiteSpace=wrap;html=1;align=center;fillStyle=auto;fillColor=#ffffff;" parent="1" vertex="1">
          <mxGeometry x="-495" y="1660" width="100" height="40" as="geometry" />
        </mxCell>
        <mxCell id="aS-zO1egy4f74LGjRlCD-30" value="PROJECT" style="whiteSpace=wrap;html=1;align=center;fillStyle=auto;fillColor=#ffffff;" parent="1" vertex="1">
          <mxGeometry x="-368" y="1660" width="100" height="40" as="geometry" />
        </mxCell>
        <mxCell id="aS-zO1egy4f74LGjRlCD-31" value="" style="endArrow=none;html=1;rounded=0;" parent="1" edge="1">
          <mxGeometry width="50" height="50" relative="1" as="geometry">
            <mxPoint x="-444" y="1660" as="sourcePoint" />
            <mxPoint x="-444" y="1625" as="targetPoint" />
          </mxGeometry>
        </mxCell>
        <mxCell id="aS-zO1egy4f74LGjRlCD-34" value="" style="edgeStyle=none;rounded=0;orthogonalLoop=1;jettySize=auto;html=1;exitX=0.75;exitY=0;exitDx=0;exitDy=0;endArrow=none;" parent="1" target="aS-zO1egy4f74LGjRlCD-35" edge="1">
          <mxGeometry relative="1" as="geometry">
            <mxPoint x="436" y="1482.94572445643" as="targetPoint" />
            <mxPoint x="435" y="1546.94572445643" as="sourcePoint" />
          </mxGeometry>
        </mxCell>
        <mxCell id="aS-zO1egy4f74LGjRlCD-35" value="" style="ellipse;whiteSpace=wrap;html=1;fillColor=#FFFFFF;strokeColor=#330000;shadow=0;sketch=0;fillStyle=solid;strokeWidth=1;flipV=1;" parent="1" vertex="1">
          <mxGeometry x="493.5" y="1520" width="20" height="20" as="geometry" />
        </mxCell>
        <mxCell id="aS-zO1egy4f74LGjRlCD-36" value="learning_goals" style="text;html=1;align=center;verticalAlign=middle;resizable=0;points=[];autosize=1;strokeColor=none;fillColor=none;" parent="1" vertex="1">
          <mxGeometry x="489" y="1496" width="100" height="30" as="geometry" />
        </mxCell>
        <mxCell id="aS-zO1egy4f74LGjRlCD-40" value="" style="ellipse;whiteSpace=wrap;html=1;fillColor=#FFFFFF;strokeColor=#330000;shadow=0;sketch=0;fillStyle=solid;strokeWidth=1;" parent="1" vertex="1">
          <mxGeometry x="486" y="1748" width="20" height="20" as="geometry" />
        </mxCell>
        <mxCell id="aS-zO1egy4f74LGjRlCD-41" value="accessDate" style="text;html=1;align=center;verticalAlign=middle;resizable=0;points=[];autosize=1;strokeColor=none;fillColor=none;" parent="1" vertex="1">
          <mxGeometry x="86" y="1644" width="90" height="30" as="geometry" />
        </mxCell>
        <mxCell id="aS-zO1egy4f74LGjRlCD-52" value="accessStart" style="text;html=1;align=center;verticalAlign=middle;resizable=0;points=[];autosize=1;strokeColor=none;fillColor=none;" parent="1" vertex="1">
          <mxGeometry x="163" y="1660" width="90" height="30" as="geometry" />
        </mxCell>
        <mxCell id="aS-zO1egy4f74LGjRlCD-58" value="" style="endArrow=none;html=1;rounded=0;" parent="1" source="aS-zO1egy4f74LGjRlCD-61" edge="1">
          <mxGeometry width="50" height="50" relative="1" as="geometry">
            <mxPoint x="48.00000000000091" y="1800" as="sourcePoint" />
            <mxPoint x="121.00000000000091" y="1800" as="targetPoint" />
          </mxGeometry>
        </mxCell>
        <mxCell id="aS-zO1egy4f74LGjRlCD-59" value="instructorID" style="text;html=1;align=center;verticalAlign=middle;resizable=0;points=[];autosize=1;strokeColor=none;fillColor=none;" parent="1" vertex="1">
          <mxGeometry x="113" y="1803" width="80" height="30" as="geometry" />
        </mxCell>
        <mxCell id="aS-zO1egy4f74LGjRlCD-60" value="" style="endArrow=none;html=1;rounded=0;" parent="1" target="aS-zO1egy4f74LGjRlCD-61" edge="1">
          <mxGeometry width="50" height="50" relative="1" as="geometry">
            <mxPoint x="48.00000000000091" y="1800" as="sourcePoint" />
            <mxPoint x="121.00000000000091" y="1800" as="targetPoint" />
          </mxGeometry>
        </mxCell>
        <mxCell id="aS-zO1egy4f74LGjRlCD-61" value="" style="ellipse;whiteSpace=wrap;html=1;aspect=fixed;shadow=0;sketch=0;fillStyle=solid;strokeColor=#330000;strokeWidth=1;fillColor=#000000;" parent="1" vertex="1">
          <mxGeometry x="109" y="1789" width="20" height="20" as="geometry" />
        </mxCell>
        <mxCell id="aS-zO1egy4f74LGjRlCD-62" value="" style="edgeStyle=none;rounded=0;orthogonalLoop=1;jettySize=auto;html=1;exitX=0.5;exitY=1;exitDx=0;exitDy=0;endArrow=none;" parent="1" source="wVbVgi7mBvC_HDMRMZZE-382" edge="1">
          <mxGeometry relative="1" as="geometry">
            <mxPoint x="190" y="1650" as="targetPoint" />
            <mxPoint x="196" y="1587" as="sourcePoint" />
          </mxGeometry>
        </mxCell>
        <mxCell id="aS-zO1egy4f74LGjRlCD-63" value="" style="ellipse;whiteSpace=wrap;html=1;fillColor=#FFFFFF;strokeColor=#330000;shadow=0;sketch=0;fillStyle=solid;strokeWidth=1;" parent="1" vertex="1">
          <mxGeometry x="179" y="1643" width="20" height="20" as="geometry" />
        </mxCell>
        <mxCell id="aS-zO1egy4f74LGjRlCD-64" value="" style="edgeStyle=none;rounded=0;orthogonalLoop=1;jettySize=auto;html=1;endArrow=none;entryX=0;entryY=0;entryDx=0;entryDy=0;" parent="1" edge="1">
          <mxGeometry relative="1" as="geometry">
            <mxPoint x="144.9289321882493" y="1632.9289321882493" as="targetPoint" />
            <mxPoint x="159" y="1574" as="sourcePoint" />
          </mxGeometry>
        </mxCell>
        <mxCell id="aS-zO1egy4f74LGjRlCD-66" value="accessEnd" style="text;html=1;align=center;verticalAlign=middle;resizable=0;points=[];autosize=1;strokeColor=none;fillColor=none;" parent="1" vertex="1">
          <mxGeometry x="239.5" y="1639" width="80" height="30" as="geometry" />
        </mxCell>
        <mxCell id="aS-zO1egy4f74LGjRlCD-67" value="" style="endArrow=none;html=1;rounded=0;" parent="1" edge="1">
          <mxGeometry relative="1" as="geometry">
            <mxPoint x="-191" y="1531" as="sourcePoint" />
            <mxPoint x="-51" y="1252" as="targetPoint" />
            <Array as="points">
              <mxPoint x="-191" y="1251" />
            </Array>
          </mxGeometry>
        </mxCell>
        <mxCell id="aS-zO1egy4f74LGjRlCD-69" value="" style="endArrow=none;html=1;rounded=0;" parent="1" edge="1">
          <mxGeometry relative="1" as="geometry">
            <mxPoint x="190" y="1531" as="sourcePoint" />
            <mxPoint x="49" y="1252" as="targetPoint" />
            <Array as="points">
              <mxPoint x="190" y="1251" />
            </Array>
          </mxGeometry>
        </mxCell>
        <mxCell id="aS-zO1egy4f74LGjRlCD-71" value="ENROLLMENT" style="shape=rhombus;perimeter=rhombusPerimeter;whiteSpace=wrap;html=1;align=center;shadow=0;sketch=0;fillStyle=solid;strokeColor=#330000;strokeWidth=1;fillColor=#FFFFFF;" parent="1" vertex="1">
          <mxGeometry x="-57.5" y="1340" width="120" height="60" as="geometry" />
        </mxCell>
        <mxCell id="aS-zO1egy4f74LGjRlCD-72" value="" style="endArrow=none;html=1;rounded=0;" parent="1" edge="1">
          <mxGeometry relative="1" as="geometry">
            <mxPoint x="2.5" y="1400" as="sourcePoint" />
            <mxPoint x="2.5" y="1540" as="targetPoint" />
          </mxGeometry>
        </mxCell>
        <mxCell id="aS-zO1egy4f74LGjRlCD-75" value="(0, N)" style="resizable=0;html=1;align=left;verticalAlign=bottom;shadow=0;sketch=0;fillStyle=solid;strokeColor=#330000;strokeWidth=1;fillColor=#FFFFFF;" parent="1" connectable="0" vertex="1">
          <mxGeometry x="5.660000000000082" y="1539" as="geometry" />
        </mxCell>
        <mxCell id="aS-zO1egy4f74LGjRlCD-76" value="(1, N)" style="resizable=0;html=1;align=left;verticalAlign=bottom;shadow=0;sketch=0;fillStyle=solid;strokeColor=#330000;strokeWidth=1;fillColor=#FFFFFF;" parent="1" connectable="0" vertex="1">
          <mxGeometry x="149.75" y="1270" as="geometry" />
        </mxCell>
        <mxCell id="5ZSzfDrvXd6z9-84WiZO-5" value="" style="curved=1;endArrow=classic;html=1;rounded=0;entryX=0.574;entryY=0.321;entryDx=0;entryDy=0;entryPerimeter=0;" edge="1" parent="1">
          <mxGeometry width="50" height="50" relative="1" as="geometry">
            <mxPoint x="264" y="1585" as="sourcePoint" />
            <mxPoint x="392" y="1520" as="targetPoint" />
            <Array as="points">
              <mxPoint x="263.75" y="1585.55" />
              <mxPoint x="242" y="1546.55" />
            </Array>
          </mxGeometry>
        </mxCell>
        <mxCell id="5ZSzfDrvXd6z9-84WiZO-6" value="" style="ellipse;whiteSpace=wrap;html=1;fillColor=#000000;strokeColor=#330000;shadow=0;sketch=0;fillStyle=solid;strokeWidth=1;" vertex="1" parent="1">
          <mxGeometry x="377.25" y="1510" width="20" height="20" as="geometry" />
        </mxCell>
        <mxCell id="5ZSzfDrvXd6z9-84WiZO-8" value="" style="shape=waypoint;fillStyle=solid;size=6;pointerEvents=1;points=[];resizable=0;rotatable=0;perimeter=centerPerimeter;snapToPoint=1;strokeWidth=3;fillColor=none;strokeColor=default;perimeterSpacing=0;shadow=0;sketch=0;flipV=0;flipH=0;" vertex="1" parent="1">
          <mxGeometry x="355" y="1516" width="20" height="20" as="geometry" />
        </mxCell>
        <mxCell id="5ZSzfDrvXd6z9-84WiZO-9" value="" style="shape=waypoint;fillStyle=solid;size=6;pointerEvents=1;points=[];resizable=0;rotatable=0;perimeter=centerPerimeter;snapToPoint=1;strokeWidth=3;fillColor=none;strokeColor=default;perimeterSpacing=0;shadow=0;sketch=0;flipV=0;flipH=0;" vertex="1" parent="1">
          <mxGeometry x="259" y="1550" width="20" height="20" as="geometry" />
        </mxCell>
        <mxCell id="5ZSzfDrvXd6z9-84WiZO-10" value="(1, 1)" style="resizable=0;html=1;align=left;verticalAlign=bottom;shadow=0;sketch=0;fillStyle=solid;strokeColor=#330000;strokeWidth=1;fillColor=#FFFFFF;" connectable="0" vertex="1" parent="1">
          <mxGeometry x="-184.25" y="1270" as="geometry" />
        </mxCell>
        <mxCell id="5ZSzfDrvXd6z9-84WiZO-11" value="" style="edgeStyle=none;rounded=0;orthogonalLoop=1;jettySize=auto;html=1;exitX=0.75;exitY=0;exitDx=0;exitDy=0;endArrow=none;" edge="1" parent="1">
          <mxGeometry relative="1" as="geometry">
            <mxPoint x="-233" y="1632" as="targetPoint" />
            <mxPoint x="-219" y="1576" as="sourcePoint" />
          </mxGeometry>
        </mxCell>
        <mxCell id="5ZSzfDrvXd6z9-84WiZO-12" value="" style="ellipse;whiteSpace=wrap;html=1;fillColor=#FFFFFF;strokeColor=#330000;shadow=0;sketch=0;fillStyle=solid;strokeWidth=1;" vertex="1" parent="1">
          <mxGeometry x="-247" y="1631" width="20" height="20" as="geometry" />
        </mxCell>
        <mxCell id="5ZSzfDrvXd6z9-84WiZO-13" value="completed" style="text;html=1;align=center;verticalAlign=middle;resizable=0;points=[];autosize=1;strokeColor=none;fillColor=none;" vertex="1" parent="1">
          <mxGeometry x="-311" y="1608" width="80" height="30" as="geometry" />
        </mxCell>
        <mxCell id="5ZSzfDrvXd6z9-84WiZO-15" value="" style="curved=1;endArrow=classic;html=1;rounded=0;entryX=0.574;entryY=0.321;entryDx=0;entryDy=0;entryPerimeter=0;" edge="1" parent="1">
          <mxGeometry width="50" height="50" relative="1" as="geometry">
            <mxPoint x="432" y="1750" as="sourcePoint" />
            <mxPoint x="304" y="1815" as="targetPoint" />
            <Array as="points">
              <mxPoint x="282" y="1776.55" />
              <mxPoint x="303.75" y="1815.55" />
            </Array>
          </mxGeometry>
        </mxCell>
        <mxCell id="5ZSzfDrvXd6z9-84WiZO-16" value="" style="ellipse;whiteSpace=wrap;html=1;fillColor=#000000;strokeColor=#330000;shadow=0;sketch=0;fillStyle=solid;strokeWidth=1;" vertex="1" parent="1">
          <mxGeometry x="291" y="1804" width="20" height="20" as="geometry" />
        </mxCell>
        <mxCell id="5ZSzfDrvXd6z9-84WiZO-17" value="" style="shape=waypoint;fillStyle=solid;size=6;pointerEvents=1;points=[];resizable=0;rotatable=0;perimeter=centerPerimeter;snapToPoint=1;strokeWidth=3;fillColor=none;strokeColor=default;perimeterSpacing=0;shadow=0;sketch=0;flipV=0;flipH=0;" vertex="1" parent="1">
          <mxGeometry x="319" y="1766" width="20" height="20" as="geometry" />
        </mxCell>
        <mxCell id="5ZSzfDrvXd6z9-84WiZO-18" value="" style="shape=waypoint;fillStyle=solid;size=6;pointerEvents=1;points=[];resizable=0;rotatable=0;perimeter=centerPerimeter;snapToPoint=1;strokeWidth=3;fillColor=none;strokeColor=default;perimeterSpacing=0;shadow=0;sketch=0;flipV=0;flipH=0;" vertex="1" parent="1">
          <mxGeometry x="376" y="1749" width="20" height="20" as="geometry" />
        </mxCell>
        <mxCell id="5ZSzfDrvXd6z9-84WiZO-24" value="" style="edgeStyle=none;rounded=0;orthogonalLoop=1;jettySize=auto;html=1;endArrow=none;" edge="1" parent="1">
          <mxGeometry relative="1" as="geometry">
            <mxPoint x="-191" y="1654" as="targetPoint" />
            <mxPoint x="-191" y="1590" as="sourcePoint" />
          </mxGeometry>
        </mxCell>
        <mxCell id="UWVfNUczjuXZUvVL65qW-5" value="" style="ellipse;whiteSpace=wrap;html=1;fillColor=#FFFFFF;strokeColor=#330000;shadow=0;sketch=0;fillStyle=solid;strokeWidth=1;" parent="1" vertex="1">
          <mxGeometry x="-201" y="1649" width="20" height="20" as="geometry" />
        </mxCell>
        <mxCell id="5ZSzfDrvXd6z9-84WiZO-37" value="" style="curved=1;endArrow=classic;html=1;rounded=0;startSize=6;" edge="1" parent="1">
          <mxGeometry width="50" height="50" relative="1" as="geometry">
            <mxPoint x="-412" y="1507" as="sourcePoint" />
            <mxPoint x="-275" y="1586" as="targetPoint" />
            <Array as="points">
              <mxPoint x="-424" y="1506" />
              <mxPoint x="-335" y="1515" />
              <mxPoint x="-292" y="1537" />
            </Array>
          </mxGeometry>
        </mxCell>
        <mxCell id="5ZSzfDrvXd6z9-84WiZO-38" value="" style="ellipse;whiteSpace=wrap;html=1;fillColor=#000000;strokeColor=#330000;shadow=0;sketch=0;fillStyle=solid;strokeWidth=1;" vertex="1" parent="1">
          <mxGeometry x="-288" y="1573" width="20" height="20" as="geometry" />
        </mxCell>
        <mxCell id="5ZSzfDrvXd6z9-84WiZO-39" value="" style="shape=waypoint;fillStyle=solid;size=6;pointerEvents=1;points=[];resizable=0;rotatable=0;perimeter=centerPerimeter;snapToPoint=1;strokeWidth=3;fillColor=none;strokeColor=default;perimeterSpacing=0;shadow=0;sketch=0;flipV=0;flipH=0;" vertex="1" parent="1">
          <mxGeometry x="-295" y="1550" width="20" height="20" as="geometry" />
        </mxCell>
        <mxCell id="5ZSzfDrvXd6z9-84WiZO-40" value="" style="shape=waypoint;fillStyle=solid;size=6;pointerEvents=1;points=[];resizable=0;rotatable=0;perimeter=centerPerimeter;snapToPoint=1;strokeWidth=3;fillColor=none;strokeColor=default;perimeterSpacing=0;shadow=0;sketch=0;flipV=0;flipH=0;" vertex="1" parent="1">
          <mxGeometry x="-393" y="1501" width="20" height="20" as="geometry" />
        </mxCell>
        <mxCell id="5ZSzfDrvXd6z9-84WiZO-41" value="" style="edgeStyle=none;rounded=0;orthogonalLoop=1;jettySize=auto;html=1;endArrow=none;" edge="1" parent="1">
          <mxGeometry relative="1" as="geometry">
            <mxPoint x="239" y="1637" as="targetPoint" />
            <mxPoint x="222.92893218813424" y="1574" as="sourcePoint" />
          </mxGeometry>
        </mxCell>
        <mxCell id="aS-zO1egy4f74LGjRlCD-49" value="" style="ellipse;whiteSpace=wrap;html=1;fillColor=#FFFFFF;strokeColor=#330000;shadow=0;sketch=0;fillStyle=solid;strokeWidth=1;" parent="1" vertex="1">
          <mxGeometry x="230" y="1629" width="20" height="20" as="geometry" />
        </mxCell>
        <mxCell id="5ZSzfDrvXd6z9-84WiZO-42" value="" style="ellipse;whiteSpace=wrap;html=1;fillColor=#FFFFFF;strokeColor=#330000;shadow=0;sketch=0;fillStyle=solid;strokeWidth=1;" vertex="1" parent="1">
          <mxGeometry x="133" y="1630" width="20" height="20" as="geometry" />
        </mxCell>
        <mxCell id="5ZSzfDrvXd6z9-84WiZO-43" value="" style="endArrow=none;html=1;rounded=0;" edge="1" parent="1">
          <mxGeometry width="50" height="50" relative="1" as="geometry">
            <mxPoint x="499" y="1680" as="sourcePoint" />
            <mxPoint x="445" y="1693" as="targetPoint" />
          </mxGeometry>
        </mxCell>
        <mxCell id="5ZSzfDrvXd6z9-84WiZO-44" value="nr_of_accesses" style="text;html=1;align=center;verticalAlign=middle;resizable=0;points=[];autosize=1;strokeColor=none;fillColor=none;" vertex="1" parent="1">
          <mxGeometry x="489.5" y="1649" width="110" height="30" as="geometry" />
        </mxCell>
        <mxCell id="5ZSzfDrvXd6z9-84WiZO-45" value="" style="ellipse;whiteSpace=wrap;html=1;fillColor=#FFFFFF;strokeColor=#330000;shadow=0;sketch=0;fillStyle=solid;strokeWidth=1;" vertex="1" parent="1">
          <mxGeometry x="489" y="1670" width="20" height="20" as="geometry" />
        </mxCell>
        <mxCell id="5ZSzfDrvXd6z9-84WiZO-49" value="" style="endArrow=none;html=1;rounded=0;" edge="1" parent="1">
          <mxGeometry width="50" height="50" relative="1" as="geometry">
            <mxPoint x="259" y="1500" as="sourcePoint" />
            <mxPoint x="215" y="1543" as="targetPoint" />
          </mxGeometry>
        </mxCell>
        <mxCell id="5ZSzfDrvXd6z9-84WiZO-50" value="nr_of_accesses" style="text;html=1;align=center;verticalAlign=middle;resizable=0;points=[];autosize=1;strokeColor=none;fillColor=none;" vertex="1" parent="1">
          <mxGeometry x="217" y="1462" width="110" height="30" as="geometry" />
        </mxCell>
        <mxCell id="5ZSzfDrvXd6z9-84WiZO-54" value="" style="ellipse;whiteSpace=wrap;html=1;fillColor=#FFFFFF;strokeColor=#330000;shadow=0;sketch=0;fillStyle=solid;strokeWidth=1;" vertex="1" parent="1">
          <mxGeometry x="248" y="1488" width="20" height="20" as="geometry" />
        </mxCell>
        <mxCell id="5ZSzfDrvXd6z9-84WiZO-60" value="" style="endArrow=none;html=1;rounded=0;" edge="1" parent="1">
          <mxGeometry width="50" height="50" relative="1" as="geometry">
            <mxPoint x="-58" y="1370" as="sourcePoint" />
            <mxPoint x="-131" y="1370" as="targetPoint" />
          </mxGeometry>
        </mxCell>
        <mxCell id="5ZSzfDrvXd6z9-84WiZO-61" value="" style="ellipse;whiteSpace=wrap;html=1;fillColor=#FFFFFF;strokeColor=#330000;shadow=0;sketch=0;fillStyle=solid;strokeWidth=1;" vertex="1" parent="1">
          <mxGeometry x="-141" y="1360" width="20" height="20" as="geometry" />
        </mxCell>
        <mxCell id="5ZSzfDrvXd6z9-84WiZO-62" value="enrollDate" style="text;html=1;align=center;verticalAlign=middle;resizable=0;points=[];autosize=1;strokeColor=none;fillColor=none;" vertex="1" parent="1">
          <mxGeometry x="-188" y="1375" width="80" height="30" as="geometry" />
        </mxCell>
        <mxCell id="5ZSzfDrvXd6z9-84WiZO-63" value="FINAL ASSESSMENT" style="whiteSpace=wrap;html=1;align=center;shadow=0;sketch=0;fillStyle=solid;strokeColor=#330000;strokeWidth=1;fillColor=#FFFFFF;" vertex="1" parent="1">
          <mxGeometry x="-432.5" y="2530" width="100" height="40" as="geometry" />
        </mxCell>
        <mxCell id="5ZSzfDrvXd6z9-84WiZO-64" value="STUDENT" style="whiteSpace=wrap;html=1;align=center;shadow=0;sketch=0;fillStyle=solid;strokeColor=#330000;strokeWidth=1;fillColor=#FFFFFF;" vertex="1" parent="1">
          <mxGeometry x="-51" y="2224" width="100" height="40" as="geometry" />
        </mxCell>
        <mxCell id="5ZSzfDrvXd6z9-84WiZO-65" value="GRADING" style="shape=rhombus;perimeter=rhombusPerimeter;whiteSpace=wrap;html=1;align=center;shadow=0;sketch=0;fillStyle=solid;strokeColor=#330000;strokeWidth=1;fillColor=#FFFFFF;" vertex="1" parent="1">
          <mxGeometry x="-251.5" y="2520" width="120" height="60" as="geometry" />
        </mxCell>
        <mxCell id="5ZSzfDrvXd6z9-84WiZO-66" value="" style="endArrow=none;html=1;rounded=0;sourcePerimeterSpacing=0;" edge="1" parent="1">
          <mxGeometry relative="1" as="geometry">
            <mxPoint x="-251" y="2550" as="sourcePoint" />
            <mxPoint x="-332" y="2550" as="targetPoint" />
          </mxGeometry>
        </mxCell>
        <mxCell id="5ZSzfDrvXd6z9-84WiZO-67" value="(1, 1)" style="resizable=0;html=1;align=left;verticalAlign=bottom;shadow=0;sketch=0;fillStyle=solid;strokeColor=#330000;strokeWidth=1;fillColor=#FFFFFF;" connectable="0" vertex="1" parent="5ZSzfDrvXd6z9-84WiZO-66">
          <mxGeometry x="-1" relative="1" as="geometry">
            <mxPoint x="-80" y="-1" as="offset" />
          </mxGeometry>
        </mxCell>
        <mxCell id="5ZSzfDrvXd6z9-84WiZO-68" value="COURSE" style="whiteSpace=wrap;html=1;align=center;shadow=0;sketch=0;fillStyle=solid;strokeColor=#330000;strokeWidth=1;fillColor=#FFFFFF;" vertex="1" parent="1">
          <mxGeometry x="-47" y="2530" width="100" height="40" as="geometry" />
        </mxCell>
        <mxCell id="5ZSzfDrvXd6z9-84WiZO-69" value="" style="endArrow=none;html=1;rounded=0;" edge="1" parent="1">
          <mxGeometry relative="1" as="geometry">
            <mxPoint x="-132.5" y="2550" as="sourcePoint" />
            <mxPoint x="-47" y="2550" as="targetPoint" />
          </mxGeometry>
        </mxCell>
        <mxCell id="5ZSzfDrvXd6z9-84WiZO-70" value="(1, 1)" style="resizable=0;html=1;align=left;verticalAlign=bottom;shadow=0;sketch=0;fillStyle=solid;strokeColor=#330000;strokeWidth=1;fillColor=#FFFFFF;" connectable="0" vertex="1" parent="5ZSzfDrvXd6z9-84WiZO-69">
          <mxGeometry x="-1" relative="1" as="geometry">
            <mxPoint x="48" as="offset" />
          </mxGeometry>
        </mxCell>
        <mxCell id="5ZSzfDrvXd6z9-84WiZO-71" value="" style="endArrow=none;html=1;rounded=0;" edge="1" parent="1">
          <mxGeometry width="50" height="50" relative="1" as="geometry">
            <mxPoint x="-31" y="2470" as="sourcePoint" />
            <mxPoint x="-22.500000000000455" y="2530" as="targetPoint" />
          </mxGeometry>
        </mxCell>
        <mxCell id="5ZSzfDrvXd6z9-84WiZO-72" value="" style="ellipse;whiteSpace=wrap;html=1;aspect=fixed;shadow=0;sketch=0;fillStyle=solid;strokeColor=#330000;strokeWidth=1;fillColor=#FFFFFF;flipV=0;flipH=1;perimeterSpacing=0;" vertex="1" parent="1">
          <mxGeometry x="-42.5" y="2455" width="20" height="20" as="geometry" />
        </mxCell>
        <mxCell id="5ZSzfDrvXd6z9-84WiZO-73" value="UNIT" style="whiteSpace=wrap;html=1;align=center;shadow=0;sketch=0;fillStyle=solid;strokeColor=#330000;strokeWidth=1;fillColor=#FFFFFF;" vertex="1" parent="1">
          <mxGeometry x="335.25" y="2530" width="100" height="40" as="geometry" />
        </mxCell>
        <mxCell id="5ZSzfDrvXd6z9-84WiZO-74" value="LEARNING" style="shape=rhombus;perimeter=rhombusPerimeter;whiteSpace=wrap;html=1;align=center;shadow=0;sketch=0;fillStyle=solid;strokeColor=#330000;strokeWidth=1;fillColor=#FFFFFF;" vertex="1" parent="1">
          <mxGeometry x="130.25" y="2520" width="120" height="60" as="geometry" />
        </mxCell>
        <mxCell id="5ZSzfDrvXd6z9-84WiZO-75" value="" style="endArrow=none;html=1;rounded=0;" edge="1" parent="1">
          <mxGeometry relative="1" as="geometry">
            <mxPoint x="52.75" y="2550" as="sourcePoint" />
            <mxPoint x="132.75" y="2550" as="targetPoint" />
          </mxGeometry>
        </mxCell>
        <mxCell id="5ZSzfDrvXd6z9-84WiZO-76" value="(1, N)" style="resizable=0;html=1;align=left;verticalAlign=bottom;shadow=0;sketch=0;fillStyle=solid;strokeColor=#330000;strokeWidth=1;fillColor=#FFFFFF;" connectable="0" vertex="1" parent="5ZSzfDrvXd6z9-84WiZO-75">
          <mxGeometry x="-1" relative="1" as="geometry">
            <mxPoint x="5" as="offset" />
          </mxGeometry>
        </mxCell>
        <mxCell id="5ZSzfDrvXd6z9-84WiZO-77" value="" style="endArrow=none;html=1;rounded=0;" edge="1" parent="1">
          <mxGeometry relative="1" as="geometry">
            <mxPoint x="249.75" y="2550" as="sourcePoint" />
            <mxPoint x="335.25" y="2550" as="targetPoint" />
          </mxGeometry>
        </mxCell>
        <mxCell id="5ZSzfDrvXd6z9-84WiZO-78" value="(1, 1)" style="resizable=0;html=1;align=left;verticalAlign=bottom;shadow=0;sketch=0;fillStyle=solid;strokeColor=#330000;strokeWidth=1;fillColor=#FFFFFF;" connectable="0" vertex="1" parent="5ZSzfDrvXd6z9-84WiZO-77">
          <mxGeometry x="-1" relative="1" as="geometry">
            <mxPoint x="47" as="offset" />
          </mxGeometry>
        </mxCell>
        <mxCell id="5ZSzfDrvXd6z9-84WiZO-79" style="edgeStyle=none;rounded=0;orthogonalLoop=1;jettySize=auto;html=1;exitX=0.75;exitY=0;exitDx=0;exitDy=0;startArrow=none;" edge="1" parent="1" source="5ZSzfDrvXd6z9-84WiZO-83">
          <mxGeometry relative="1" as="geometry">
            <mxPoint x="420.25" y="2470" as="targetPoint" />
          </mxGeometry>
        </mxCell>
        <mxCell id="5ZSzfDrvXd6z9-84WiZO-80" style="edgeStyle=none;rounded=0;orthogonalLoop=1;jettySize=auto;html=1;exitX=0.25;exitY=0;exitDx=0;exitDy=0;" edge="1" parent="1">
          <mxGeometry relative="1" as="geometry">
            <mxPoint x="360.25" y="2470" as="targetPoint" />
            <mxPoint x="365.25" y="2530" as="sourcePoint" />
          </mxGeometry>
        </mxCell>
        <mxCell id="5ZSzfDrvXd6z9-84WiZO-81" value="number" style="text;html=1;align=center;verticalAlign=middle;resizable=0;points=[];autosize=1;strokeColor=none;fillColor=none;" vertex="1" parent="1">
          <mxGeometry x="323" y="2436" width="60" height="30" as="geometry" />
        </mxCell>
        <mxCell id="5ZSzfDrvXd6z9-84WiZO-82" value="" style="edgeStyle=none;rounded=0;orthogonalLoop=1;jettySize=auto;html=1;exitX=0.75;exitY=0;exitDx=0;exitDy=0;endArrow=none;" edge="1" parent="1" target="5ZSzfDrvXd6z9-84WiZO-83">
          <mxGeometry relative="1" as="geometry">
            <mxPoint x="420.25" y="2470" as="targetPoint" />
            <mxPoint x="415.25" y="2530" as="sourcePoint" />
          </mxGeometry>
        </mxCell>
        <mxCell id="5ZSzfDrvXd6z9-84WiZO-83" value="" style="ellipse;whiteSpace=wrap;html=1;fillColor=#FFFFFF;strokeColor=#330000;shadow=0;sketch=0;fillStyle=solid;strokeWidth=1;" vertex="1" parent="1">
          <mxGeometry x="410.25" y="2460" width="20" height="20" as="geometry" />
        </mxCell>
        <mxCell id="5ZSzfDrvXd6z9-84WiZO-84" value="" style="ellipse;whiteSpace=wrap;html=1;fillColor=#FFFFFF;strokeColor=#330000;shadow=0;sketch=0;fillStyle=solid;strokeWidth=1;" vertex="1" parent="1">
          <mxGeometry x="350.25" y="2460" width="20" height="20" as="geometry" />
        </mxCell>
        <mxCell id="5ZSzfDrvXd6z9-84WiZO-85" value="name" style="text;html=1;align=center;verticalAlign=middle;resizable=0;points=[];autosize=1;strokeColor=none;fillColor=none;" vertex="1" parent="1">
          <mxGeometry x="433.25" y="2438" width="50" height="30" as="geometry" />
        </mxCell>
        <mxCell id="5ZSzfDrvXd6z9-84WiZO-86" value="" style="endArrow=none;html=1;rounded=0;" edge="1" parent="1">
          <mxGeometry relative="1" as="geometry">
            <mxPoint x="2.660000000000025" y="2264" as="sourcePoint" />
            <mxPoint x="2.660000000000025" y="2340" as="targetPoint" />
          </mxGeometry>
        </mxCell>
        <mxCell id="5ZSzfDrvXd6z9-84WiZO-87" value="(0, N)" style="resizable=0;html=1;align=left;verticalAlign=bottom;shadow=0;sketch=0;fillStyle=solid;strokeColor=#330000;strokeWidth=1;fillColor=#FFFFFF;" connectable="0" vertex="1" parent="5ZSzfDrvXd6z9-84WiZO-86">
          <mxGeometry x="-1" relative="1" as="geometry">
            <mxPoint x="1" y="19" as="offset" />
          </mxGeometry>
        </mxCell>
        <mxCell id="5ZSzfDrvXd6z9-84WiZO-88" value="" style="endArrow=none;html=1;rounded=0;entryX=-0.014;entryY=-0.133;entryDx=0;entryDy=0;entryPerimeter=0;exitX=1;exitY=0.25;exitDx=0;exitDy=0;" edge="1" parent="1" source="5ZSzfDrvXd6z9-84WiZO-64">
          <mxGeometry width="50" height="50" relative="1" as="geometry">
            <mxPoint x="49" y="2245" as="sourcePoint" />
            <mxPoint x="106.99000000000001" y="2217.99" as="targetPoint" />
          </mxGeometry>
        </mxCell>
        <mxCell id="5ZSzfDrvXd6z9-84WiZO-89" value="" style="ellipse;whiteSpace=wrap;html=1;aspect=fixed;shadow=0;sketch=0;fillStyle=solid;strokeColor=#330000;strokeWidth=1;fillColor=#000000;flipV=1;" vertex="1" parent="1">
          <mxGeometry x="104" y="2206" width="20" height="20" as="geometry" />
        </mxCell>
        <mxCell id="5ZSzfDrvXd6z9-84WiZO-90" value="studentID" style="text;html=1;align=center;verticalAlign=middle;resizable=0;points=[];autosize=1;strokeColor=none;fillColor=none;flipV=1;" vertex="1" parent="1">
          <mxGeometry x="121.25" y="2185.55" width="70" height="30" as="geometry" />
        </mxCell>
        <mxCell id="5ZSzfDrvXd6z9-84WiZO-91" value="" style="endArrow=none;html=1;rounded=0;" edge="1" parent="1">
          <mxGeometry relative="1" as="geometry">
            <mxPoint x="385.4100000000001" y="2653" as="sourcePoint" />
            <mxPoint x="385.4100000000001" y="2570" as="targetPoint" />
          </mxGeometry>
        </mxCell>
        <mxCell id="5ZSzfDrvXd6z9-84WiZO-92" value="(1, N)" style="resizable=0;html=1;align=left;verticalAlign=bottom;shadow=0;sketch=0;fillStyle=solid;strokeColor=#330000;strokeWidth=1;fillColor=#FFFFFF;" connectable="0" vertex="1" parent="5ZSzfDrvXd6z9-84WiZO-91">
          <mxGeometry x="-1" relative="1" as="geometry">
            <mxPoint x="1" y="-59" as="offset" />
          </mxGeometry>
        </mxCell>
        <mxCell id="5ZSzfDrvXd6z9-84WiZO-93" value="USING&lt;br&gt;RESOURCES" style="shape=rhombus;perimeter=rhombusPerimeter;whiteSpace=wrap;html=1;align=center;shadow=0;sketch=0;fillStyle=solid;strokeColor=#330000;strokeWidth=1;fillColor=#FFFFFF;" vertex="1" parent="1">
          <mxGeometry x="325" y="2653" width="120" height="60" as="geometry" />
        </mxCell>
        <mxCell id="5ZSzfDrvXd6z9-84WiZO-94" value="" style="endArrow=none;html=1;rounded=0;" edge="1" parent="1">
          <mxGeometry relative="1" as="geometry">
            <mxPoint x="385.4100000000001" y="2795" as="sourcePoint" />
            <mxPoint x="385.4100000000001" y="2713" as="targetPoint" />
          </mxGeometry>
        </mxCell>
        <mxCell id="5ZSzfDrvXd6z9-84WiZO-95" value="(1, 1)" style="resizable=0;html=1;align=left;verticalAlign=bottom;shadow=0;sketch=0;fillStyle=solid;strokeColor=#330000;strokeWidth=1;fillColor=#FFFFFF;" connectable="0" vertex="1" parent="5ZSzfDrvXd6z9-84WiZO-94">
          <mxGeometry x="-1" relative="1" as="geometry">
            <mxPoint x="1" y="-2" as="offset" />
          </mxGeometry>
        </mxCell>
        <mxCell id="5ZSzfDrvXd6z9-84WiZO-96" value="LEARNING MATERIAL" style="whiteSpace=wrap;html=1;align=center;shadow=0;sketch=0;fillStyle=solid;strokeColor=#330000;strokeWidth=1;fillColor=#FFFFFF;" vertex="1" parent="1">
          <mxGeometry x="336" y="2796" width="100" height="40" as="geometry" />
        </mxCell>
        <mxCell id="5ZSzfDrvXd6z9-84WiZO-103" value="description" style="text;html=1;align=center;verticalAlign=middle;resizable=0;points=[];autosize=1;strokeColor=none;fillColor=none;" vertex="1" parent="1">
          <mxGeometry x="491.5" y="2716" width="80" height="30" as="geometry" />
        </mxCell>
        <mxCell id="5ZSzfDrvXd6z9-84WiZO-104" value="" style="edgeStyle=none;rounded=0;orthogonalLoop=1;jettySize=auto;html=1;exitX=0.75;exitY=0;exitDx=0;exitDy=0;endArrow=none;entryX=0;entryY=1;entryDx=0;entryDy=0;" edge="1" parent="1">
          <mxGeometry relative="1" as="geometry">
            <mxPoint x="489.9289321881347" y="2753.0710678118653" as="targetPoint" />
            <mxPoint x="433" y="2796" as="sourcePoint" />
          </mxGeometry>
        </mxCell>
        <mxCell id="5ZSzfDrvXd6z9-84WiZO-106" value="dimension&lt;br style=&quot;border-color: var(--border-color);&quot;&gt;(minutes /&amp;nbsp;nr_of_pages / nr_of_questions)" style="text;html=1;align=center;verticalAlign=middle;resizable=0;points=[];autosize=1;strokeColor=none;fillColor=none;flipV=1;" vertex="1" parent="1">
          <mxGeometry x="431" y="2840" width="250" height="40" as="geometry" />
        </mxCell>
        <mxCell id="5ZSzfDrvXd6z9-84WiZO-107" value="" style="edgeStyle=none;rounded=0;orthogonalLoop=1;jettySize=auto;html=1;exitX=0.75;exitY=0;exitDx=0;exitDy=0;endArrow=none;" edge="1" parent="1">
          <mxGeometry relative="1" as="geometry">
            <mxPoint x="502" y="2846.000000000001" as="targetPoint" />
            <mxPoint x="436" y="2820.000000000001" as="sourcePoint" />
          </mxGeometry>
        </mxCell>
        <mxCell id="5ZSzfDrvXd6z9-84WiZO-108" value="" style="endArrow=none;html=1;rounded=0;" edge="1" parent="1">
          <mxGeometry width="50" height="50" relative="1" as="geometry">
            <mxPoint x="356" y="2796" as="sourcePoint" />
            <mxPoint x="312" y="2745" as="targetPoint" />
          </mxGeometry>
        </mxCell>
        <mxCell id="5ZSzfDrvXd6z9-84WiZO-109" value="" style="ellipse;whiteSpace=wrap;html=1;fillColor=#FFFFFF;strokeColor=#330000;shadow=0;sketch=0;fillStyle=solid;strokeWidth=1;" vertex="1" parent="1">
          <mxGeometry x="297" y="2726" width="20" height="20" as="geometry" />
        </mxCell>
        <mxCell id="5ZSzfDrvXd6z9-84WiZO-110" value="name" style="text;html=1;align=center;verticalAlign=middle;resizable=0;points=[];autosize=1;strokeColor=none;fillColor=none;flipV=1;" vertex="1" parent="1">
          <mxGeometry x="253" y="2713" width="50" height="30" as="geometry" />
        </mxCell>
        <mxCell id="5ZSzfDrvXd6z9-84WiZO-111" value="" style="endArrow=none;html=1;rounded=0;" edge="1" parent="1">
          <mxGeometry width="50" height="50" relative="1" as="geometry">
            <mxPoint x="447" y="2620" as="sourcePoint" />
            <mxPoint x="411" y="2666" as="targetPoint" />
          </mxGeometry>
        </mxCell>
        <mxCell id="5ZSzfDrvXd6z9-84WiZO-112" value="" style="ellipse;whiteSpace=wrap;html=1;fillColor=#FFFFFF;strokeColor=#330000;shadow=0;sketch=0;fillStyle=solid;strokeWidth=1;" vertex="1" parent="1">
          <mxGeometry x="439" y="2603" width="20" height="20" as="geometry" />
        </mxCell>
        <mxCell id="5ZSzfDrvXd6z9-84WiZO-113" value="accessDate" style="text;html=1;align=center;verticalAlign=middle;resizable=0;points=[];autosize=1;strokeColor=none;fillColor=none;" vertex="1" parent="1">
          <mxGeometry x="442.5" y="2580" width="90" height="30" as="geometry" />
        </mxCell>
        <mxCell id="5ZSzfDrvXd6z9-84WiZO-114" value="" style="endArrow=none;html=1;rounded=0;" edge="1" parent="1">
          <mxGeometry width="50" height="50" relative="1" as="geometry">
            <mxPoint x="49" y="2530" as="sourcePoint" />
            <mxPoint x="56" y="2474" as="targetPoint" />
          </mxGeometry>
        </mxCell>
        <mxCell id="5ZSzfDrvXd6z9-84WiZO-115" value="" style="ellipse;whiteSpace=wrap;html=1;aspect=fixed;shadow=0;sketch=0;fillStyle=solid;strokeColor=#330000;strokeWidth=1;fillColor=#FFFFFF;" vertex="1" parent="1">
          <mxGeometry x="48" y="2455" width="20" height="20" as="geometry" />
        </mxCell>
        <mxCell id="5ZSzfDrvXd6z9-84WiZO-116" value="courseYear" style="text;html=1;align=center;verticalAlign=middle;resizable=0;points=[];autosize=1;strokeColor=none;fillColor=none;" vertex="1" parent="1">
          <mxGeometry x="6" y="2428" width="80" height="30" as="geometry" />
        </mxCell>
        <mxCell id="5ZSzfDrvXd6z9-84WiZO-117" value="" style="curved=1;endArrow=classic;html=1;rounded=0;" edge="1" parent="1">
          <mxGeometry width="50" height="50" relative="1" as="geometry">
            <mxPoint x="70" y="2513" as="sourcePoint" />
            <mxPoint x="-71" y="2511" as="targetPoint" />
            <Array as="points">
              <mxPoint x="69.25" y="2513" />
              <mxPoint x="39.25" y="2493" />
            </Array>
          </mxGeometry>
        </mxCell>
        <mxCell id="5ZSzfDrvXd6z9-84WiZO-118" value="" style="shape=waypoint;fillStyle=solid;size=6;pointerEvents=1;points=[];resizable=0;rotatable=0;perimeter=centerPerimeter;snapToPoint=1;strokeWidth=3;fillColor=none;strokeColor=default;perimeterSpacing=0;shadow=0;sketch=0;flipV=0;flipH=0;" vertex="1" parent="1">
          <mxGeometry x="-36" y="2495" width="20" height="20" as="geometry" />
        </mxCell>
        <mxCell id="5ZSzfDrvXd6z9-84WiZO-119" value="" style="shape=waypoint;fillStyle=solid;size=6;pointerEvents=1;points=[];resizable=0;rotatable=0;perimeter=centerPerimeter;snapToPoint=1;strokeWidth=3;fillColor=none;strokeColor=default;perimeterSpacing=0;shadow=0;sketch=0;flipV=0;flipH=0;" vertex="1" parent="1">
          <mxGeometry x="43" y="2496" width="20" height="20" as="geometry" />
        </mxCell>
        <mxCell id="5ZSzfDrvXd6z9-84WiZO-120" value="" style="ellipse;whiteSpace=wrap;html=1;aspect=fixed;fillColor=#000000;" vertex="1" parent="1">
          <mxGeometry x="-77.5" y="2500" width="20" height="20" as="geometry" />
        </mxCell>
        <mxCell id="5ZSzfDrvXd6z9-84WiZO-129" value="nr_of_attempts" style="text;html=1;align=center;verticalAlign=middle;resizable=0;points=[];autosize=1;strokeColor=none;fillColor=none;" vertex="1" parent="1">
          <mxGeometry x="-243" y="2652" width="100" height="30" as="geometry" />
        </mxCell>
        <mxCell id="5ZSzfDrvXd6z9-84WiZO-130" value="" style="edgeStyle=none;rounded=0;orthogonalLoop=1;jettySize=auto;html=1;exitX=0.5;exitY=0;exitDx=0;exitDy=0;endArrow=none;" edge="1" parent="1" source="5ZSzfDrvXd6z9-84WiZO-63">
          <mxGeometry relative="1" as="geometry">
            <mxPoint x="-382" y="2466" as="targetPoint" />
            <mxPoint x="-384" y="2530" as="sourcePoint" />
          </mxGeometry>
        </mxCell>
        <mxCell id="5ZSzfDrvXd6z9-84WiZO-131" value="" style="ellipse;whiteSpace=wrap;html=1;fillColor=#FFFFFF;strokeColor=#330000;shadow=0;sketch=0;fillStyle=solid;strokeWidth=1;" vertex="1" parent="1">
          <mxGeometry x="-392" y="2456" width="20" height="20" as="geometry" />
        </mxCell>
        <mxCell id="5ZSzfDrvXd6z9-84WiZO-132" value="name" style="text;html=1;align=center;verticalAlign=middle;resizable=0;points=[];autosize=1;strokeColor=none;fillColor=none;" vertex="1" parent="1">
          <mxGeometry x="-403.5" y="2429" width="50" height="30" as="geometry" />
        </mxCell>
        <mxCell id="5ZSzfDrvXd6z9-84WiZO-133" value="attemptDate" style="text;html=1;align=center;verticalAlign=middle;resizable=0;points=[];autosize=1;strokeColor=none;fillColor=none;" vertex="1" parent="1">
          <mxGeometry x="-147" y="2604" width="90" height="30" as="geometry" />
        </mxCell>
        <mxCell id="5ZSzfDrvXd6z9-84WiZO-134" value="" style="ellipse;whiteSpace=wrap;html=1;fillColor=#FFFFFF;strokeColor=#330000;shadow=0;sketch=0;fillStyle=solid;strokeWidth=1;" vertex="1" parent="1">
          <mxGeometry x="-157" y="2621" width="20" height="20" as="geometry" />
        </mxCell>
        <mxCell id="5ZSzfDrvXd6z9-84WiZO-135" value="" style="edgeStyle=none;rounded=0;orthogonalLoop=1;jettySize=auto;html=1;exitX=0.75;exitY=0;exitDx=0;exitDy=0;endArrow=none;" edge="1" parent="1">
          <mxGeometry relative="1" as="geometry">
            <mxPoint x="-149" y="2622" as="targetPoint" />
            <mxPoint x="-163" y="2566" as="sourcePoint" />
          </mxGeometry>
        </mxCell>
        <mxCell id="5ZSzfDrvXd6z9-84WiZO-136" value="courseName" style="text;html=1;align=center;verticalAlign=middle;resizable=0;points=[];autosize=1;strokeColor=none;fillColor=none;" vertex="1" parent="1">
          <mxGeometry x="-109" y="2428" width="90" height="30" as="geometry" />
        </mxCell>
        <mxCell id="5ZSzfDrvXd6z9-84WiZO-137" value="INSTRUCTOR" style="whiteSpace=wrap;html=1;align=center;shadow=0;sketch=0;fillStyle=solid;strokeColor=#330000;strokeWidth=1;fillColor=#FFFFFF;" vertex="1" parent="1">
          <mxGeometry x="-52.5" y="2770" width="100" height="40" as="geometry" />
        </mxCell>
        <mxCell id="5ZSzfDrvXd6z9-84WiZO-138" value="TEACHING" style="shape=rhombus;perimeter=rhombusPerimeter;whiteSpace=wrap;html=1;align=center;shadow=0;sketch=0;fillStyle=solid;strokeColor=#330000;strokeWidth=1;fillColor=#FFFFFF;" vertex="1" parent="1">
          <mxGeometry x="-62.5" y="2640" width="120" height="60" as="geometry" />
        </mxCell>
        <mxCell id="5ZSzfDrvXd6z9-84WiZO-139" value="" style="endArrow=none;html=1;rounded=0;" edge="1" parent="1">
          <mxGeometry relative="1" as="geometry">
            <mxPoint x="-2.5" y="2570" as="sourcePoint" />
            <mxPoint x="-2.5" y="2640" as="targetPoint" />
          </mxGeometry>
        </mxCell>
        <mxCell id="5ZSzfDrvXd6z9-84WiZO-140" value="" style="endArrow=none;html=1;rounded=0;" edge="1" parent="1">
          <mxGeometry relative="1" as="geometry">
            <mxPoint x="-2.5" y="2700" as="sourcePoint" />
            <mxPoint x="-2.5" y="2770" as="targetPoint" />
          </mxGeometry>
        </mxCell>
        <mxCell id="5ZSzfDrvXd6z9-84WiZO-141" value="" style="endArrow=none;html=1;rounded=0;" edge="1" parent="1">
          <mxGeometry width="50" height="50" relative="1" as="geometry">
            <mxPoint x="33" y="2570" as="sourcePoint" />
            <mxPoint x="57" y="2619" as="targetPoint" />
          </mxGeometry>
        </mxCell>
        <mxCell id="5ZSzfDrvXd6z9-84WiZO-142" value="" style="ellipse;whiteSpace=wrap;html=1;aspect=fixed;shadow=0;sketch=0;fillStyle=solid;strokeColor=#330000;strokeWidth=1;fillColor=#FFFFFF;" vertex="1" parent="1">
          <mxGeometry x="48.5" y="2619" width="20" height="20" as="geometry" />
        </mxCell>
        <mxCell id="5ZSzfDrvXd6z9-84WiZO-143" value="syllabus" style="text;html=1;align=center;verticalAlign=middle;resizable=0;points=[];autosize=1;strokeColor=none;fillColor=none;" vertex="1" parent="1">
          <mxGeometry x="58" y="2606" width="70" height="30" as="geometry" />
        </mxCell>
        <mxCell id="5ZSzfDrvXd6z9-84WiZO-144" value="firstName" style="text;html=1;align=center;verticalAlign=middle;resizable=0;points=[];autosize=1;strokeColor=none;fillColor=none;flipV=1;" vertex="1" parent="1">
          <mxGeometry x="-118" y="2884" width="70" height="30" as="geometry" />
        </mxCell>
        <mxCell id="5ZSzfDrvXd6z9-84WiZO-145" value="" style="edgeStyle=none;rounded=0;orthogonalLoop=1;jettySize=auto;html=1;exitX=0.75;exitY=0;exitDx=0;exitDy=0;endArrow=none;" edge="1" parent="1">
          <mxGeometry relative="1" as="geometry">
            <mxPoint x="58.93861533935433" y="2833.138115486453" as="targetPoint" />
            <mxPoint x="58" y="2833.9754676049874" as="sourcePoint" />
          </mxGeometry>
        </mxCell>
        <mxCell id="5ZSzfDrvXd6z9-84WiZO-146" value="genre" style="text;html=1;align=center;verticalAlign=middle;resizable=0;points=[];autosize=1;strokeColor=none;fillColor=none;flipV=1;" vertex="1" parent="1">
          <mxGeometry x="52" y="2883" width="50" height="30" as="geometry" />
        </mxCell>
        <mxCell id="5ZSzfDrvXd6z9-84WiZO-147" value="" style="edgeStyle=none;rounded=0;orthogonalLoop=1;jettySize=auto;html=1;endArrow=none;" edge="1" parent="1">
          <mxGeometry relative="1" as="geometry">
            <mxPoint x="-3" y="2874" as="targetPoint" />
            <mxPoint x="-3" y="2810" as="sourcePoint" />
          </mxGeometry>
        </mxCell>
        <mxCell id="5ZSzfDrvXd6z9-84WiZO-148" value="" style="ellipse;whiteSpace=wrap;html=1;fillColor=#FFFFFF;strokeColor=#330000;shadow=0;sketch=0;fillStyle=solid;strokeWidth=1;flipV=1;" vertex="1" parent="1">
          <mxGeometry x="-13" y="2871" width="20" height="20" as="geometry" />
        </mxCell>
        <mxCell id="5ZSzfDrvXd6z9-84WiZO-149" value="lastName" style="text;html=1;align=center;verticalAlign=middle;resizable=0;points=[];autosize=1;strokeColor=none;fillColor=none;flipV=1;" vertex="1" parent="1">
          <mxGeometry x="-34" y="2884" width="70" height="30" as="geometry" />
        </mxCell>
        <mxCell id="5ZSzfDrvXd6z9-84WiZO-150" value="" style="edgeStyle=none;rounded=0;orthogonalLoop=1;jettySize=auto;html=1;exitX=0.75;exitY=0;exitDx=0;exitDy=0;endArrow=none;entryX=0;entryY=0;entryDx=0;entryDy=0;" edge="1" parent="1">
          <mxGeometry relative="1" as="geometry">
            <mxPoint x="-57.07106781186576" y="2871.9289321881342" as="targetPoint" />
            <mxPoint x="-52" y="2809" as="sourcePoint" />
          </mxGeometry>
        </mxCell>
        <mxCell id="5ZSzfDrvXd6z9-84WiZO-151" value="" style="ellipse;whiteSpace=wrap;html=1;fillColor=#FFFFFF;strokeColor=#330000;shadow=0;sketch=0;fillStyle=solid;strokeWidth=1;flipV=1;" vertex="1" parent="1">
          <mxGeometry x="-67" y="2869" width="20" height="20" as="geometry" />
        </mxCell>
        <mxCell id="5ZSzfDrvXd6z9-84WiZO-152" value="" style="edgeStyle=none;rounded=0;orthogonalLoop=1;jettySize=auto;html=1;exitX=0.75;exitY=0;exitDx=0;exitDy=0;endArrow=none;entryX=1;entryY=0;entryDx=0;entryDy=0;" edge="1" parent="1">
          <mxGeometry relative="1" as="geometry">
            <mxPoint x="57.07106781186576" y="2872.9289321881342" as="targetPoint" />
            <mxPoint x="48" y="2810" as="sourcePoint" />
          </mxGeometry>
        </mxCell>
        <mxCell id="5ZSzfDrvXd6z9-84WiZO-153" value="" style="ellipse;whiteSpace=wrap;html=1;fillColor=#FFFFFF;strokeColor=#330000;shadow=0;sketch=0;fillStyle=solid;strokeWidth=1;flipV=1;" vertex="1" parent="1">
          <mxGeometry x="48" y="2870" width="20" height="20" as="geometry" />
        </mxCell>
        <mxCell id="5ZSzfDrvXd6z9-84WiZO-154" value="(1, N)" style="resizable=0;html=1;align=left;verticalAlign=bottom;shadow=0;sketch=0;fillStyle=solid;strokeColor=#330000;strokeWidth=1;fillColor=#FFFFFF;" connectable="0" vertex="1" parent="1">
          <mxGeometry x="-38" y="2592" as="geometry" />
        </mxCell>
        <mxCell id="5ZSzfDrvXd6z9-84WiZO-155" value="(1, N)" style="resizable=0;html=1;align=left;verticalAlign=bottom;shadow=0;sketch=0;fillStyle=solid;strokeColor=#330000;strokeWidth=1;fillColor=#FFFFFF;" connectable="0" vertex="1" parent="1">
          <mxGeometry x="-38" y="2766" as="geometry" />
        </mxCell>
        <mxCell id="5ZSzfDrvXd6z9-84WiZO-156" style="edgeStyle=none;rounded=0;orthogonalLoop=1;jettySize=auto;html=1;exitX=0.25;exitY=0;exitDx=0;exitDy=0;" edge="1" parent="1">
          <mxGeometry relative="1" as="geometry">
            <mxPoint x="-54" y="2164" as="targetPoint" />
            <mxPoint x="-49" y="2224" as="sourcePoint" />
          </mxGeometry>
        </mxCell>
        <mxCell id="5ZSzfDrvXd6z9-84WiZO-157" value="firstName" style="text;html=1;align=center;verticalAlign=middle;resizable=0;points=[];autosize=1;strokeColor=none;fillColor=none;" vertex="1" parent="1">
          <mxGeometry x="-114" y="2126" width="70" height="30" as="geometry" />
        </mxCell>
        <mxCell id="5ZSzfDrvXd6z9-84WiZO-158" value="" style="edgeStyle=none;rounded=0;orthogonalLoop=1;jettySize=auto;html=1;exitX=1;exitY=0;exitDx=0;exitDy=0;endArrow=none;" edge="1" parent="1" target="5ZSzfDrvXd6z9-84WiZO-159">
          <mxGeometry relative="1" as="geometry">
            <mxPoint x="53" y="2164" as="targetPoint" />
            <mxPoint x="48" y="2224" as="sourcePoint" />
          </mxGeometry>
        </mxCell>
        <mxCell id="5ZSzfDrvXd6z9-84WiZO-159" value="" style="ellipse;whiteSpace=wrap;html=1;fillColor=#FFFFFF;strokeColor=#330000;shadow=0;sketch=0;fillStyle=solid;strokeWidth=1;" vertex="1" parent="1">
          <mxGeometry x="43" y="2154" width="20" height="20" as="geometry" />
        </mxCell>
        <mxCell id="5ZSzfDrvXd6z9-84WiZO-160" value="" style="ellipse;whiteSpace=wrap;html=1;fillColor=#FFFFFF;strokeColor=#330000;shadow=0;sketch=0;fillStyle=solid;strokeWidth=1;" vertex="1" parent="1">
          <mxGeometry x="-64" y="2154" width="20" height="20" as="geometry" />
        </mxCell>
        <mxCell id="5ZSzfDrvXd6z9-84WiZO-161" value="genre" style="text;html=1;align=center;verticalAlign=middle;resizable=0;points=[];autosize=1;strokeColor=none;fillColor=none;" vertex="1" parent="1">
          <mxGeometry x="56" y="2126" width="50" height="30" as="geometry" />
        </mxCell>
        <mxCell id="5ZSzfDrvXd6z9-84WiZO-162" value="" style="edgeStyle=none;rounded=0;orthogonalLoop=1;jettySize=auto;html=1;exitX=0.75;exitY=0;exitDx=0;exitDy=0;endArrow=none;" edge="1" parent="1">
          <mxGeometry relative="1" as="geometry">
            <mxPoint x="1" y="2160" as="targetPoint" />
            <mxPoint x="-1" y="2224" as="sourcePoint" />
          </mxGeometry>
        </mxCell>
        <mxCell id="5ZSzfDrvXd6z9-84WiZO-163" value="" style="ellipse;whiteSpace=wrap;html=1;fillColor=#FFFFFF;strokeColor=#330000;shadow=0;sketch=0;fillStyle=solid;strokeWidth=1;" vertex="1" parent="1">
          <mxGeometry x="-9" y="2150" width="20" height="20" as="geometry" />
        </mxCell>
        <mxCell id="5ZSzfDrvXd6z9-84WiZO-164" value="lastName" style="text;html=1;align=center;verticalAlign=middle;resizable=0;points=[];autosize=1;strokeColor=none;fillColor=none;" vertex="1" parent="1">
          <mxGeometry x="-30" y="2122" width="70" height="30" as="geometry" />
        </mxCell>
        <mxCell id="5ZSzfDrvXd6z9-84WiZO-165" value="" style="endArrow=none;html=1;rounded=0;entryX=1;entryY=0.5;entryDx=0;entryDy=0;" edge="1" parent="1">
          <mxGeometry width="50" height="50" relative="1" as="geometry">
            <mxPoint x="-51" y="2236" as="sourcePoint" />
            <mxPoint x="-107" y="2209" as="targetPoint" />
          </mxGeometry>
        </mxCell>
        <mxCell id="5ZSzfDrvXd6z9-84WiZO-166" value="" style="endArrow=none;html=1;rounded=0;" edge="1" parent="1">
          <mxGeometry width="50" height="50" relative="1" as="geometry">
            <mxPoint x="-51" y="2264" as="sourcePoint" />
            <mxPoint x="-111" y="2289" as="targetPoint" />
          </mxGeometry>
        </mxCell>
        <mxCell id="5ZSzfDrvXd6z9-84WiZO-167" value="" style="ellipse;whiteSpace=wrap;html=1;fillColor=#FFFFFF;strokeColor=#330000;shadow=0;sketch=0;fillStyle=solid;strokeWidth=1;" vertex="1" parent="1">
          <mxGeometry x="-126" y="2280" width="20" height="20" as="geometry" />
        </mxCell>
        <mxCell id="5ZSzfDrvXd6z9-84WiZO-168" value="" style="endArrow=none;html=1;rounded=0;entryX=-0.014;entryY=-0.133;entryDx=0;entryDy=0;entryPerimeter=0;" edge="1" parent="1">
          <mxGeometry width="50" height="50" relative="1" as="geometry">
            <mxPoint x="106.98999999999978" y="2291" as="sourcePoint" />
            <mxPoint x="48.99999999999977" y="2263.99" as="targetPoint" />
          </mxGeometry>
        </mxCell>
        <mxCell id="5ZSzfDrvXd6z9-84WiZO-169" value="" style="ellipse;whiteSpace=wrap;html=1;fillColor=#FFFFFF;strokeColor=#330000;shadow=0;sketch=0;fillStyle=solid;strokeWidth=1;" vertex="1" parent="1">
          <mxGeometry x="101.25" y="2283" width="20" height="20" as="geometry" />
        </mxCell>
        <mxCell id="5ZSzfDrvXd6z9-84WiZO-170" value="" style="ellipse;whiteSpace=wrap;html=1;fillColor=#FFFFFF;strokeColor=#330000;shadow=0;sketch=0;fillStyle=solid;strokeWidth=1;" vertex="1" parent="1">
          <mxGeometry x="-127" y="2194" width="20" height="20" as="geometry" />
        </mxCell>
        <mxCell id="5ZSzfDrvXd6z9-84WiZO-171" value="dateOfBirth" style="text;html=1;align=center;verticalAlign=middle;resizable=0;points=[];autosize=1;strokeColor=none;fillColor=none;" vertex="1" parent="1">
          <mxGeometry x="-198" y="2175" width="80" height="30" as="geometry" />
        </mxCell>
        <mxCell id="5ZSzfDrvXd6z9-84WiZO-172" value="town" style="text;html=1;align=center;verticalAlign=middle;resizable=0;points=[];autosize=1;strokeColor=none;fillColor=none;" vertex="1" parent="1">
          <mxGeometry x="-154" y="2293" width="50" height="30" as="geometry" />
        </mxCell>
        <mxCell id="5ZSzfDrvXd6z9-84WiZO-173" value="country" style="text;html=1;align=center;verticalAlign=middle;resizable=0;points=[];autosize=1;strokeColor=none;fillColor=none;" vertex="1" parent="1">
          <mxGeometry x="52" y="2292" width="60" height="30" as="geometry" />
        </mxCell>
        <mxCell id="5ZSzfDrvXd6z9-84WiZO-174" value="" style="edgeStyle=none;rounded=0;orthogonalLoop=1;jettySize=auto;html=1;exitX=0.421;exitY=0.667;exitDx=0;exitDy=0;endArrow=none;exitPerimeter=0;" edge="1" parent="1">
          <mxGeometry relative="1" as="geometry">
            <mxPoint x="-241" y="2470" as="targetPoint" />
            <mxPoint x="-218.98000000000002" y="2534.02" as="sourcePoint" />
          </mxGeometry>
        </mxCell>
        <mxCell id="5ZSzfDrvXd6z9-84WiZO-175" value="" style="ellipse;whiteSpace=wrap;html=1;fillColor=#FFFFFF;strokeColor=#330000;shadow=0;sketch=0;fillStyle=solid;strokeWidth=1;flipH=1;" vertex="1" parent="1">
          <mxGeometry x="-250.5" y="2458" width="20" height="20" as="geometry" />
        </mxCell>
        <mxCell id="5ZSzfDrvXd6z9-84WiZO-176" value="minScore" style="text;html=1;align=center;verticalAlign=middle;resizable=0;points=[];autosize=1;strokeColor=none;fillColor=none;flipH=1;" vertex="1" parent="1">
          <mxGeometry x="-267" y="2432" width="70" height="30" as="geometry" />
        </mxCell>
        <mxCell id="5ZSzfDrvXd6z9-84WiZO-177" value="" style="edgeStyle=none;rounded=0;orthogonalLoop=1;jettySize=auto;html=1;exitX=0.421;exitY=0.667;exitDx=0;exitDy=0;endArrow=none;exitPerimeter=0;" edge="1" parent="1">
          <mxGeometry relative="1" as="geometry">
            <mxPoint x="-139.98000000000002" y="2471" as="targetPoint" />
            <mxPoint x="-162" y="2535.02" as="sourcePoint" />
          </mxGeometry>
        </mxCell>
        <mxCell id="5ZSzfDrvXd6z9-84WiZO-178" value="" style="ellipse;whiteSpace=wrap;html=1;fillColor=#FFFFFF;strokeColor=#330000;shadow=0;sketch=0;fillStyle=solid;strokeWidth=1;flipH=1;" vertex="1" parent="1">
          <mxGeometry x="-150.5" y="2458" width="20" height="20" as="geometry" />
        </mxCell>
        <mxCell id="5ZSzfDrvXd6z9-84WiZO-179" value="maxScore" style="text;html=1;align=center;verticalAlign=middle;resizable=0;points=[];autosize=1;strokeColor=none;fillColor=none;flipH=1;" vertex="1" parent="1">
          <mxGeometry x="-192" y="2432" width="80" height="30" as="geometry" />
        </mxCell>
        <mxCell id="5ZSzfDrvXd6z9-84WiZO-188" value="" style="edgeStyle=none;rounded=0;orthogonalLoop=1;jettySize=auto;html=1;exitX=0.75;exitY=0;exitDx=0;exitDy=0;endArrow=none;" edge="1" parent="1" target="5ZSzfDrvXd6z9-84WiZO-189">
          <mxGeometry relative="1" as="geometry">
            <mxPoint x="436" y="2472.94572445643" as="targetPoint" />
            <mxPoint x="435" y="2536.94572445643" as="sourcePoint" />
          </mxGeometry>
        </mxCell>
        <mxCell id="5ZSzfDrvXd6z9-84WiZO-189" value="" style="ellipse;whiteSpace=wrap;html=1;fillColor=#FFFFFF;strokeColor=#330000;shadow=0;sketch=0;fillStyle=solid;strokeWidth=1;flipV=1;" vertex="1" parent="1">
          <mxGeometry x="493.5" y="2510" width="20" height="20" as="geometry" />
        </mxCell>
        <mxCell id="5ZSzfDrvXd6z9-84WiZO-190" value="learning_goals" style="text;html=1;align=center;verticalAlign=middle;resizable=0;points=[];autosize=1;strokeColor=none;fillColor=none;" vertex="1" parent="1">
          <mxGeometry x="489" y="2486" width="100" height="30" as="geometry" />
        </mxCell>
        <mxCell id="5ZSzfDrvXd6z9-84WiZO-191" value="" style="ellipse;whiteSpace=wrap;html=1;fillColor=#FFFFFF;strokeColor=#330000;shadow=0;sketch=0;fillStyle=solid;strokeWidth=1;" vertex="1" parent="1">
          <mxGeometry x="486" y="2738" width="20" height="20" as="geometry" />
        </mxCell>
        <mxCell id="5ZSzfDrvXd6z9-84WiZO-192" value="accessDate" style="text;html=1;align=center;verticalAlign=middle;resizable=0;points=[];autosize=1;strokeColor=none;fillColor=none;" vertex="1" parent="1">
          <mxGeometry x="86" y="2634" width="90" height="30" as="geometry" />
        </mxCell>
        <mxCell id="5ZSzfDrvXd6z9-84WiZO-193" value="accessStart" style="text;html=1;align=center;verticalAlign=middle;resizable=0;points=[];autosize=1;strokeColor=none;fillColor=none;" vertex="1" parent="1">
          <mxGeometry x="163" y="2650" width="90" height="30" as="geometry" />
        </mxCell>
        <mxCell id="5ZSzfDrvXd6z9-84WiZO-194" value="" style="endArrow=none;html=1;rounded=0;" edge="1" parent="1" source="5ZSzfDrvXd6z9-84WiZO-197">
          <mxGeometry width="50" height="50" relative="1" as="geometry">
            <mxPoint x="48.00000000000091" y="2790" as="sourcePoint" />
            <mxPoint x="121.00000000000091" y="2790" as="targetPoint" />
          </mxGeometry>
        </mxCell>
        <mxCell id="5ZSzfDrvXd6z9-84WiZO-195" value="instructorID" style="text;html=1;align=center;verticalAlign=middle;resizable=0;points=[];autosize=1;strokeColor=none;fillColor=none;" vertex="1" parent="1">
          <mxGeometry x="113" y="2793" width="80" height="30" as="geometry" />
        </mxCell>
        <mxCell id="5ZSzfDrvXd6z9-84WiZO-196" value="" style="endArrow=none;html=1;rounded=0;" edge="1" parent="1" target="5ZSzfDrvXd6z9-84WiZO-197">
          <mxGeometry width="50" height="50" relative="1" as="geometry">
            <mxPoint x="48.00000000000091" y="2790" as="sourcePoint" />
            <mxPoint x="121.00000000000091" y="2790" as="targetPoint" />
          </mxGeometry>
        </mxCell>
        <mxCell id="5ZSzfDrvXd6z9-84WiZO-197" value="" style="ellipse;whiteSpace=wrap;html=1;aspect=fixed;shadow=0;sketch=0;fillStyle=solid;strokeColor=#330000;strokeWidth=1;fillColor=#000000;" vertex="1" parent="1">
          <mxGeometry x="109" y="2779" width="20" height="20" as="geometry" />
        </mxCell>
        <mxCell id="5ZSzfDrvXd6z9-84WiZO-198" value="" style="edgeStyle=none;rounded=0;orthogonalLoop=1;jettySize=auto;html=1;exitX=0.5;exitY=1;exitDx=0;exitDy=0;endArrow=none;" edge="1" parent="1" source="5ZSzfDrvXd6z9-84WiZO-74">
          <mxGeometry relative="1" as="geometry">
            <mxPoint x="190" y="2640" as="targetPoint" />
            <mxPoint x="196" y="2577" as="sourcePoint" />
          </mxGeometry>
        </mxCell>
        <mxCell id="5ZSzfDrvXd6z9-84WiZO-199" value="" style="ellipse;whiteSpace=wrap;html=1;fillColor=#FFFFFF;strokeColor=#330000;shadow=0;sketch=0;fillStyle=solid;strokeWidth=1;" vertex="1" parent="1">
          <mxGeometry x="179" y="2633" width="20" height="20" as="geometry" />
        </mxCell>
        <mxCell id="5ZSzfDrvXd6z9-84WiZO-200" value="" style="edgeStyle=none;rounded=0;orthogonalLoop=1;jettySize=auto;html=1;endArrow=none;entryX=0;entryY=0;entryDx=0;entryDy=0;" edge="1" parent="1">
          <mxGeometry relative="1" as="geometry">
            <mxPoint x="144.9289321882493" y="2622.9289321882493" as="targetPoint" />
            <mxPoint x="159" y="2564" as="sourcePoint" />
          </mxGeometry>
        </mxCell>
        <mxCell id="5ZSzfDrvXd6z9-84WiZO-201" value="accessEnd" style="text;html=1;align=center;verticalAlign=middle;resizable=0;points=[];autosize=1;strokeColor=none;fillColor=none;" vertex="1" parent="1">
          <mxGeometry x="239.5" y="2629" width="80" height="30" as="geometry" />
        </mxCell>
        <mxCell id="5ZSzfDrvXd6z9-84WiZO-202" value="" style="endArrow=none;html=1;rounded=0;" edge="1" parent="1">
          <mxGeometry relative="1" as="geometry">
            <mxPoint x="-191" y="2521" as="sourcePoint" />
            <mxPoint x="-51" y="2242" as="targetPoint" />
            <Array as="points">
              <mxPoint x="-191" y="2241" />
            </Array>
          </mxGeometry>
        </mxCell>
        <mxCell id="5ZSzfDrvXd6z9-84WiZO-203" value="" style="endArrow=none;html=1;rounded=0;" edge="1" parent="1">
          <mxGeometry relative="1" as="geometry">
            <mxPoint x="190" y="2521" as="sourcePoint" />
            <mxPoint x="49" y="2242" as="targetPoint" />
            <Array as="points">
              <mxPoint x="190" y="2241" />
            </Array>
          </mxGeometry>
        </mxCell>
        <mxCell id="5ZSzfDrvXd6z9-84WiZO-204" value="ENROLLMENT" style="shape=rhombus;perimeter=rhombusPerimeter;whiteSpace=wrap;html=1;align=center;shadow=0;sketch=0;fillStyle=solid;strokeColor=#330000;strokeWidth=1;fillColor=#FFFFFF;" vertex="1" parent="1">
          <mxGeometry x="-57.5" y="2330" width="120" height="60" as="geometry" />
        </mxCell>
        <mxCell id="5ZSzfDrvXd6z9-84WiZO-205" value="" style="endArrow=none;html=1;rounded=0;" edge="1" parent="1">
          <mxGeometry relative="1" as="geometry">
            <mxPoint x="2.5" y="2390" as="sourcePoint" />
            <mxPoint x="2.5" y="2530" as="targetPoint" />
          </mxGeometry>
        </mxCell>
        <mxCell id="5ZSzfDrvXd6z9-84WiZO-206" value="(0, N)" style="resizable=0;html=1;align=left;verticalAlign=bottom;shadow=0;sketch=0;fillStyle=solid;strokeColor=#330000;strokeWidth=1;fillColor=#FFFFFF;" connectable="0" vertex="1" parent="1">
          <mxGeometry x="5.660000000000082" y="2529" as="geometry" />
        </mxCell>
        <mxCell id="5ZSzfDrvXd6z9-84WiZO-207" value="(1, N)" style="resizable=0;html=1;align=left;verticalAlign=bottom;shadow=0;sketch=0;fillStyle=solid;strokeColor=#330000;strokeWidth=1;fillColor=#FFFFFF;" connectable="0" vertex="1" parent="1">
          <mxGeometry x="149.75" y="2260" as="geometry" />
        </mxCell>
        <mxCell id="5ZSzfDrvXd6z9-84WiZO-208" value="" style="curved=1;endArrow=classic;html=1;rounded=0;entryX=0.574;entryY=0.321;entryDx=0;entryDy=0;entryPerimeter=0;" edge="1" parent="1">
          <mxGeometry width="50" height="50" relative="1" as="geometry">
            <mxPoint x="264" y="2575" as="sourcePoint" />
            <mxPoint x="392" y="2510" as="targetPoint" />
            <Array as="points">
              <mxPoint x="263.75" y="2575.55" />
              <mxPoint x="242" y="2536.55" />
            </Array>
          </mxGeometry>
        </mxCell>
        <mxCell id="5ZSzfDrvXd6z9-84WiZO-209" value="" style="ellipse;whiteSpace=wrap;html=1;fillColor=#000000;strokeColor=#330000;shadow=0;sketch=0;fillStyle=solid;strokeWidth=1;" vertex="1" parent="1">
          <mxGeometry x="377.25" y="2500" width="20" height="20" as="geometry" />
        </mxCell>
        <mxCell id="5ZSzfDrvXd6z9-84WiZO-210" value="" style="shape=waypoint;fillStyle=solid;size=6;pointerEvents=1;points=[];resizable=0;rotatable=0;perimeter=centerPerimeter;snapToPoint=1;strokeWidth=3;fillColor=none;strokeColor=default;perimeterSpacing=0;shadow=0;sketch=0;flipV=0;flipH=0;" vertex="1" parent="1">
          <mxGeometry x="355" y="2506" width="20" height="20" as="geometry" />
        </mxCell>
        <mxCell id="5ZSzfDrvXd6z9-84WiZO-211" value="" style="shape=waypoint;fillStyle=solid;size=6;pointerEvents=1;points=[];resizable=0;rotatable=0;perimeter=centerPerimeter;snapToPoint=1;strokeWidth=3;fillColor=none;strokeColor=default;perimeterSpacing=0;shadow=0;sketch=0;flipV=0;flipH=0;" vertex="1" parent="1">
          <mxGeometry x="259" y="2540" width="20" height="20" as="geometry" />
        </mxCell>
        <mxCell id="5ZSzfDrvXd6z9-84WiZO-212" value="(1, 1)" style="resizable=0;html=1;align=left;verticalAlign=bottom;shadow=0;sketch=0;fillStyle=solid;strokeColor=#330000;strokeWidth=1;fillColor=#FFFFFF;" connectable="0" vertex="1" parent="1">
          <mxGeometry x="-184.25" y="2260" as="geometry" />
        </mxCell>
        <mxCell id="5ZSzfDrvXd6z9-84WiZO-213" value="" style="edgeStyle=none;rounded=0;orthogonalLoop=1;jettySize=auto;html=1;exitX=0.75;exitY=0;exitDx=0;exitDy=0;endArrow=none;" edge="1" parent="1">
          <mxGeometry relative="1" as="geometry">
            <mxPoint x="-233" y="2622" as="targetPoint" />
            <mxPoint x="-219" y="2566" as="sourcePoint" />
          </mxGeometry>
        </mxCell>
        <mxCell id="5ZSzfDrvXd6z9-84WiZO-214" value="" style="ellipse;whiteSpace=wrap;html=1;fillColor=#FFFFFF;strokeColor=#330000;shadow=0;sketch=0;fillStyle=solid;strokeWidth=1;" vertex="1" parent="1">
          <mxGeometry x="-247" y="2621" width="20" height="20" as="geometry" />
        </mxCell>
        <mxCell id="5ZSzfDrvXd6z9-84WiZO-215" value="completed" style="text;html=1;align=center;verticalAlign=middle;resizable=0;points=[];autosize=1;strokeColor=none;fillColor=none;" vertex="1" parent="1">
          <mxGeometry x="-311" y="2598" width="80" height="30" as="geometry" />
        </mxCell>
        <mxCell id="5ZSzfDrvXd6z9-84WiZO-216" value="" style="curved=1;endArrow=classic;html=1;rounded=0;entryX=0.574;entryY=0.321;entryDx=0;entryDy=0;entryPerimeter=0;" edge="1" parent="1">
          <mxGeometry width="50" height="50" relative="1" as="geometry">
            <mxPoint x="412" y="2760" as="sourcePoint" />
            <mxPoint x="284" y="2825" as="targetPoint" />
            <Array as="points">
              <mxPoint x="262" y="2786.55" />
              <mxPoint x="283.75" y="2825.55" />
            </Array>
          </mxGeometry>
        </mxCell>
        <mxCell id="5ZSzfDrvXd6z9-84WiZO-217" value="" style="ellipse;whiteSpace=wrap;html=1;fillColor=#000000;strokeColor=#330000;shadow=0;sketch=0;fillStyle=solid;strokeWidth=1;" vertex="1" parent="1">
          <mxGeometry x="272" y="2812" width="20" height="20" as="geometry" />
        </mxCell>
        <mxCell id="5ZSzfDrvXd6z9-84WiZO-218" value="" style="shape=waypoint;fillStyle=solid;size=6;pointerEvents=1;points=[];resizable=0;rotatable=0;perimeter=centerPerimeter;snapToPoint=1;strokeWidth=3;fillColor=none;strokeColor=default;perimeterSpacing=0;shadow=0;sketch=0;flipV=0;flipH=0;" vertex="1" parent="1">
          <mxGeometry x="329" y="2767" width="20" height="20" as="geometry" />
        </mxCell>
        <mxCell id="5ZSzfDrvXd6z9-84WiZO-219" value="" style="shape=waypoint;fillStyle=solid;size=6;pointerEvents=1;points=[];resizable=0;rotatable=0;perimeter=centerPerimeter;snapToPoint=1;strokeWidth=3;fillColor=none;strokeColor=default;perimeterSpacing=0;shadow=0;sketch=0;flipV=0;flipH=0;" vertex="1" parent="1">
          <mxGeometry x="376" y="2755" width="20" height="20" as="geometry" />
        </mxCell>
        <mxCell id="5ZSzfDrvXd6z9-84WiZO-220" value="" style="edgeStyle=none;rounded=0;orthogonalLoop=1;jettySize=auto;html=1;endArrow=none;" edge="1" parent="1">
          <mxGeometry relative="1" as="geometry">
            <mxPoint x="-191" y="2644" as="targetPoint" />
            <mxPoint x="-191" y="2580" as="sourcePoint" />
          </mxGeometry>
        </mxCell>
        <mxCell id="5ZSzfDrvXd6z9-84WiZO-221" value="" style="ellipse;whiteSpace=wrap;html=1;fillColor=#FFFFFF;strokeColor=#330000;shadow=0;sketch=0;fillStyle=solid;strokeWidth=1;" vertex="1" parent="1">
          <mxGeometry x="-201" y="2639" width="20" height="20" as="geometry" />
        </mxCell>
        <mxCell id="5ZSzfDrvXd6z9-84WiZO-222" value="" style="curved=1;endArrow=classic;html=1;rounded=0;startSize=6;entryX=0.469;entryY=-0.069;entryDx=0;entryDy=0;entryPerimeter=0;" edge="1" parent="1">
          <mxGeometry width="50" height="50" relative="1" as="geometry">
            <mxPoint x="-490" y="2504" as="sourcePoint" />
            <mxPoint x="-295" y="2580" as="targetPoint" />
            <Array as="points">
              <mxPoint x="-360" y="2494" />
              <mxPoint x="-317" y="2504" />
              <mxPoint x="-295" y="2534" />
            </Array>
          </mxGeometry>
        </mxCell>
        <mxCell id="5ZSzfDrvXd6z9-84WiZO-223" value="" style="ellipse;whiteSpace=wrap;html=1;fillColor=#000000;strokeColor=#330000;shadow=0;sketch=0;fillStyle=solid;strokeWidth=1;" vertex="1" parent="1">
          <mxGeometry x="-303" y="2566" width="20" height="20" as="geometry" />
        </mxCell>
        <mxCell id="5ZSzfDrvXd6z9-84WiZO-225" value="" style="shape=waypoint;fillStyle=solid;size=6;pointerEvents=1;points=[];resizable=0;rotatable=0;perimeter=centerPerimeter;snapToPoint=1;strokeWidth=3;fillColor=none;strokeColor=default;perimeterSpacing=0;shadow=0;sketch=0;flipV=0;flipH=0;" vertex="1" parent="1">
          <mxGeometry x="-392" y="2488" width="20" height="20" as="geometry" />
        </mxCell>
        <mxCell id="5ZSzfDrvXd6z9-84WiZO-226" value="" style="edgeStyle=none;rounded=0;orthogonalLoop=1;jettySize=auto;html=1;endArrow=none;" edge="1" parent="1">
          <mxGeometry relative="1" as="geometry">
            <mxPoint x="239" y="2627" as="targetPoint" />
            <mxPoint x="222.92893218813424" y="2564" as="sourcePoint" />
          </mxGeometry>
        </mxCell>
        <mxCell id="5ZSzfDrvXd6z9-84WiZO-227" value="" style="ellipse;whiteSpace=wrap;html=1;fillColor=#FFFFFF;strokeColor=#330000;shadow=0;sketch=0;fillStyle=solid;strokeWidth=1;" vertex="1" parent="1">
          <mxGeometry x="230" y="2619" width="20" height="20" as="geometry" />
        </mxCell>
        <mxCell id="5ZSzfDrvXd6z9-84WiZO-228" value="" style="ellipse;whiteSpace=wrap;html=1;fillColor=#FFFFFF;strokeColor=#330000;shadow=0;sketch=0;fillStyle=solid;strokeWidth=1;" vertex="1" parent="1">
          <mxGeometry x="133" y="2620" width="20" height="20" as="geometry" />
        </mxCell>
        <mxCell id="5ZSzfDrvXd6z9-84WiZO-229" value="" style="endArrow=none;html=1;rounded=0;" edge="1" parent="1">
          <mxGeometry width="50" height="50" relative="1" as="geometry">
            <mxPoint x="499" y="2670" as="sourcePoint" />
            <mxPoint x="445" y="2683" as="targetPoint" />
          </mxGeometry>
        </mxCell>
        <mxCell id="5ZSzfDrvXd6z9-84WiZO-230" value="nr_of_accesses" style="text;html=1;align=center;verticalAlign=middle;resizable=0;points=[];autosize=1;strokeColor=none;fillColor=none;" vertex="1" parent="1">
          <mxGeometry x="489.5" y="2639" width="110" height="30" as="geometry" />
        </mxCell>
        <mxCell id="5ZSzfDrvXd6z9-84WiZO-231" value="" style="ellipse;whiteSpace=wrap;html=1;fillColor=#FFFFFF;strokeColor=#330000;shadow=0;sketch=0;fillStyle=solid;strokeWidth=1;" vertex="1" parent="1">
          <mxGeometry x="489" y="2660" width="20" height="20" as="geometry" />
        </mxCell>
        <mxCell id="5ZSzfDrvXd6z9-84WiZO-232" value="" style="endArrow=none;html=1;rounded=0;" edge="1" parent="1">
          <mxGeometry width="50" height="50" relative="1" as="geometry">
            <mxPoint x="259" y="2490" as="sourcePoint" />
            <mxPoint x="215" y="2533" as="targetPoint" />
          </mxGeometry>
        </mxCell>
        <mxCell id="5ZSzfDrvXd6z9-84WiZO-233" value="nr_of_accesses" style="text;html=1;align=center;verticalAlign=middle;resizable=0;points=[];autosize=1;strokeColor=none;fillColor=none;" vertex="1" parent="1">
          <mxGeometry x="217" y="2452" width="110" height="30" as="geometry" />
        </mxCell>
        <mxCell id="5ZSzfDrvXd6z9-84WiZO-234" value="" style="ellipse;whiteSpace=wrap;html=1;fillColor=#FFFFFF;strokeColor=#330000;shadow=0;sketch=0;fillStyle=solid;strokeWidth=1;" vertex="1" parent="1">
          <mxGeometry x="248" y="2478" width="20" height="20" as="geometry" />
        </mxCell>
        <mxCell id="5ZSzfDrvXd6z9-84WiZO-235" value="" style="endArrow=none;html=1;rounded=0;" edge="1" parent="1">
          <mxGeometry width="50" height="50" relative="1" as="geometry">
            <mxPoint x="-58" y="2360" as="sourcePoint" />
            <mxPoint x="-131" y="2360" as="targetPoint" />
          </mxGeometry>
        </mxCell>
        <mxCell id="5ZSzfDrvXd6z9-84WiZO-236" value="" style="ellipse;whiteSpace=wrap;html=1;fillColor=#FFFFFF;strokeColor=#330000;shadow=0;sketch=0;fillStyle=solid;strokeWidth=1;" vertex="1" parent="1">
          <mxGeometry x="-141" y="2350" width="20" height="20" as="geometry" />
        </mxCell>
        <mxCell id="5ZSzfDrvXd6z9-84WiZO-237" value="enrollDate" style="text;html=1;align=center;verticalAlign=middle;resizable=0;points=[];autosize=1;strokeColor=none;fillColor=none;" vertex="1" parent="1">
          <mxGeometry x="-188" y="2365" width="80" height="30" as="geometry" />
        </mxCell>
        <mxCell id="5ZSzfDrvXd6z9-84WiZO-238" value="" style="ellipse;whiteSpace=wrap;html=1;fillColor=#FFFFFF;strokeColor=#330000;shadow=0;sketch=0;fillStyle=solid;strokeWidth=1;" vertex="1" parent="1">
          <mxGeometry x="495" y="2835" width="20" height="20" as="geometry" />
        </mxCell>
        <mxCell id="5ZSzfDrvXd6z9-84WiZO-240" value="" style="endArrow=none;html=1;rounded=0;" edge="1" parent="1">
          <mxGeometry width="50" height="50" relative="1" as="geometry">
            <mxPoint x="336" y="2816" as="sourcePoint" />
            <mxPoint x="260" y="2784" as="targetPoint" />
          </mxGeometry>
        </mxCell>
        <mxCell id="5ZSzfDrvXd6z9-84WiZO-241" value="" style="ellipse;whiteSpace=wrap;html=1;fillColor=#FFFFFF;strokeColor=#330000;shadow=0;sketch=0;fillStyle=solid;strokeWidth=1;" vertex="1" parent="1">
          <mxGeometry x="247" y="2772" width="20" height="20" as="geometry" />
        </mxCell>
        <mxCell id="5ZSzfDrvXd6z9-84WiZO-242" value="materialType" style="text;html=1;align=center;verticalAlign=middle;resizable=0;points=[];autosize=1;strokeColor=none;fillColor=none;flipV=1;" vertex="1" parent="1">
          <mxGeometry x="180" y="2748" width="90" height="30" as="geometry" />
        </mxCell>
        <mxCell id="5ZSzfDrvXd6z9-84WiZO-243" value="" style="edgeStyle=none;rounded=0;orthogonalLoop=1;jettySize=auto;html=1;exitX=0.094;exitY=-0.003;exitDx=0;exitDy=0;endArrow=none;exitPerimeter=0;" edge="1" parent="1" source="5ZSzfDrvXd6z9-84WiZO-63">
          <mxGeometry relative="1" as="geometry">
            <mxPoint x="-434" y="2467" as="targetPoint" />
            <mxPoint x="-411.98" y="2531.02" as="sourcePoint" />
          </mxGeometry>
        </mxCell>
        <mxCell id="5ZSzfDrvXd6z9-84WiZO-244" value="" style="ellipse;whiteSpace=wrap;html=1;fillColor=#FFFFFF;strokeColor=#330000;shadow=0;sketch=0;fillStyle=solid;strokeWidth=1;" vertex="1" parent="1">
          <mxGeometry x="-445" y="2451" width="20" height="20" as="geometry" />
        </mxCell>
        <mxCell id="5ZSzfDrvXd6z9-84WiZO-245" value="assessmentType" style="text;html=1;align=center;verticalAlign=middle;resizable=0;points=[];autosize=1;strokeColor=none;fillColor=none;" vertex="1" parent="1">
          <mxGeometry x="-543.5" y="2429" width="110" height="30" as="geometry" />
        </mxCell>
        <mxCell id="5ZSzfDrvXd6z9-84WiZO-247" value="" style="shape=waypoint;fillStyle=solid;size=6;pointerEvents=1;points=[];resizable=0;rotatable=0;perimeter=centerPerimeter;snapToPoint=1;strokeWidth=3;fillColor=none;strokeColor=default;perimeterSpacing=0;shadow=0;sketch=0;flipV=0;flipH=0;" vertex="1" parent="1">
          <mxGeometry x="-306" y="2541" width="20" height="20" as="geometry" />
        </mxCell>
        <mxCell id="5ZSzfDrvXd6z9-84WiZO-249" value="" style="shape=waypoint;fillStyle=solid;size=6;pointerEvents=1;points=[];resizable=0;rotatable=0;perimeter=centerPerimeter;snapToPoint=1;strokeWidth=3;fillColor=none;strokeColor=default;perimeterSpacing=0;shadow=0;sketch=0;flipV=0;flipH=0;" vertex="1" parent="1">
          <mxGeometry x="-438" y="2490" width="20" height="20" as="geometry" />
        </mxCell>
        <mxCell id="5ZSzfDrvXd6z9-84WiZO-250" value="FINAL ASSESSMENT" style="whiteSpace=wrap;html=1;align=center;shadow=0;sketch=0;fillStyle=solid;strokeColor=#330000;strokeWidth=1;fillColor=#FFFFFF;" vertex="1" parent="1">
          <mxGeometry x="-432.5" y="3486" width="100" height="40" as="geometry" />
        </mxCell>
        <mxCell id="5ZSzfDrvXd6z9-84WiZO-251" value="STUDENT" style="whiteSpace=wrap;html=1;align=center;shadow=0;sketch=0;fillStyle=solid;strokeColor=#330000;strokeWidth=1;fillColor=#FFFFFF;" vertex="1" parent="1">
          <mxGeometry x="-51" y="3180" width="100" height="40" as="geometry" />
        </mxCell>
        <mxCell id="5ZSzfDrvXd6z9-84WiZO-252" value="GRADING" style="shape=rhombus;perimeter=rhombusPerimeter;whiteSpace=wrap;html=1;align=center;shadow=0;sketch=0;fillStyle=solid;strokeColor=#330000;strokeWidth=1;fillColor=#FFFFFF;" vertex="1" parent="1">
          <mxGeometry x="-251.5" y="3476" width="120" height="60" as="geometry" />
        </mxCell>
        <mxCell id="5ZSzfDrvXd6z9-84WiZO-253" value="" style="endArrow=none;html=1;rounded=0;sourcePerimeterSpacing=0;" edge="1" parent="1">
          <mxGeometry relative="1" as="geometry">
            <mxPoint x="-251" y="3506" as="sourcePoint" />
            <mxPoint x="-332" y="3506" as="targetPoint" />
          </mxGeometry>
        </mxCell>
        <mxCell id="5ZSzfDrvXd6z9-84WiZO-254" value="(1, 1)" style="resizable=0;html=1;align=left;verticalAlign=bottom;shadow=0;sketch=0;fillStyle=solid;strokeColor=#330000;strokeWidth=1;fillColor=#FFFFFF;" connectable="0" vertex="1" parent="5ZSzfDrvXd6z9-84WiZO-253">
          <mxGeometry x="-1" relative="1" as="geometry">
            <mxPoint x="-80" y="-1" as="offset" />
          </mxGeometry>
        </mxCell>
        <mxCell id="5ZSzfDrvXd6z9-84WiZO-255" value="COURSE" style="whiteSpace=wrap;html=1;align=center;shadow=0;sketch=0;fillStyle=solid;strokeColor=#330000;strokeWidth=1;fillColor=#FFFFFF;" vertex="1" parent="1">
          <mxGeometry x="-47" y="3486" width="100" height="40" as="geometry" />
        </mxCell>
        <mxCell id="5ZSzfDrvXd6z9-84WiZO-256" value="" style="endArrow=none;html=1;rounded=0;" edge="1" parent="1">
          <mxGeometry relative="1" as="geometry">
            <mxPoint x="-132.5" y="3506" as="sourcePoint" />
            <mxPoint x="-47" y="3506" as="targetPoint" />
          </mxGeometry>
        </mxCell>
        <mxCell id="5ZSzfDrvXd6z9-84WiZO-257" value="(1, 1)" style="resizable=0;html=1;align=left;verticalAlign=bottom;shadow=0;sketch=0;fillStyle=solid;strokeColor=#330000;strokeWidth=1;fillColor=#FFFFFF;" connectable="0" vertex="1" parent="5ZSzfDrvXd6z9-84WiZO-256">
          <mxGeometry x="-1" relative="1" as="geometry">
            <mxPoint x="48" as="offset" />
          </mxGeometry>
        </mxCell>
        <mxCell id="5ZSzfDrvXd6z9-84WiZO-258" value="" style="endArrow=none;html=1;rounded=0;" edge="1" parent="1">
          <mxGeometry width="50" height="50" relative="1" as="geometry">
            <mxPoint x="-11" y="3426" as="sourcePoint" />
            <mxPoint x="-2.5000000000004547" y="3486" as="targetPoint" />
          </mxGeometry>
        </mxCell>
        <mxCell id="5ZSzfDrvXd6z9-84WiZO-259" value="" style="ellipse;whiteSpace=wrap;html=1;aspect=fixed;shadow=0;sketch=0;fillStyle=solid;strokeColor=#330000;strokeWidth=1;fillColor=#FFFFFF;flipV=0;flipH=1;perimeterSpacing=0;" vertex="1" parent="1">
          <mxGeometry x="-22.5" y="3411" width="20" height="20" as="geometry" />
        </mxCell>
        <mxCell id="5ZSzfDrvXd6z9-84WiZO-260" value="UNIT" style="whiteSpace=wrap;html=1;align=center;shadow=0;sketch=0;fillStyle=solid;strokeColor=#330000;strokeWidth=1;fillColor=#FFFFFF;" vertex="1" parent="1">
          <mxGeometry x="335.25" y="3486" width="100" height="40" as="geometry" />
        </mxCell>
        <mxCell id="5ZSzfDrvXd6z9-84WiZO-261" value="LEARNING" style="shape=rhombus;perimeter=rhombusPerimeter;whiteSpace=wrap;html=1;align=center;shadow=0;sketch=0;fillStyle=solid;strokeColor=#330000;strokeWidth=1;fillColor=#FFFFFF;" vertex="1" parent="1">
          <mxGeometry x="130.25" y="3476" width="120" height="60" as="geometry" />
        </mxCell>
        <mxCell id="5ZSzfDrvXd6z9-84WiZO-262" value="" style="endArrow=none;html=1;rounded=0;" edge="1" parent="1">
          <mxGeometry relative="1" as="geometry">
            <mxPoint x="52.75" y="3506" as="sourcePoint" />
            <mxPoint x="132.75" y="3506" as="targetPoint" />
          </mxGeometry>
        </mxCell>
        <mxCell id="5ZSzfDrvXd6z9-84WiZO-263" value="(1, N)" style="resizable=0;html=1;align=left;verticalAlign=bottom;shadow=0;sketch=0;fillStyle=solid;strokeColor=#330000;strokeWidth=1;fillColor=#FFFFFF;" connectable="0" vertex="1" parent="5ZSzfDrvXd6z9-84WiZO-262">
          <mxGeometry x="-1" relative="1" as="geometry">
            <mxPoint x="5" as="offset" />
          </mxGeometry>
        </mxCell>
        <mxCell id="5ZSzfDrvXd6z9-84WiZO-264" value="" style="endArrow=none;html=1;rounded=0;" edge="1" parent="1">
          <mxGeometry relative="1" as="geometry">
            <mxPoint x="249.75" y="3506" as="sourcePoint" />
            <mxPoint x="335.25" y="3506" as="targetPoint" />
          </mxGeometry>
        </mxCell>
        <mxCell id="5ZSzfDrvXd6z9-84WiZO-265" value="(1, 1)" style="resizable=0;html=1;align=left;verticalAlign=bottom;shadow=0;sketch=0;fillStyle=solid;strokeColor=#330000;strokeWidth=1;fillColor=#FFFFFF;" connectable="0" vertex="1" parent="5ZSzfDrvXd6z9-84WiZO-264">
          <mxGeometry x="-1" relative="1" as="geometry">
            <mxPoint x="47" as="offset" />
          </mxGeometry>
        </mxCell>
        <mxCell id="5ZSzfDrvXd6z9-84WiZO-266" style="edgeStyle=none;rounded=0;orthogonalLoop=1;jettySize=auto;html=1;exitX=0.75;exitY=0;exitDx=0;exitDy=0;startArrow=none;" edge="1" parent="1" source="5ZSzfDrvXd6z9-84WiZO-270">
          <mxGeometry relative="1" as="geometry">
            <mxPoint x="420.25" y="3426" as="targetPoint" />
          </mxGeometry>
        </mxCell>
        <mxCell id="5ZSzfDrvXd6z9-84WiZO-267" style="edgeStyle=none;rounded=0;orthogonalLoop=1;jettySize=auto;html=1;exitX=0.25;exitY=0;exitDx=0;exitDy=0;" edge="1" parent="1">
          <mxGeometry relative="1" as="geometry">
            <mxPoint x="360.25" y="3426" as="targetPoint" />
            <mxPoint x="365.25" y="3486" as="sourcePoint" />
          </mxGeometry>
        </mxCell>
        <mxCell id="5ZSzfDrvXd6z9-84WiZO-268" value="number" style="text;html=1;align=center;verticalAlign=middle;resizable=0;points=[];autosize=1;strokeColor=none;fillColor=none;" vertex="1" parent="1">
          <mxGeometry x="323" y="3392" width="60" height="30" as="geometry" />
        </mxCell>
        <mxCell id="5ZSzfDrvXd6z9-84WiZO-269" value="" style="edgeStyle=none;rounded=0;orthogonalLoop=1;jettySize=auto;html=1;exitX=0.75;exitY=0;exitDx=0;exitDy=0;endArrow=none;" edge="1" parent="1" target="5ZSzfDrvXd6z9-84WiZO-270">
          <mxGeometry relative="1" as="geometry">
            <mxPoint x="420.25" y="3426" as="targetPoint" />
            <mxPoint x="415.25" y="3486" as="sourcePoint" />
          </mxGeometry>
        </mxCell>
        <mxCell id="5ZSzfDrvXd6z9-84WiZO-270" value="" style="ellipse;whiteSpace=wrap;html=1;fillColor=#FFFFFF;strokeColor=#330000;shadow=0;sketch=0;fillStyle=solid;strokeWidth=1;" vertex="1" parent="1">
          <mxGeometry x="410.25" y="3416" width="20" height="20" as="geometry" />
        </mxCell>
        <mxCell id="5ZSzfDrvXd6z9-84WiZO-271" value="" style="ellipse;whiteSpace=wrap;html=1;fillColor=#FFFFFF;strokeColor=#330000;shadow=0;sketch=0;fillStyle=solid;strokeWidth=1;" vertex="1" parent="1">
          <mxGeometry x="350.25" y="3416" width="20" height="20" as="geometry" />
        </mxCell>
        <mxCell id="5ZSzfDrvXd6z9-84WiZO-272" value="name" style="text;html=1;align=center;verticalAlign=middle;resizable=0;points=[];autosize=1;strokeColor=none;fillColor=none;" vertex="1" parent="1">
          <mxGeometry x="433.25" y="3394" width="50" height="30" as="geometry" />
        </mxCell>
        <mxCell id="5ZSzfDrvXd6z9-84WiZO-273" value="" style="endArrow=none;html=1;rounded=0;" edge="1" parent="1">
          <mxGeometry relative="1" as="geometry">
            <mxPoint x="2.660000000000025" y="3220" as="sourcePoint" />
            <mxPoint x="2.660000000000025" y="3296" as="targetPoint" />
          </mxGeometry>
        </mxCell>
        <mxCell id="5ZSzfDrvXd6z9-84WiZO-274" value="(0, N)" style="resizable=0;html=1;align=left;verticalAlign=bottom;shadow=0;sketch=0;fillStyle=solid;strokeColor=#330000;strokeWidth=1;fillColor=#FFFFFF;" connectable="0" vertex="1" parent="5ZSzfDrvXd6z9-84WiZO-273">
          <mxGeometry x="-1" relative="1" as="geometry">
            <mxPoint x="1" y="19" as="offset" />
          </mxGeometry>
        </mxCell>
        <mxCell id="5ZSzfDrvXd6z9-84WiZO-275" value="" style="endArrow=none;html=1;rounded=0;entryX=-0.014;entryY=-0.133;entryDx=0;entryDy=0;entryPerimeter=0;exitX=1;exitY=0.25;exitDx=0;exitDy=0;" edge="1" parent="1" source="5ZSzfDrvXd6z9-84WiZO-251">
          <mxGeometry width="50" height="50" relative="1" as="geometry">
            <mxPoint x="49" y="3201" as="sourcePoint" />
            <mxPoint x="106.99000000000001" y="3173.99" as="targetPoint" />
          </mxGeometry>
        </mxCell>
        <mxCell id="5ZSzfDrvXd6z9-84WiZO-276" value="" style="ellipse;whiteSpace=wrap;html=1;aspect=fixed;shadow=0;sketch=0;fillStyle=solid;strokeColor=#330000;strokeWidth=1;fillColor=#000000;flipV=1;" vertex="1" parent="1">
          <mxGeometry x="104" y="3162" width="20" height="20" as="geometry" />
        </mxCell>
        <mxCell id="5ZSzfDrvXd6z9-84WiZO-277" value="studentID" style="text;html=1;align=center;verticalAlign=middle;resizable=0;points=[];autosize=1;strokeColor=none;fillColor=none;flipV=1;" vertex="1" parent="1">
          <mxGeometry x="121.25" y="3141.55" width="70" height="30" as="geometry" />
        </mxCell>
        <mxCell id="5ZSzfDrvXd6z9-84WiZO-278" value="" style="endArrow=none;html=1;rounded=0;" edge="1" parent="1">
          <mxGeometry relative="1" as="geometry">
            <mxPoint x="385.4100000000001" y="3609" as="sourcePoint" />
            <mxPoint x="385.4100000000001" y="3526" as="targetPoint" />
          </mxGeometry>
        </mxCell>
        <mxCell id="5ZSzfDrvXd6z9-84WiZO-279" value="(1, N)" style="resizable=0;html=1;align=left;verticalAlign=bottom;shadow=0;sketch=0;fillStyle=solid;strokeColor=#330000;strokeWidth=1;fillColor=#FFFFFF;" connectable="0" vertex="1" parent="5ZSzfDrvXd6z9-84WiZO-278">
          <mxGeometry x="-1" relative="1" as="geometry">
            <mxPoint x="1" y="-59" as="offset" />
          </mxGeometry>
        </mxCell>
        <mxCell id="5ZSzfDrvXd6z9-84WiZO-280" value="USING&lt;br&gt;RESOURCES" style="shape=rhombus;perimeter=rhombusPerimeter;whiteSpace=wrap;html=1;align=center;shadow=0;sketch=0;fillStyle=solid;strokeColor=#330000;strokeWidth=1;fillColor=#FFFFFF;" vertex="1" parent="1">
          <mxGeometry x="325" y="3609" width="120" height="60" as="geometry" />
        </mxCell>
        <mxCell id="5ZSzfDrvXd6z9-84WiZO-281" value="" style="endArrow=none;html=1;rounded=0;" edge="1" parent="1">
          <mxGeometry relative="1" as="geometry">
            <mxPoint x="385.4100000000001" y="3751" as="sourcePoint" />
            <mxPoint x="385.4100000000001" y="3669" as="targetPoint" />
          </mxGeometry>
        </mxCell>
        <mxCell id="5ZSzfDrvXd6z9-84WiZO-282" value="(1, 1)" style="resizable=0;html=1;align=left;verticalAlign=bottom;shadow=0;sketch=0;fillStyle=solid;strokeColor=#330000;strokeWidth=1;fillColor=#FFFFFF;" connectable="0" vertex="1" parent="5ZSzfDrvXd6z9-84WiZO-281">
          <mxGeometry x="-1" relative="1" as="geometry">
            <mxPoint x="1" y="-2" as="offset" />
          </mxGeometry>
        </mxCell>
        <mxCell id="5ZSzfDrvXd6z9-84WiZO-283" value="LEARNING MATERIAL" style="whiteSpace=wrap;html=1;align=center;shadow=0;sketch=0;fillStyle=solid;strokeColor=#330000;strokeWidth=1;fillColor=#FFFFFF;" vertex="1" parent="1">
          <mxGeometry x="336" y="3752" width="100" height="40" as="geometry" />
        </mxCell>
        <mxCell id="5ZSzfDrvXd6z9-84WiZO-284" value="description" style="text;html=1;align=center;verticalAlign=middle;resizable=0;points=[];autosize=1;strokeColor=none;fillColor=none;" vertex="1" parent="1">
          <mxGeometry x="491.5" y="3672" width="80" height="30" as="geometry" />
        </mxCell>
        <mxCell id="5ZSzfDrvXd6z9-84WiZO-285" value="" style="edgeStyle=none;rounded=0;orthogonalLoop=1;jettySize=auto;html=1;exitX=0.75;exitY=0;exitDx=0;exitDy=0;endArrow=none;entryX=0;entryY=1;entryDx=0;entryDy=0;" edge="1" parent="1">
          <mxGeometry relative="1" as="geometry">
            <mxPoint x="489.9289321881347" y="3709.0710678118653" as="targetPoint" />
            <mxPoint x="433" y="3752" as="sourcePoint" />
          </mxGeometry>
        </mxCell>
        <mxCell id="5ZSzfDrvXd6z9-84WiZO-286" value="dimension&lt;br style=&quot;border-color: var(--border-color);&quot;&gt;(minutes /&amp;nbsp;nr_of_pages / nr_of_questions)" style="text;html=1;align=center;verticalAlign=middle;resizable=0;points=[];autosize=1;strokeColor=none;fillColor=none;flipV=1;" vertex="1" parent="1">
          <mxGeometry x="431" y="3796" width="250" height="40" as="geometry" />
        </mxCell>
        <mxCell id="5ZSzfDrvXd6z9-84WiZO-287" value="" style="edgeStyle=none;rounded=0;orthogonalLoop=1;jettySize=auto;html=1;exitX=0.75;exitY=0;exitDx=0;exitDy=0;endArrow=none;" edge="1" parent="1">
          <mxGeometry relative="1" as="geometry">
            <mxPoint x="502" y="3802.000000000001" as="targetPoint" />
            <mxPoint x="436" y="3776.000000000001" as="sourcePoint" />
          </mxGeometry>
        </mxCell>
        <mxCell id="5ZSzfDrvXd6z9-84WiZO-288" value="" style="endArrow=none;html=1;rounded=0;" edge="1" parent="1">
          <mxGeometry width="50" height="50" relative="1" as="geometry">
            <mxPoint x="356" y="3752" as="sourcePoint" />
            <mxPoint x="312" y="3701" as="targetPoint" />
          </mxGeometry>
        </mxCell>
        <mxCell id="5ZSzfDrvXd6z9-84WiZO-289" value="" style="ellipse;whiteSpace=wrap;html=1;fillColor=#FFFFFF;strokeColor=#330000;shadow=0;sketch=0;fillStyle=solid;strokeWidth=1;" vertex="1" parent="1">
          <mxGeometry x="297" y="3682" width="20" height="20" as="geometry" />
        </mxCell>
        <mxCell id="5ZSzfDrvXd6z9-84WiZO-290" value="name" style="text;html=1;align=center;verticalAlign=middle;resizable=0;points=[];autosize=1;strokeColor=none;fillColor=none;flipV=1;" vertex="1" parent="1">
          <mxGeometry x="253" y="3669" width="50" height="30" as="geometry" />
        </mxCell>
        <mxCell id="5ZSzfDrvXd6z9-84WiZO-291" value="" style="endArrow=none;html=1;rounded=0;" edge="1" parent="1">
          <mxGeometry width="50" height="50" relative="1" as="geometry">
            <mxPoint x="447" y="3576" as="sourcePoint" />
            <mxPoint x="411" y="3622" as="targetPoint" />
          </mxGeometry>
        </mxCell>
        <mxCell id="5ZSzfDrvXd6z9-84WiZO-292" value="" style="ellipse;whiteSpace=wrap;html=1;fillColor=#FFFFFF;strokeColor=#330000;shadow=0;sketch=0;fillStyle=solid;strokeWidth=1;" vertex="1" parent="1">
          <mxGeometry x="439" y="3559" width="20" height="20" as="geometry" />
        </mxCell>
        <mxCell id="5ZSzfDrvXd6z9-84WiZO-293" value="accessDate" style="text;html=1;align=center;verticalAlign=middle;resizable=0;points=[];autosize=1;strokeColor=none;fillColor=none;" vertex="1" parent="1">
          <mxGeometry x="442.5" y="3536" width="90" height="30" as="geometry" />
        </mxCell>
        <mxCell id="5ZSzfDrvXd6z9-84WiZO-294" value="" style="endArrow=none;html=1;rounded=0;" edge="1" parent="1">
          <mxGeometry width="50" height="50" relative="1" as="geometry">
            <mxPoint x="49" y="3486" as="sourcePoint" />
            <mxPoint x="56" y="3430" as="targetPoint" />
          </mxGeometry>
        </mxCell>
        <mxCell id="5ZSzfDrvXd6z9-84WiZO-295" value="" style="ellipse;whiteSpace=wrap;html=1;aspect=fixed;shadow=0;sketch=0;fillStyle=solid;strokeColor=#330000;strokeWidth=1;fillColor=#FFFFFF;" vertex="1" parent="1">
          <mxGeometry x="48" y="3411" width="20" height="20" as="geometry" />
        </mxCell>
        <mxCell id="5ZSzfDrvXd6z9-84WiZO-296" value="courseYear" style="text;html=1;align=center;verticalAlign=middle;resizable=0;points=[];autosize=1;strokeColor=none;fillColor=none;" vertex="1" parent="1">
          <mxGeometry x="58" y="3389" width="80" height="30" as="geometry" />
        </mxCell>
        <mxCell id="5ZSzfDrvXd6z9-84WiZO-301" value="nr_of_attempts" style="text;html=1;align=center;verticalAlign=middle;resizable=0;points=[];autosize=1;strokeColor=none;fillColor=none;" vertex="1" parent="1">
          <mxGeometry x="-243" y="3608" width="100" height="30" as="geometry" />
        </mxCell>
        <mxCell id="5ZSzfDrvXd6z9-84WiZO-302" value="" style="edgeStyle=none;rounded=0;orthogonalLoop=1;jettySize=auto;html=1;exitX=0.5;exitY=0;exitDx=0;exitDy=0;endArrow=none;" edge="1" parent="1" source="5ZSzfDrvXd6z9-84WiZO-250">
          <mxGeometry relative="1" as="geometry">
            <mxPoint x="-382" y="3422" as="targetPoint" />
            <mxPoint x="-384" y="3486" as="sourcePoint" />
          </mxGeometry>
        </mxCell>
        <mxCell id="5ZSzfDrvXd6z9-84WiZO-303" value="" style="ellipse;whiteSpace=wrap;html=1;fillColor=#FFFFFF;strokeColor=#330000;shadow=0;sketch=0;fillStyle=solid;strokeWidth=1;" vertex="1" parent="1">
          <mxGeometry x="-392" y="3412" width="20" height="20" as="geometry" />
        </mxCell>
        <mxCell id="5ZSzfDrvXd6z9-84WiZO-304" value="assessmentType" style="text;html=1;align=center;verticalAlign=middle;resizable=0;points=[];autosize=1;strokeColor=none;fillColor=none;" vertex="1" parent="1">
          <mxGeometry x="-437.5" y="3384" width="110" height="30" as="geometry" />
        </mxCell>
        <mxCell id="5ZSzfDrvXd6z9-84WiZO-305" value="attemptDate" style="text;html=1;align=center;verticalAlign=middle;resizable=0;points=[];autosize=1;strokeColor=none;fillColor=none;" vertex="1" parent="1">
          <mxGeometry x="-147" y="3560" width="90" height="30" as="geometry" />
        </mxCell>
        <mxCell id="5ZSzfDrvXd6z9-84WiZO-306" value="" style="ellipse;whiteSpace=wrap;html=1;fillColor=#FFFFFF;strokeColor=#330000;shadow=0;sketch=0;fillStyle=solid;strokeWidth=1;" vertex="1" parent="1">
          <mxGeometry x="-157" y="3577" width="20" height="20" as="geometry" />
        </mxCell>
        <mxCell id="5ZSzfDrvXd6z9-84WiZO-307" value="" style="edgeStyle=none;rounded=0;orthogonalLoop=1;jettySize=auto;html=1;exitX=0.75;exitY=0;exitDx=0;exitDy=0;endArrow=none;" edge="1" parent="1">
          <mxGeometry relative="1" as="geometry">
            <mxPoint x="-149" y="3578" as="targetPoint" />
            <mxPoint x="-163" y="3522" as="sourcePoint" />
          </mxGeometry>
        </mxCell>
        <mxCell id="5ZSzfDrvXd6z9-84WiZO-308" value="courseName" style="text;html=1;align=center;verticalAlign=middle;resizable=0;points=[];autosize=1;strokeColor=none;fillColor=none;" vertex="1" parent="1">
          <mxGeometry x="-38" y="3384" width="90" height="30" as="geometry" />
        </mxCell>
        <mxCell id="5ZSzfDrvXd6z9-84WiZO-309" value="INSTRUCTOR" style="whiteSpace=wrap;html=1;align=center;shadow=0;sketch=0;fillStyle=solid;strokeColor=#330000;strokeWidth=1;fillColor=#FFFFFF;" vertex="1" parent="1">
          <mxGeometry x="-52.5" y="3726" width="100" height="40" as="geometry" />
        </mxCell>
        <mxCell id="5ZSzfDrvXd6z9-84WiZO-310" value="TEACHING" style="shape=rhombus;perimeter=rhombusPerimeter;whiteSpace=wrap;html=1;align=center;shadow=0;sketch=0;fillStyle=solid;strokeColor=#330000;strokeWidth=1;fillColor=#FFFFFF;" vertex="1" parent="1">
          <mxGeometry x="-62.5" y="3596" width="120" height="60" as="geometry" />
        </mxCell>
        <mxCell id="5ZSzfDrvXd6z9-84WiZO-311" value="" style="endArrow=none;html=1;rounded=0;" edge="1" parent="1">
          <mxGeometry relative="1" as="geometry">
            <mxPoint x="-2.5" y="3526" as="sourcePoint" />
            <mxPoint x="-2.5" y="3596" as="targetPoint" />
          </mxGeometry>
        </mxCell>
        <mxCell id="5ZSzfDrvXd6z9-84WiZO-312" value="" style="endArrow=none;html=1;rounded=0;" edge="1" parent="1">
          <mxGeometry relative="1" as="geometry">
            <mxPoint x="-2.5" y="3656" as="sourcePoint" />
            <mxPoint x="-2.5" y="3726" as="targetPoint" />
          </mxGeometry>
        </mxCell>
        <mxCell id="5ZSzfDrvXd6z9-84WiZO-313" value="" style="endArrow=none;html=1;rounded=0;" edge="1" parent="1">
          <mxGeometry width="50" height="50" relative="1" as="geometry">
            <mxPoint x="33" y="3526" as="sourcePoint" />
            <mxPoint x="57" y="3575" as="targetPoint" />
          </mxGeometry>
        </mxCell>
        <mxCell id="5ZSzfDrvXd6z9-84WiZO-314" value="" style="ellipse;whiteSpace=wrap;html=1;aspect=fixed;shadow=0;sketch=0;fillStyle=solid;strokeColor=#330000;strokeWidth=1;fillColor=#FFFFFF;" vertex="1" parent="1">
          <mxGeometry x="48.5" y="3575" width="20" height="20" as="geometry" />
        </mxCell>
        <mxCell id="5ZSzfDrvXd6z9-84WiZO-315" value="syllabus" style="text;html=1;align=center;verticalAlign=middle;resizable=0;points=[];autosize=1;strokeColor=none;fillColor=none;" vertex="1" parent="1">
          <mxGeometry x="58" y="3562" width="70" height="30" as="geometry" />
        </mxCell>
        <mxCell id="5ZSzfDrvXd6z9-84WiZO-316" value="firstName" style="text;html=1;align=center;verticalAlign=middle;resizable=0;points=[];autosize=1;strokeColor=none;fillColor=none;flipV=1;" vertex="1" parent="1">
          <mxGeometry x="-118" y="3840" width="70" height="30" as="geometry" />
        </mxCell>
        <mxCell id="5ZSzfDrvXd6z9-84WiZO-317" value="" style="edgeStyle=none;rounded=0;orthogonalLoop=1;jettySize=auto;html=1;exitX=0.75;exitY=0;exitDx=0;exitDy=0;endArrow=none;" edge="1" parent="1">
          <mxGeometry relative="1" as="geometry">
            <mxPoint x="58.93861533935433" y="3789.138115486453" as="targetPoint" />
            <mxPoint x="58" y="3789.9754676049874" as="sourcePoint" />
          </mxGeometry>
        </mxCell>
        <mxCell id="5ZSzfDrvXd6z9-84WiZO-318" value="genre" style="text;html=1;align=center;verticalAlign=middle;resizable=0;points=[];autosize=1;strokeColor=none;fillColor=none;flipV=1;" vertex="1" parent="1">
          <mxGeometry x="52" y="3839" width="50" height="30" as="geometry" />
        </mxCell>
        <mxCell id="5ZSzfDrvXd6z9-84WiZO-319" value="" style="edgeStyle=none;rounded=0;orthogonalLoop=1;jettySize=auto;html=1;endArrow=none;" edge="1" parent="1">
          <mxGeometry relative="1" as="geometry">
            <mxPoint x="-3" y="3830" as="targetPoint" />
            <mxPoint x="-3" y="3766" as="sourcePoint" />
          </mxGeometry>
        </mxCell>
        <mxCell id="5ZSzfDrvXd6z9-84WiZO-320" value="" style="ellipse;whiteSpace=wrap;html=1;fillColor=#FFFFFF;strokeColor=#330000;shadow=0;sketch=0;fillStyle=solid;strokeWidth=1;flipV=1;" vertex="1" parent="1">
          <mxGeometry x="-13" y="3827" width="20" height="20" as="geometry" />
        </mxCell>
        <mxCell id="5ZSzfDrvXd6z9-84WiZO-321" value="lastName" style="text;html=1;align=center;verticalAlign=middle;resizable=0;points=[];autosize=1;strokeColor=none;fillColor=none;flipV=1;" vertex="1" parent="1">
          <mxGeometry x="-34" y="3840" width="70" height="30" as="geometry" />
        </mxCell>
        <mxCell id="5ZSzfDrvXd6z9-84WiZO-322" value="" style="edgeStyle=none;rounded=0;orthogonalLoop=1;jettySize=auto;html=1;exitX=0.75;exitY=0;exitDx=0;exitDy=0;endArrow=none;entryX=0;entryY=0;entryDx=0;entryDy=0;" edge="1" parent="1">
          <mxGeometry relative="1" as="geometry">
            <mxPoint x="-57.07106781186576" y="3827.9289321881342" as="targetPoint" />
            <mxPoint x="-52" y="3765" as="sourcePoint" />
          </mxGeometry>
        </mxCell>
        <mxCell id="5ZSzfDrvXd6z9-84WiZO-323" value="" style="ellipse;whiteSpace=wrap;html=1;fillColor=#FFFFFF;strokeColor=#330000;shadow=0;sketch=0;fillStyle=solid;strokeWidth=1;flipV=1;" vertex="1" parent="1">
          <mxGeometry x="-67" y="3825" width="20" height="20" as="geometry" />
        </mxCell>
        <mxCell id="5ZSzfDrvXd6z9-84WiZO-324" value="" style="edgeStyle=none;rounded=0;orthogonalLoop=1;jettySize=auto;html=1;exitX=0.75;exitY=0;exitDx=0;exitDy=0;endArrow=none;entryX=1;entryY=0;entryDx=0;entryDy=0;" edge="1" parent="1">
          <mxGeometry relative="1" as="geometry">
            <mxPoint x="57.07106781186576" y="3828.9289321881342" as="targetPoint" />
            <mxPoint x="48" y="3766" as="sourcePoint" />
          </mxGeometry>
        </mxCell>
        <mxCell id="5ZSzfDrvXd6z9-84WiZO-325" value="" style="ellipse;whiteSpace=wrap;html=1;fillColor=#FFFFFF;strokeColor=#330000;shadow=0;sketch=0;fillStyle=solid;strokeWidth=1;flipV=1;" vertex="1" parent="1">
          <mxGeometry x="48" y="3826" width="20" height="20" as="geometry" />
        </mxCell>
        <mxCell id="5ZSzfDrvXd6z9-84WiZO-326" value="(1, N)" style="resizable=0;html=1;align=left;verticalAlign=bottom;shadow=0;sketch=0;fillStyle=solid;strokeColor=#330000;strokeWidth=1;fillColor=#FFFFFF;" connectable="0" vertex="1" parent="1">
          <mxGeometry x="-38" y="3548" as="geometry" />
        </mxCell>
        <mxCell id="5ZSzfDrvXd6z9-84WiZO-327" value="(1, N)" style="resizable=0;html=1;align=left;verticalAlign=bottom;shadow=0;sketch=0;fillStyle=solid;strokeColor=#330000;strokeWidth=1;fillColor=#FFFFFF;" connectable="0" vertex="1" parent="1">
          <mxGeometry x="-38" y="3722" as="geometry" />
        </mxCell>
        <mxCell id="5ZSzfDrvXd6z9-84WiZO-328" style="edgeStyle=none;rounded=0;orthogonalLoop=1;jettySize=auto;html=1;exitX=0.25;exitY=0;exitDx=0;exitDy=0;" edge="1" parent="1">
          <mxGeometry relative="1" as="geometry">
            <mxPoint x="-54" y="3120" as="targetPoint" />
            <mxPoint x="-49" y="3180" as="sourcePoint" />
          </mxGeometry>
        </mxCell>
        <mxCell id="5ZSzfDrvXd6z9-84WiZO-329" value="firstName" style="text;html=1;align=center;verticalAlign=middle;resizable=0;points=[];autosize=1;strokeColor=none;fillColor=none;" vertex="1" parent="1">
          <mxGeometry x="-114" y="3082" width="70" height="30" as="geometry" />
        </mxCell>
        <mxCell id="5ZSzfDrvXd6z9-84WiZO-330" value="" style="edgeStyle=none;rounded=0;orthogonalLoop=1;jettySize=auto;html=1;exitX=1;exitY=0;exitDx=0;exitDy=0;endArrow=none;" edge="1" parent="1" target="5ZSzfDrvXd6z9-84WiZO-331">
          <mxGeometry relative="1" as="geometry">
            <mxPoint x="53" y="3120" as="targetPoint" />
            <mxPoint x="48" y="3180" as="sourcePoint" />
          </mxGeometry>
        </mxCell>
        <mxCell id="5ZSzfDrvXd6z9-84WiZO-331" value="" style="ellipse;whiteSpace=wrap;html=1;fillColor=#FFFFFF;strokeColor=#330000;shadow=0;sketch=0;fillStyle=solid;strokeWidth=1;" vertex="1" parent="1">
          <mxGeometry x="43" y="3110" width="20" height="20" as="geometry" />
        </mxCell>
        <mxCell id="5ZSzfDrvXd6z9-84WiZO-332" value="" style="ellipse;whiteSpace=wrap;html=1;fillColor=#FFFFFF;strokeColor=#330000;shadow=0;sketch=0;fillStyle=solid;strokeWidth=1;" vertex="1" parent="1">
          <mxGeometry x="-64" y="3110" width="20" height="20" as="geometry" />
        </mxCell>
        <mxCell id="5ZSzfDrvXd6z9-84WiZO-333" value="genre" style="text;html=1;align=center;verticalAlign=middle;resizable=0;points=[];autosize=1;strokeColor=none;fillColor=none;" vertex="1" parent="1">
          <mxGeometry x="56" y="3082" width="50" height="30" as="geometry" />
        </mxCell>
        <mxCell id="5ZSzfDrvXd6z9-84WiZO-334" value="" style="edgeStyle=none;rounded=0;orthogonalLoop=1;jettySize=auto;html=1;exitX=0.75;exitY=0;exitDx=0;exitDy=0;endArrow=none;" edge="1" parent="1">
          <mxGeometry relative="1" as="geometry">
            <mxPoint x="1" y="3116" as="targetPoint" />
            <mxPoint x="-1" y="3180" as="sourcePoint" />
          </mxGeometry>
        </mxCell>
        <mxCell id="5ZSzfDrvXd6z9-84WiZO-335" value="" style="ellipse;whiteSpace=wrap;html=1;fillColor=#FFFFFF;strokeColor=#330000;shadow=0;sketch=0;fillStyle=solid;strokeWidth=1;" vertex="1" parent="1">
          <mxGeometry x="-9" y="3106" width="20" height="20" as="geometry" />
        </mxCell>
        <mxCell id="5ZSzfDrvXd6z9-84WiZO-336" value="lastName" style="text;html=1;align=center;verticalAlign=middle;resizable=0;points=[];autosize=1;strokeColor=none;fillColor=none;" vertex="1" parent="1">
          <mxGeometry x="-30" y="3078" width="70" height="30" as="geometry" />
        </mxCell>
        <mxCell id="5ZSzfDrvXd6z9-84WiZO-337" value="" style="endArrow=none;html=1;rounded=0;entryX=1;entryY=0.5;entryDx=0;entryDy=0;" edge="1" parent="1">
          <mxGeometry width="50" height="50" relative="1" as="geometry">
            <mxPoint x="-51" y="3192" as="sourcePoint" />
            <mxPoint x="-107" y="3165" as="targetPoint" />
          </mxGeometry>
        </mxCell>
        <mxCell id="5ZSzfDrvXd6z9-84WiZO-338" value="" style="endArrow=none;html=1;rounded=0;" edge="1" parent="1">
          <mxGeometry width="50" height="50" relative="1" as="geometry">
            <mxPoint x="-51" y="3220" as="sourcePoint" />
            <mxPoint x="-111" y="3245" as="targetPoint" />
          </mxGeometry>
        </mxCell>
        <mxCell id="5ZSzfDrvXd6z9-84WiZO-339" value="" style="ellipse;whiteSpace=wrap;html=1;fillColor=#FFFFFF;strokeColor=#330000;shadow=0;sketch=0;fillStyle=solid;strokeWidth=1;" vertex="1" parent="1">
          <mxGeometry x="-126" y="3236" width="20" height="20" as="geometry" />
        </mxCell>
        <mxCell id="5ZSzfDrvXd6z9-84WiZO-340" value="" style="endArrow=none;html=1;rounded=0;entryX=-0.014;entryY=-0.133;entryDx=0;entryDy=0;entryPerimeter=0;" edge="1" parent="1">
          <mxGeometry width="50" height="50" relative="1" as="geometry">
            <mxPoint x="106.98999999999978" y="3247" as="sourcePoint" />
            <mxPoint x="48.99999999999977" y="3219.99" as="targetPoint" />
          </mxGeometry>
        </mxCell>
        <mxCell id="5ZSzfDrvXd6z9-84WiZO-341" value="" style="ellipse;whiteSpace=wrap;html=1;fillColor=#FFFFFF;strokeColor=#330000;shadow=0;sketch=0;fillStyle=solid;strokeWidth=1;" vertex="1" parent="1">
          <mxGeometry x="101.25" y="3239" width="20" height="20" as="geometry" />
        </mxCell>
        <mxCell id="5ZSzfDrvXd6z9-84WiZO-342" value="" style="ellipse;whiteSpace=wrap;html=1;fillColor=#FFFFFF;strokeColor=#330000;shadow=0;sketch=0;fillStyle=solid;strokeWidth=1;" vertex="1" parent="1">
          <mxGeometry x="-127" y="3150" width="20" height="20" as="geometry" />
        </mxCell>
        <mxCell id="5ZSzfDrvXd6z9-84WiZO-343" value="dateOfBirth" style="text;html=1;align=center;verticalAlign=middle;resizable=0;points=[];autosize=1;strokeColor=none;fillColor=none;" vertex="1" parent="1">
          <mxGeometry x="-198" y="3131" width="80" height="30" as="geometry" />
        </mxCell>
        <mxCell id="5ZSzfDrvXd6z9-84WiZO-344" value="town" style="text;html=1;align=center;verticalAlign=middle;resizable=0;points=[];autosize=1;strokeColor=none;fillColor=none;" vertex="1" parent="1">
          <mxGeometry x="-154" y="3249" width="50" height="30" as="geometry" />
        </mxCell>
        <mxCell id="5ZSzfDrvXd6z9-84WiZO-345" value="country" style="text;html=1;align=center;verticalAlign=middle;resizable=0;points=[];autosize=1;strokeColor=none;fillColor=none;" vertex="1" parent="1">
          <mxGeometry x="52" y="3248" width="60" height="30" as="geometry" />
        </mxCell>
        <mxCell id="5ZSzfDrvXd6z9-84WiZO-346" value="" style="edgeStyle=none;rounded=0;orthogonalLoop=1;jettySize=auto;html=1;exitX=0.421;exitY=0.667;exitDx=0;exitDy=0;endArrow=none;exitPerimeter=0;" edge="1" parent="1">
          <mxGeometry relative="1" as="geometry">
            <mxPoint x="-241" y="3426" as="targetPoint" />
            <mxPoint x="-218.98000000000002" y="3490.02" as="sourcePoint" />
          </mxGeometry>
        </mxCell>
        <mxCell id="5ZSzfDrvXd6z9-84WiZO-347" value="" style="ellipse;whiteSpace=wrap;html=1;fillColor=#FFFFFF;strokeColor=#330000;shadow=0;sketch=0;fillStyle=solid;strokeWidth=1;flipH=1;" vertex="1" parent="1">
          <mxGeometry x="-250.5" y="3414" width="20" height="20" as="geometry" />
        </mxCell>
        <mxCell id="5ZSzfDrvXd6z9-84WiZO-348" value="minScore" style="text;html=1;align=center;verticalAlign=middle;resizable=0;points=[];autosize=1;strokeColor=none;fillColor=none;flipH=1;" vertex="1" parent="1">
          <mxGeometry x="-267" y="3388" width="70" height="30" as="geometry" />
        </mxCell>
        <mxCell id="5ZSzfDrvXd6z9-84WiZO-349" value="" style="edgeStyle=none;rounded=0;orthogonalLoop=1;jettySize=auto;html=1;exitX=0.421;exitY=0.667;exitDx=0;exitDy=0;endArrow=none;exitPerimeter=0;" edge="1" parent="1">
          <mxGeometry relative="1" as="geometry">
            <mxPoint x="-139.98000000000002" y="3427" as="targetPoint" />
            <mxPoint x="-162" y="3491.02" as="sourcePoint" />
          </mxGeometry>
        </mxCell>
        <mxCell id="5ZSzfDrvXd6z9-84WiZO-350" value="" style="ellipse;whiteSpace=wrap;html=1;fillColor=#FFFFFF;strokeColor=#330000;shadow=0;sketch=0;fillStyle=solid;strokeWidth=1;flipH=1;" vertex="1" parent="1">
          <mxGeometry x="-150.5" y="3414" width="20" height="20" as="geometry" />
        </mxCell>
        <mxCell id="5ZSzfDrvXd6z9-84WiZO-351" value="maxScore" style="text;html=1;align=center;verticalAlign=middle;resizable=0;points=[];autosize=1;strokeColor=none;fillColor=none;flipH=1;" vertex="1" parent="1">
          <mxGeometry x="-192" y="3388" width="80" height="30" as="geometry" />
        </mxCell>
        <mxCell id="5ZSzfDrvXd6z9-84WiZO-352" value="" style="edgeStyle=none;rounded=0;orthogonalLoop=1;jettySize=auto;html=1;exitX=0.75;exitY=0;exitDx=0;exitDy=0;endArrow=none;" edge="1" parent="1" target="5ZSzfDrvXd6z9-84WiZO-353">
          <mxGeometry relative="1" as="geometry">
            <mxPoint x="436" y="3428.94572445643" as="targetPoint" />
            <mxPoint x="435" y="3492.94572445643" as="sourcePoint" />
          </mxGeometry>
        </mxCell>
        <mxCell id="5ZSzfDrvXd6z9-84WiZO-353" value="" style="ellipse;whiteSpace=wrap;html=1;fillColor=#FFFFFF;strokeColor=#330000;shadow=0;sketch=0;fillStyle=solid;strokeWidth=1;flipV=1;" vertex="1" parent="1">
          <mxGeometry x="493.5" y="3466" width="20" height="20" as="geometry" />
        </mxCell>
        <mxCell id="5ZSzfDrvXd6z9-84WiZO-354" value="learning_goals" style="text;html=1;align=center;verticalAlign=middle;resizable=0;points=[];autosize=1;strokeColor=none;fillColor=none;" vertex="1" parent="1">
          <mxGeometry x="489" y="3442" width="100" height="30" as="geometry" />
        </mxCell>
        <mxCell id="5ZSzfDrvXd6z9-84WiZO-355" value="" style="ellipse;whiteSpace=wrap;html=1;fillColor=#FFFFFF;strokeColor=#330000;shadow=0;sketch=0;fillStyle=solid;strokeWidth=1;" vertex="1" parent="1">
          <mxGeometry x="486" y="3694" width="20" height="20" as="geometry" />
        </mxCell>
        <mxCell id="5ZSzfDrvXd6z9-84WiZO-356" value="accessDate" style="text;html=1;align=center;verticalAlign=middle;resizable=0;points=[];autosize=1;strokeColor=none;fillColor=none;" vertex="1" parent="1">
          <mxGeometry x="86" y="3590" width="90" height="30" as="geometry" />
        </mxCell>
        <mxCell id="5ZSzfDrvXd6z9-84WiZO-357" value="accessStart" style="text;html=1;align=center;verticalAlign=middle;resizable=0;points=[];autosize=1;strokeColor=none;fillColor=none;" vertex="1" parent="1">
          <mxGeometry x="163" y="3606" width="90" height="30" as="geometry" />
        </mxCell>
        <mxCell id="5ZSzfDrvXd6z9-84WiZO-358" value="" style="endArrow=none;html=1;rounded=0;" edge="1" parent="1" source="5ZSzfDrvXd6z9-84WiZO-361">
          <mxGeometry width="50" height="50" relative="1" as="geometry">
            <mxPoint x="48.00000000000091" y="3746" as="sourcePoint" />
            <mxPoint x="121.00000000000091" y="3746" as="targetPoint" />
          </mxGeometry>
        </mxCell>
        <mxCell id="5ZSzfDrvXd6z9-84WiZO-359" value="instructorID" style="text;html=1;align=center;verticalAlign=middle;resizable=0;points=[];autosize=1;strokeColor=none;fillColor=none;" vertex="1" parent="1">
          <mxGeometry x="113" y="3749" width="80" height="30" as="geometry" />
        </mxCell>
        <mxCell id="5ZSzfDrvXd6z9-84WiZO-360" value="" style="endArrow=none;html=1;rounded=0;" edge="1" parent="1" target="5ZSzfDrvXd6z9-84WiZO-361">
          <mxGeometry width="50" height="50" relative="1" as="geometry">
            <mxPoint x="48.00000000000091" y="3746" as="sourcePoint" />
            <mxPoint x="121.00000000000091" y="3746" as="targetPoint" />
          </mxGeometry>
        </mxCell>
        <mxCell id="5ZSzfDrvXd6z9-84WiZO-361" value="" style="ellipse;whiteSpace=wrap;html=1;aspect=fixed;shadow=0;sketch=0;fillStyle=solid;strokeColor=#330000;strokeWidth=1;fillColor=#000000;" vertex="1" parent="1">
          <mxGeometry x="109" y="3735" width="20" height="20" as="geometry" />
        </mxCell>
        <mxCell id="5ZSzfDrvXd6z9-84WiZO-362" value="" style="edgeStyle=none;rounded=0;orthogonalLoop=1;jettySize=auto;html=1;exitX=0.5;exitY=1;exitDx=0;exitDy=0;endArrow=none;" edge="1" parent="1" source="5ZSzfDrvXd6z9-84WiZO-261">
          <mxGeometry relative="1" as="geometry">
            <mxPoint x="190" y="3596" as="targetPoint" />
            <mxPoint x="196" y="3533" as="sourcePoint" />
          </mxGeometry>
        </mxCell>
        <mxCell id="5ZSzfDrvXd6z9-84WiZO-363" value="" style="ellipse;whiteSpace=wrap;html=1;fillColor=#FFFFFF;strokeColor=#330000;shadow=0;sketch=0;fillStyle=solid;strokeWidth=1;" vertex="1" parent="1">
          <mxGeometry x="179" y="3589" width="20" height="20" as="geometry" />
        </mxCell>
        <mxCell id="5ZSzfDrvXd6z9-84WiZO-364" value="" style="edgeStyle=none;rounded=0;orthogonalLoop=1;jettySize=auto;html=1;endArrow=none;entryX=0;entryY=0;entryDx=0;entryDy=0;" edge="1" parent="1">
          <mxGeometry relative="1" as="geometry">
            <mxPoint x="144.9289321882493" y="3578.9289321882493" as="targetPoint" />
            <mxPoint x="159" y="3520" as="sourcePoint" />
          </mxGeometry>
        </mxCell>
        <mxCell id="5ZSzfDrvXd6z9-84WiZO-365" value="accessEnd" style="text;html=1;align=center;verticalAlign=middle;resizable=0;points=[];autosize=1;strokeColor=none;fillColor=none;" vertex="1" parent="1">
          <mxGeometry x="239.5" y="3585" width="80" height="30" as="geometry" />
        </mxCell>
        <mxCell id="5ZSzfDrvXd6z9-84WiZO-366" value="" style="endArrow=none;html=1;rounded=0;" edge="1" parent="1">
          <mxGeometry relative="1" as="geometry">
            <mxPoint x="-191" y="3477" as="sourcePoint" />
            <mxPoint x="-51" y="3198" as="targetPoint" />
            <Array as="points">
              <mxPoint x="-191" y="3197" />
            </Array>
          </mxGeometry>
        </mxCell>
        <mxCell id="5ZSzfDrvXd6z9-84WiZO-367" value="" style="endArrow=none;html=1;rounded=0;" edge="1" parent="1">
          <mxGeometry relative="1" as="geometry">
            <mxPoint x="190" y="3477" as="sourcePoint" />
            <mxPoint x="49" y="3198" as="targetPoint" />
            <Array as="points">
              <mxPoint x="190" y="3197" />
            </Array>
          </mxGeometry>
        </mxCell>
        <mxCell id="5ZSzfDrvXd6z9-84WiZO-368" value="ENROLLMENT" style="shape=rhombus;perimeter=rhombusPerimeter;whiteSpace=wrap;html=1;align=center;shadow=0;sketch=0;fillStyle=solid;strokeColor=#330000;strokeWidth=1;fillColor=#FFFFFF;" vertex="1" parent="1">
          <mxGeometry x="-57.5" y="3286" width="120" height="60" as="geometry" />
        </mxCell>
        <mxCell id="5ZSzfDrvXd6z9-84WiZO-369" value="" style="endArrow=none;html=1;rounded=0;" edge="1" parent="1">
          <mxGeometry relative="1" as="geometry">
            <mxPoint x="2.5" y="3346" as="sourcePoint" />
            <mxPoint x="2.5" y="3486" as="targetPoint" />
          </mxGeometry>
        </mxCell>
        <mxCell id="5ZSzfDrvXd6z9-84WiZO-370" value="(0, N)" style="resizable=0;html=1;align=left;verticalAlign=bottom;shadow=0;sketch=0;fillStyle=solid;strokeColor=#330000;strokeWidth=1;fillColor=#FFFFFF;" connectable="0" vertex="1" parent="1">
          <mxGeometry x="5.660000000000082" y="3485" as="geometry" />
        </mxCell>
        <mxCell id="5ZSzfDrvXd6z9-84WiZO-371" value="(1, N)" style="resizable=0;html=1;align=left;verticalAlign=bottom;shadow=0;sketch=0;fillStyle=solid;strokeColor=#330000;strokeWidth=1;fillColor=#FFFFFF;" connectable="0" vertex="1" parent="1">
          <mxGeometry x="149.75" y="3216" as="geometry" />
        </mxCell>
        <mxCell id="5ZSzfDrvXd6z9-84WiZO-376" value="(1, 1)" style="resizable=0;html=1;align=left;verticalAlign=bottom;shadow=0;sketch=0;fillStyle=solid;strokeColor=#330000;strokeWidth=1;fillColor=#FFFFFF;" connectable="0" vertex="1" parent="1">
          <mxGeometry x="-184.25" y="3216" as="geometry" />
        </mxCell>
        <mxCell id="5ZSzfDrvXd6z9-84WiZO-377" value="" style="edgeStyle=none;rounded=0;orthogonalLoop=1;jettySize=auto;html=1;exitX=0.75;exitY=0;exitDx=0;exitDy=0;endArrow=none;" edge="1" parent="1">
          <mxGeometry relative="1" as="geometry">
            <mxPoint x="-233" y="3578" as="targetPoint" />
            <mxPoint x="-219" y="3522" as="sourcePoint" />
          </mxGeometry>
        </mxCell>
        <mxCell id="5ZSzfDrvXd6z9-84WiZO-378" value="" style="ellipse;whiteSpace=wrap;html=1;fillColor=#FFFFFF;strokeColor=#330000;shadow=0;sketch=0;fillStyle=solid;strokeWidth=1;" vertex="1" parent="1">
          <mxGeometry x="-247" y="3577" width="20" height="20" as="geometry" />
        </mxCell>
        <mxCell id="5ZSzfDrvXd6z9-84WiZO-379" value="completed" style="text;html=1;align=center;verticalAlign=middle;resizable=0;points=[];autosize=1;strokeColor=none;fillColor=none;" vertex="1" parent="1">
          <mxGeometry x="-311" y="3554" width="80" height="30" as="geometry" />
        </mxCell>
        <mxCell id="5ZSzfDrvXd6z9-84WiZO-381" value="" style="ellipse;whiteSpace=wrap;html=1;fillColor=#000000;strokeColor=#330000;shadow=0;sketch=0;fillStyle=solid;strokeWidth=1;" vertex="1" parent="1">
          <mxGeometry x="258" y="3808" width="20" height="20" as="geometry" />
        </mxCell>
        <mxCell id="5ZSzfDrvXd6z9-84WiZO-384" value="" style="edgeStyle=none;rounded=0;orthogonalLoop=1;jettySize=auto;html=1;endArrow=none;" edge="1" parent="1">
          <mxGeometry relative="1" as="geometry">
            <mxPoint x="-191" y="3600" as="targetPoint" />
            <mxPoint x="-191" y="3536" as="sourcePoint" />
          </mxGeometry>
        </mxCell>
        <mxCell id="5ZSzfDrvXd6z9-84WiZO-385" value="" style="ellipse;whiteSpace=wrap;html=1;fillColor=#FFFFFF;strokeColor=#330000;shadow=0;sketch=0;fillStyle=solid;strokeWidth=1;" vertex="1" parent="1">
          <mxGeometry x="-201" y="3595" width="20" height="20" as="geometry" />
        </mxCell>
        <mxCell id="5ZSzfDrvXd6z9-84WiZO-389" value="" style="edgeStyle=none;rounded=0;orthogonalLoop=1;jettySize=auto;html=1;endArrow=none;" edge="1" parent="1">
          <mxGeometry relative="1" as="geometry">
            <mxPoint x="239" y="3583" as="targetPoint" />
            <mxPoint x="222.92893218813424" y="3520" as="sourcePoint" />
          </mxGeometry>
        </mxCell>
        <mxCell id="5ZSzfDrvXd6z9-84WiZO-390" value="" style="ellipse;whiteSpace=wrap;html=1;fillColor=#FFFFFF;strokeColor=#330000;shadow=0;sketch=0;fillStyle=solid;strokeWidth=1;" vertex="1" parent="1">
          <mxGeometry x="230" y="3575" width="20" height="20" as="geometry" />
        </mxCell>
        <mxCell id="5ZSzfDrvXd6z9-84WiZO-391" value="" style="ellipse;whiteSpace=wrap;html=1;fillColor=#FFFFFF;strokeColor=#330000;shadow=0;sketch=0;fillStyle=solid;strokeWidth=1;" vertex="1" parent="1">
          <mxGeometry x="133" y="3576" width="20" height="20" as="geometry" />
        </mxCell>
        <mxCell id="5ZSzfDrvXd6z9-84WiZO-392" value="" style="endArrow=none;html=1;rounded=0;" edge="1" parent="1">
          <mxGeometry width="50" height="50" relative="1" as="geometry">
            <mxPoint x="499" y="3626" as="sourcePoint" />
            <mxPoint x="445" y="3639" as="targetPoint" />
          </mxGeometry>
        </mxCell>
        <mxCell id="5ZSzfDrvXd6z9-84WiZO-393" value="nr_of_accesses" style="text;html=1;align=center;verticalAlign=middle;resizable=0;points=[];autosize=1;strokeColor=none;fillColor=none;" vertex="1" parent="1">
          <mxGeometry x="489.5" y="3595" width="110" height="30" as="geometry" />
        </mxCell>
        <mxCell id="5ZSzfDrvXd6z9-84WiZO-394" value="" style="ellipse;whiteSpace=wrap;html=1;fillColor=#FFFFFF;strokeColor=#330000;shadow=0;sketch=0;fillStyle=solid;strokeWidth=1;" vertex="1" parent="1">
          <mxGeometry x="489" y="3616" width="20" height="20" as="geometry" />
        </mxCell>
        <mxCell id="5ZSzfDrvXd6z9-84WiZO-395" value="" style="endArrow=none;html=1;rounded=0;" edge="1" parent="1">
          <mxGeometry width="50" height="50" relative="1" as="geometry">
            <mxPoint x="259" y="3446" as="sourcePoint" />
            <mxPoint x="215" y="3489" as="targetPoint" />
          </mxGeometry>
        </mxCell>
        <mxCell id="5ZSzfDrvXd6z9-84WiZO-396" value="nr_of_accesses" style="text;html=1;align=center;verticalAlign=middle;resizable=0;points=[];autosize=1;strokeColor=none;fillColor=none;" vertex="1" parent="1">
          <mxGeometry x="217" y="3408" width="110" height="30" as="geometry" />
        </mxCell>
        <mxCell id="5ZSzfDrvXd6z9-84WiZO-397" value="" style="ellipse;whiteSpace=wrap;html=1;fillColor=#FFFFFF;strokeColor=#330000;shadow=0;sketch=0;fillStyle=solid;strokeWidth=1;" vertex="1" parent="1">
          <mxGeometry x="248" y="3434" width="20" height="20" as="geometry" />
        </mxCell>
        <mxCell id="5ZSzfDrvXd6z9-84WiZO-398" value="" style="endArrow=none;html=1;rounded=0;" edge="1" parent="1">
          <mxGeometry width="50" height="50" relative="1" as="geometry">
            <mxPoint x="-58" y="3316" as="sourcePoint" />
            <mxPoint x="-131" y="3316" as="targetPoint" />
          </mxGeometry>
        </mxCell>
        <mxCell id="5ZSzfDrvXd6z9-84WiZO-399" value="" style="ellipse;whiteSpace=wrap;html=1;fillColor=#FFFFFF;strokeColor=#330000;shadow=0;sketch=0;fillStyle=solid;strokeWidth=1;" vertex="1" parent="1">
          <mxGeometry x="-141" y="3306" width="20" height="20" as="geometry" />
        </mxCell>
        <mxCell id="5ZSzfDrvXd6z9-84WiZO-400" value="enrollDate" style="text;html=1;align=center;verticalAlign=middle;resizable=0;points=[];autosize=1;strokeColor=none;fillColor=none;" vertex="1" parent="1">
          <mxGeometry x="-188" y="3321" width="80" height="30" as="geometry" />
        </mxCell>
        <mxCell id="5ZSzfDrvXd6z9-84WiZO-401" value="" style="ellipse;whiteSpace=wrap;html=1;fillColor=#FFFFFF;strokeColor=#330000;shadow=0;sketch=0;fillStyle=solid;strokeWidth=1;" vertex="1" parent="1">
          <mxGeometry x="495" y="3791" width="20" height="20" as="geometry" />
        </mxCell>
        <mxCell id="5ZSzfDrvXd6z9-84WiZO-402" value="" style="endArrow=none;html=1;rounded=0;" edge="1" parent="1">
          <mxGeometry width="50" height="50" relative="1" as="geometry">
            <mxPoint x="336" y="3772" as="sourcePoint" />
            <mxPoint x="260" y="3740" as="targetPoint" />
          </mxGeometry>
        </mxCell>
        <mxCell id="5ZSzfDrvXd6z9-84WiZO-403" value="" style="ellipse;whiteSpace=wrap;html=1;fillColor=#FFFFFF;strokeColor=#330000;shadow=0;sketch=0;fillStyle=solid;strokeWidth=1;" vertex="1" parent="1">
          <mxGeometry x="247" y="3728" width="20" height="20" as="geometry" />
        </mxCell>
        <mxCell id="5ZSzfDrvXd6z9-84WiZO-404" value="materialType" style="text;html=1;align=center;verticalAlign=middle;resizable=0;points=[];autosize=1;strokeColor=none;fillColor=none;flipV=1;" vertex="1" parent="1">
          <mxGeometry x="180" y="3704" width="90" height="30" as="geometry" />
        </mxCell>
        <mxCell id="5ZSzfDrvXd6z9-84WiZO-405" value="" style="edgeStyle=none;rounded=0;orthogonalLoop=1;jettySize=auto;html=1;exitX=0.094;exitY=-0.003;exitDx=0;exitDy=0;endArrow=none;exitPerimeter=0;" edge="1" parent="1" source="5ZSzfDrvXd6z9-84WiZO-250">
          <mxGeometry relative="1" as="geometry">
            <mxPoint x="-434" y="3423" as="targetPoint" />
            <mxPoint x="-411.98" y="3487.02" as="sourcePoint" />
          </mxGeometry>
        </mxCell>
        <mxCell id="5ZSzfDrvXd6z9-84WiZO-406" value="" style="ellipse;whiteSpace=wrap;html=1;fillColor=#000000;strokeColor=#330000;shadow=0;sketch=0;fillStyle=solid;strokeWidth=1;" vertex="1" parent="1">
          <mxGeometry x="-445" y="3407" width="20" height="20" as="geometry" />
        </mxCell>
        <mxCell id="5ZSzfDrvXd6z9-84WiZO-407" value="assessmentID" style="text;html=1;align=center;verticalAlign=middle;resizable=0;points=[];autosize=1;strokeColor=none;fillColor=none;" vertex="1" parent="1">
          <mxGeometry x="-538.5" y="3397" width="100" height="30" as="geometry" />
        </mxCell>
        <mxCell id="5ZSzfDrvXd6z9-84WiZO-410" value="" style="edgeStyle=none;rounded=0;orthogonalLoop=1;jettySize=auto;html=1;endArrow=none;" edge="1" parent="1">
          <mxGeometry relative="1" as="geometry">
            <mxPoint x="-322" y="3422" as="targetPoint" />
            <mxPoint x="-340" y="3486" as="sourcePoint" />
          </mxGeometry>
        </mxCell>
        <mxCell id="5ZSzfDrvXd6z9-84WiZO-411" value="" style="ellipse;whiteSpace=wrap;html=1;fillColor=#FFFFFF;strokeColor=#330000;shadow=0;sketch=0;fillStyle=solid;strokeWidth=1;" vertex="1" parent="1">
          <mxGeometry x="-332" y="3412" width="20" height="20" as="geometry" />
        </mxCell>
        <mxCell id="5ZSzfDrvXd6z9-84WiZO-412" value="name" style="text;html=1;align=center;verticalAlign=middle;resizable=0;points=[];autosize=1;strokeColor=none;fillColor=none;" vertex="1" parent="1">
          <mxGeometry x="-321" y="3392" width="50" height="30" as="geometry" />
        </mxCell>
        <mxCell id="5ZSzfDrvXd6z9-84WiZO-413" value="" style="endArrow=none;html=1;rounded=0;" edge="1" parent="1">
          <mxGeometry width="50" height="50" relative="1" as="geometry">
            <mxPoint x="-60" y="3426" as="sourcePoint" />
            <mxPoint x="-42.500000000000455" y="3486" as="targetPoint" />
          </mxGeometry>
        </mxCell>
        <mxCell id="5ZSzfDrvXd6z9-84WiZO-414" value="" style="ellipse;whiteSpace=wrap;html=1;aspect=fixed;shadow=0;sketch=0;fillStyle=solid;strokeColor=#330000;strokeWidth=1;fillColor=#000000;flipV=0;flipH=1;perimeterSpacing=0;" vertex="1" parent="1">
          <mxGeometry x="-71.5" y="3414" width="20" height="20" as="geometry" />
        </mxCell>
        <mxCell id="5ZSzfDrvXd6z9-84WiZO-415" value="courseID" style="text;html=1;align=center;verticalAlign=middle;resizable=0;points=[];autosize=1;strokeColor=none;fillColor=none;" vertex="1" parent="1">
          <mxGeometry x="-109" y="3389" width="70" height="30" as="geometry" />
        </mxCell>
        <mxCell id="5ZSzfDrvXd6z9-84WiZO-416" value="" style="edgeStyle=none;rounded=0;orthogonalLoop=1;jettySize=auto;html=1;exitX=0.75;exitY=0;exitDx=0;exitDy=0;endArrow=none;" edge="1" parent="1">
          <mxGeometry relative="1" as="geometry">
            <mxPoint x="269" y="3552.000000000001" as="targetPoint" />
            <mxPoint x="335" y="3526.000000000001" as="sourcePoint" />
          </mxGeometry>
        </mxCell>
        <mxCell id="5ZSzfDrvXd6z9-84WiZO-417" value="" style="ellipse;whiteSpace=wrap;html=1;fillColor=#000000;strokeColor=#330000;shadow=0;sketch=0;fillStyle=solid;strokeWidth=1;" vertex="1" parent="1">
          <mxGeometry x="258" y="3542" width="20" height="20" as="geometry" />
        </mxCell>
        <mxCell id="5ZSzfDrvXd6z9-84WiZO-418" value="unitID" style="text;html=1;align=center;verticalAlign=middle;resizable=0;points=[];autosize=1;strokeColor=none;fillColor=none;" vertex="1" parent="1">
          <mxGeometry x="271" y="3546" width="50" height="30" as="geometry" />
        </mxCell>
        <mxCell id="5ZSzfDrvXd6z9-84WiZO-419" value="" style="edgeStyle=none;rounded=0;orthogonalLoop=1;jettySize=auto;html=1;exitX=0.75;exitY=0;exitDx=0;exitDy=0;endArrow=none;" edge="1" parent="1">
          <mxGeometry relative="1" as="geometry">
            <mxPoint x="270" y="3818.000000000001" as="targetPoint" />
            <mxPoint x="336" y="3792.000000000001" as="sourcePoint" />
          </mxGeometry>
        </mxCell>
        <mxCell id="5ZSzfDrvXd6z9-84WiZO-420" value="materialID" style="text;html=1;align=center;verticalAlign=middle;resizable=0;points=[];autosize=1;strokeColor=none;fillColor=none;" vertex="1" parent="1">
          <mxGeometry x="262" y="3819" width="80" height="30" as="geometry" />
        </mxCell>
        <mxCell id="5ZSzfDrvXd6z9-84WiZO-421" value="Replace internal and external identifiers with IDs for simplicity" style="text;html=1;align=center;verticalAlign=middle;resizable=0;points=[];autosize=1;strokeColor=none;fillColor=none;" vertex="1" parent="1">
          <mxGeometry x="-603" y="3126" width="350" height="30" as="geometry" />
        </mxCell>
        <mxCell id="5ZSzfDrvXd6z9-84WiZO-422" value="Replace generalisations with entity attributes" style="text;html=1;align=center;verticalAlign=middle;resizable=0;points=[];autosize=1;strokeColor=none;fillColor=none;" vertex="1" parent="1">
          <mxGeometry x="-525" y="2161.55" width="260" height="30" as="geometry" />
        </mxCell>
        <mxCell id="5ZSzfDrvXd6z9-84WiZO-423" value="&lt;p style=&quot;line-height: 140%;&quot;&gt;STUDENT(&lt;u&gt;studentID&lt;/u&gt;,&amp;nbsp;firstName, lastName, dateOfBirth, genre, country, town)&lt;br&gt;INSTRUCTOR(&lt;u&gt;instructorID&lt;/u&gt;, firstName, lastName, genre)&lt;br&gt;COURSE(&lt;u&gt;courseID&lt;/u&gt;,&amp;nbsp;courseName, courseYear, syllabus)&lt;br&gt;UNIT(&lt;u&gt;unitID&lt;/u&gt;, unitName, unitNumber, learningGoals)&lt;br&gt;LEARNING_MATERIAL(ma&lt;u&gt;terialID&lt;/u&gt;, materialType,&amp;nbsp;&lt;span style=&quot;border-color: var(--border-color);&quot;&gt;name&lt;/span&gt;, description, dimension)&lt;br&gt;FINAL_ASSESSMENT(&lt;u style=&quot;border-color: var(--border-color);&quot;&gt;assessmentID&lt;/u&gt;,&amp;nbsp;assessmentType, name)&lt;br style=&quot;border-color: var(--border-color);&quot;&gt;ENROLLMENT(&lt;u&gt;course&lt;/u&gt;, &lt;u&gt;student&lt;/u&gt;, enrollDate)&lt;br&gt;TEACHING(&lt;u style=&quot;border-color: var(--border-color);&quot;&gt;course&lt;/u&gt;,&amp;nbsp;&lt;u style=&quot;border-color: var(--border-color);&quot;&gt;instructor&lt;/u&gt;)&lt;br style=&quot;border-color: var(--border-color);&quot;&gt;LEARNING(&lt;u style=&quot;border-color: var(--border-color);&quot;&gt;course&lt;/u&gt;, &lt;u&gt;student&lt;/u&gt;,&amp;nbsp;&lt;u&gt;unit&lt;/u&gt;, accessDate, accessStart, accessEnd, nAccesses)&lt;br style=&quot;border-color: var(--border-color);&quot;&gt;USING_RESOURCES(&lt;u style=&quot;border-color: var(--border-color);&quot;&gt;unit&lt;/u&gt;,&amp;nbsp;&lt;u&gt;material&lt;/u&gt;, accessDate, nAccesses)&lt;br style=&quot;border-color: var(--border-color);&quot;&gt;GRADING(&lt;u&gt;course&lt;/u&gt;,&amp;nbsp;&lt;u&gt;student&lt;/u&gt;, &lt;u&gt;assessment&lt;/u&gt;, minScore, maxScore, attemptDate, nAttempts, completed)&lt;/p&gt;" style="text;html=1;align=center;verticalAlign=middle;resizable=0;points=[];autosize=1;strokeColor=none;fillColor=none;fontSize=14;" vertex="1" parent="1">
          <mxGeometry x="-301" y="4105" width="640" height="260" as="geometry" />
        </mxCell>
        <mxCell id="5ZSzfDrvXd6z9-84WiZO-424" value="&lt;b&gt;RELATIONAL SCHEMA&lt;/b&gt;" style="text;html=1;align=center;verticalAlign=middle;resizable=0;points=[];autosize=1;strokeColor=none;fillColor=none;fontSize=14;" vertex="1" parent="1">
          <mxGeometry x="-77" y="4068" width="180" height="30" as="geometry" />
        </mxCell>
      </root>
    </mxGraphModel>
  </diagram>
</mxfile>
